<svg width="92" height="92" viewBox="0 0 92 92" fill="none" xmlns="http://www.w3.org/2000/svg">
<path d="M78.5321 49.7806C81.006 51.3872 83.3409 53.2808 85.4828 55.4078L87.5465 57.459L84.756 58.296C81.7991 59.1783 78.7836 59.7523 75.7833 59.9891L75.946 62.0689C79.0931 61.8159 82.2572 61.2184 85.35 60.2901L91.5083 58.4487L86.9593 53.9243C84.7166 51.6921 82.2653 49.7081 79.6756 48.0229L78.5321 49.7806Z" fill="#2376BC"/>
<path d="M48.4786 55.3693C48.2909 53.7699 48.2956 52.1287 48.4967 50.4854L46.4242 50.2391C46.2336 51.8048 46.209 53.3675 46.3376 54.9042L40.5815 53.4588L29.1949 58.6546L46.3165 62.9532L54.7552 59.095L62.1325 60.9434C64.7997 61.6105 67.5584 62.0233 70.323 62.1576L70.4313 60.0697C67.8001 59.9385 65.1807 59.5497 62.6434 58.9115L48.4786 55.3693ZM46.1174 60.7443L35.4858 58.0786L40.7825 55.6606L51.4141 58.3263L46.1174 60.7443Z" fill="#2376BC"/>
<path d="M78.121 47.1281L77.2766 46.5179L76.4296 45.9032C76.2095 46.2057 71.0478 53.428 72.2601 62.4079L74.3295 62.1237C73.2331 53.9939 78.0749 47.1957 78.121 47.1281Z" fill="#2376BC"/>
<path d="M69.817 53.016C70.1362 51.7551 69.9451 50.4387 69.2742 49.3248C68.6079 48.2084 67.5424 47.417 66.2808 47.0999C65.0264 46.7848 63.7584 46.9916 62.7089 47.5785C61.5773 48.2114 60.6953 49.2907 60.3545 50.6414C60.0354 51.9023 60.231 53.2161 60.8973 54.3326C61.5636 55.449 62.6292 56.2404 63.8908 56.5575C65.1523 56.8746 66.461 56.6869 67.5859 56.01C68.7042 55.3427 69.5004 54.2814 69.817 53.016ZM64.3997 54.5327C62.9086 54.1586 62.0018 52.6444 62.3784 51.1541C62.7549 49.6638 64.2717 48.7557 65.7628 49.1298C66.487 49.3108 67.0925 49.7616 67.4751 50.4028C67.8551 51.0395 67.9688 51.7891 67.7866 52.513C67.6044 53.2368 67.1524 53.8424 66.5101 54.2255C65.8789 54.5965 65.1239 54.7137 64.3997 54.5327Z" fill="#2376BC"/>
<path d="M56.3997 50.7295L56.9114 48.7036L38.5779 44.1057L38.0662 46.1315L56.3997 50.7295Z" fill="#2376BC"/>
<path d="M22.6633 54.5156L21.386 51.5462L26.9666 51.6066L26.9906 49.5181L18.1913 49.4218L19.5048 52.4667L11.4774 52.5726L11.5026 54.6635L22.6633 54.5156Z" fill="#2376BC"/>
<path d="M22.844 30.9964L30.6452 35.0595L31.6113 33.2096L26.6644 30.6299L29.2002 28.6198L19.4429 23.2226L18.4291 25.0514L25.4497 28.9292L22.844 30.9964Z" fill="#2376BC"/>
<path d="M37.0638 51.0247L37.1136 51.0387C39.7667 51.7019 42.622 51.2592 44.9427 49.8178L43.8415 48.0416C42.0034 49.1892 39.7311 49.539 37.6199 49.0094L37.5702 48.9953C36.6281 48.7568 35.7288 48.3806 34.8983 47.8703L25.0184 41.7823L36.6809 41.0966C37.6493 41.0394 38.6175 41.1318 39.557 41.3659C41.6611 41.8935 43.4929 43.2731 44.5755 45.1554L46.3879 44.1118C45.0236 41.7473 42.7215 40.0087 40.073 39.3431C38.9298 39.0555 37.7479 38.945 36.5648 39.0146L18.28 40.0909L33.8027 49.6492C34.809 50.2704 35.9064 50.7331 37.0638 51.0247Z" fill="#2376BC"/>
<path d="M50.027 40.2827C49.1805 41.5754 48.4673 42.967 47.8907 44.4317L49.8369 45.1911C50.4427 43.6503 51.2168 42.2067 52.1414 40.8824L66.3067 44.4362C68.844 45.0744 71.3366 45.9648 73.7161 47.0919L74.6126 45.2032C72.1112 44.0187 69.49 43.0805 66.8202 42.4089L59.443 40.5604L53.8372 33.1824L36.7136 28.8909L44.2734 38.8419L50.027 40.2827ZM52.6112 35.0282L56.1285 39.6572L45.4943 36.987L41.9771 32.358L52.6112 35.0282Z" fill="#2376BC"/>
<path d="M61.9506 71.2782L62.4727 69.2551L47.4385 65.4021L46.9164 67.4252L61.9506 71.2782Z" fill="#2376BC"/>
<path d="M51.3598 72.1338L51.8601 70.1052L41.4478 67.5557L40.9475 69.5843L51.3598 72.1338Z" fill="#2376BC"/>
<path d="M75.8619 42.1934L76.5645 40.2253L66.1002 36.5091L65.3976 38.4772L75.8619 42.1934Z" fill="#2376BC"/>
<path d="M72.8047 36.7269L73.5073 34.7588L63.0431 31.0426L62.3405 33.0107L72.8047 36.7269Z" fill="#2376BC"/>
</svg>
