<svg xmlns:xlink="http://www.w3.org/1999/xlink" width="24" height="26" viewBox="0 0 24 26" fill="none" xmlns="http://www.w3.org/2000/svg"><path d="M8 0.666016C8.73638 0.666016 9.33333 1.26297 9.33333 1.99935V3.33268H14.6667V1.99935C14.6667 1.26297 15.2636 0.666016 16 0.666016C16.7364 0.666016 17.3333 1.26297 17.3333 1.99935V3.33268H21.3333C22.8061 3.33268 24 4.52659 24 5.99935V23.3327C24 24.8054 22.8061 25.9993 21.3333 25.9993H2.66667C1.19391 25.9993 0 24.8054 0 23.3327V5.99935C0 4.52659 1.19391 3.33268 2.66667 3.33268H6.66667V1.99935C6.66667 1.26297 7.26362 0.666016 8 0.666016ZM6.66667 5.99935H2.66667V9.99935H21.3333V5.99935H17.3333V7.33268C17.3333 8.06906 16.7364 8.66602 16 8.66602C15.2636 8.66602 14.6667 8.06906 14.6667 7.33268V5.99935H9.33333V7.33268C9.33333 8.06906 8.73638 8.66602 8 8.66602C7.26362 8.66602 6.66667 8.06906 6.66667 7.33268V5.99935ZM21.3333 12.666H2.66667V23.3327H21.3333V12.666Z" fill="#0071CE"></path></svg>