<svg xmlns:xlink="http://www.w3.org/1999/xlink" width="32" height="32" viewBox="0 0 32 32" fill="none" xmlns="http://www.w3.org/2000/svg"><path d="M15.1145 3.00354C15.6197 2.55449 16.381 2.55449 16.8862 3.00354L28.8862 13.6702C29.4365 14.1594 29.4861 15.0022 28.9969 15.5526C28.5077 16.1029 27.6649 16.1525 27.1145 15.6633L26.667 15.2655V25.3334C26.667 26.8062 25.4731 28.0001 24.0003 28.0001H8.00034C6.52758 28.0001 5.33367 26.8062 5.33367 25.3334V15.2655L4.88616 15.6633C4.33578 16.1525 3.49302 16.1029 3.00379 15.5526C2.51457 15.0022 2.56414 14.1594 3.11452 13.6702L15.1145 3.00354ZM8.00034 12.8951V25.3334H12.0003V18.6667C12.0003 17.9304 12.5973 17.3334 13.3337 17.3334H18.667C19.4034 17.3334 20.0003 17.9304 20.0003 18.6667V25.3334H24.0003V12.8951L16.0003 5.78402L8.00034 12.8951ZM17.3337 25.3334V20.0001H14.667V25.3334H17.3337Z" fill="#0071CE"></path></svg>