<svg xmlns:xlink="http://www.w3.org/1999/xlink" width="24" height="28" viewBox="0 0 24 28" fill="none" xmlns="http://www.w3.org/2000/svg"><path d="M12 3.33341C9.05448 3.33341 6.66667 5.72123 6.66667 8.66675C6.66667 11.6123 9.05448 14.0001 12 14.0001C14.9455 14.0001 17.3333 11.6123 17.3333 8.66675C17.3333 5.72123 14.9455 3.33341 12 3.33341ZM4 8.66675C4 4.24847 7.58172 0.666748 12 0.666748C16.4183 0.666748 20 4.24847 20 8.66675C20 13.085 16.4183 16.6667 12 16.6667C7.58172 16.6667 4 13.085 4 8.66675ZM6.66667 22.0001C4.45753 22.0001 2.66667 23.7909 2.66667 26.0001C2.66667 26.7365 2.06971 27.3334 1.33333 27.3334C0.596954 27.3334 0 26.7365 0 26.0001C0 22.3182 2.98477 19.3334 6.66667 19.3334H17.3333C21.0152 19.3334 24 22.3182 24 26.0001C24 26.7365 23.403 27.3334 22.6667 27.3334C21.9303 27.3334 21.3333 26.7365 21.3333 26.0001C21.3333 23.7909 19.5425 22.0001 17.3333 22.0001H6.66667Z" fill="#0071CE"></path></svg>