<svg xmlns:xlink="http://www.w3.org/1999/xlink" width="16" height="22" viewBox="0 0 16 22" fill="none" xmlns="http://www.w3.org/2000/svg"><path d="M8 0.333984C8.73638 0.333984 9.33333 0.930938 9.33333 1.66732V20.334C9.33333 21.0704 8.73638 21.6673 8 21.6673C7.26362 21.6673 6.66667 21.0704 6.66667 20.334V1.66732C6.66667 0.930938 7.26362 0.333984 8 0.333984ZM14.6667 5.66732C15.403 5.66732 16 6.26427 16 7.00065V20.334C16 21.0704 15.403 21.6673 14.6667 21.6673C13.9303 21.6673 13.3333 21.0704 13.3333 20.334V7.00065C13.3333 6.26427 13.9303 5.66732 14.6667 5.66732ZM1.33333 11.0007C2.06971 11.0007 2.66667 11.5976 2.66667 12.334V20.334C2.66667 21.0704 2.06971 21.6673 1.33333 21.6673C0.596954 21.6673 0 21.0704 0 20.334V12.334C0 11.5976 0.596954 11.0007 1.33333 11.0007Z" fill="#0071CE"></path></svg>