<svg xmlns:xlink="http://www.w3.org/1999/xlink" class="text-primary-500" width="16" height="18" viewBox="0 0 16 18" fill="none" xmlns="http://www.w3.org/2000/svg"><path fill-rule="evenodd" clip-rule="evenodd" d="M3.33392 1.30025C3.5195 0.797528 3.2566 0.24166 2.74673 0.0586841C2.23686 -0.124292 1.67308 0.134914 1.4875 0.637636L0.0618908 4.49954C-0.123688 5.00226 0.139205 5.55813 0.649078 5.7411L4.56592 7.14672C5.07579 7.3297 5.63956 7.07049 5.82514 6.56777C6.01072 6.06505 5.74783 5.50918 5.23796 5.3262L3.54994 4.72043L4.96194 4.07124C8.12085 2.61887 11.9754 4.00214 13.4484 7.11674C14.9214 10.2314 13.5185 14.0318 10.3596 15.4842C7.20068 16.9366 3.34614 15.5533 1.87311 12.4387C1.6438 11.9538 1.05926 11.7441 0.567496 11.9702C0.0757373 12.1962 -0.137019 12.7726 0.0922924 13.2575C2.02394 17.3418 7.04757 19.1446 11.19 17.24C15.3324 15.3355 17.1609 10.3823 15.2292 6.29798C13.2976 2.21365 8.27396 0.410846 4.13153 2.3154L2.71953 2.96459L3.33392 1.30025ZM8.14674 7.22351C8.14674 6.83691 7.78857 6.52351 7.34674 6.52351C6.90491 6.52351 6.54674 6.83691 6.54674 7.22351V10.7235C6.54674 10.9092 6.63102 11.0872 6.78105 11.2185L9.18105 13.3185C9.49347 13.5919 10 13.5919 10.3124 13.3185C10.6248 13.0451 10.6248 12.6019 10.3124 12.3285L8.14674 10.4336V7.22351Z" fill="#0071CE"></path></svg>