<svg xmlns:xlink="http://www.w3.org/1999/xlink" class="" width="28" height="28" viewBox="0 0 28 28" fill="none" xmlns="http://www.w3.org/2000/svg"><path d="M11.3332 3.33317C8.38765 3.33317 5.99984 5.72099 5.99984 8.6665C5.99984 11.612 8.38765 13.9998 11.3332 13.9998C14.2787 13.9998 16.6665 11.612 16.6665 8.6665C16.6665 5.72099 14.2787 3.33317 11.3332 3.33317ZM3.33317 8.6665C3.33317 4.24823 6.91489 0.666504 11.3332 0.666504C15.7514 0.666504 19.3332 4.24823 19.3332 8.6665C19.3332 13.0848 15.7514 16.6665 11.3332 16.6665C6.91489 16.6665 3.33317 13.0848 3.33317 8.6665ZM20.4377 3.00965C20.9584 2.48895 21.8027 2.48895 22.3234 3.00965C25.4476 6.13384 25.4476 11.1992 22.3234 14.3234C21.8027 14.8441 20.9584 14.8441 20.4377 14.3234C19.917 13.8027 19.917 12.9584 20.4377 12.4377C22.5205 10.3549 22.5205 6.97806 20.4377 4.89527C19.917 4.37457 19.917 3.53035 20.4377 3.00965ZM21.373 20.3431C21.5516 19.6287 22.2755 19.1944 22.9899 19.373C24.7604 19.8156 25.8812 20.9477 26.5257 22.2369C27.1494 23.4843 27.3332 24.876 27.3332 25.9998C27.3332 26.7362 26.7362 27.3332 25.9998 27.3332C25.2635 27.3332 24.6665 26.7362 24.6665 25.9998C24.6665 25.1237 24.5169 24.182 24.1406 23.4295C23.7852 22.7186 23.2392 22.1841 22.3431 21.96C21.6287 21.7814 21.1944 21.0575 21.373 20.3431ZM6.6665 21.9998C4.98723 21.9998 3.33317 23.6179 3.33317 25.9998C3.33317 26.7362 2.73622 27.3332 1.99984 27.3332C1.26346 27.3332 0.666504 26.7362 0.666504 25.9998C0.666504 22.4907 3.19113 19.3332 6.6665 19.3332H15.9998C19.4752 19.3332 21.9998 22.4907 21.9998 25.9998C21.9998 26.7362 21.4029 27.3332 20.6665 27.3332C19.9301 27.3332 19.3332 26.7362 19.3332 25.9998C19.3332 23.6179 17.6791 21.9998 15.9998 21.9998H6.6665Z" fill="#2E94E8"></path></svg>