<svg xmlns:xlink="http://www.w3.org/1999/xlink" width="32" height="32" viewBox="0 0 32 32" fill="none" xmlns="http://www.w3.org/2000/svg"><path d="M2.7334 17.3333H10.0361C10.2642 21.5558 11.6101 25.6418 13.9361 29.1733C11.0226 28.7157 8.34299 27.3055 6.31609 25.1633C4.28918 23.0211 3.02929 20.2676 2.7334 17.3333ZM2.7334 14.6667C3.02929 11.7324 4.28918 8.9789 6.31609 6.83668C8.34299 4.69446 11.0226 3.28429 13.9361 2.82666C11.6101 6.35814 10.2642 10.4442 10.0361 14.6667H2.7334ZM29.2667 14.6667H21.9641C21.7359 10.4442 20.39 6.35814 18.0641 2.82666C20.9775 3.28429 23.6571 4.69446 25.684 6.83668C27.711 8.9789 28.9708 11.7324 29.2667 14.6667ZM29.2667 17.3333C28.9708 20.2676 27.711 23.0211 25.684 25.1633C23.6571 27.3055 20.9775 28.7157 18.0641 29.1733C20.39 25.6418 21.7359 21.5558 21.9641 17.3333H29.2681H29.2667ZM12.7067 17.3333H19.2934C19.0739 20.9326 17.9405 24.4166 16.0001 27.456C14.0597 24.4166 12.9262 20.9326 12.7067 17.3333ZM12.7067 14.6667C12.9262 11.0673 14.0597 7.58341 16.0001 4.54399C17.9405 7.58341 19.0739 11.0673 19.2934 14.6667H12.7067Z" fill="#2E94E8"></path></svg>