<svg xmlns:xlink="http://www.w3.org/1999/xlink" class="text-box-attendance" width="40" height="40" viewBox="0 0 40 40" fill="none" xmlns="http://www.w3.org/2000/svg"><circle cx="20" cy="20" r="20" fill="#FFFFFF"></circle><path d="M12 12C12 10.8954 12.8954 10 14 10H22C22.2652 10 22.5196 10.1054 22.7071 10.2929L27.7071 15.2929C27.8946 15.4804 28 15.7348 28 16V28C28 29.1046 27.1046 30 26 30H14C12.8954 30 12 29.1046 12 28V12ZM25.5858 16L22 12.4142V16H25.5858ZM20 12L14 12V28H26V18H21C20.4477 18 20 17.5523 20 17V12ZM23.7071 20.2929C24.0976 20.6834 24.0976 21.3166 23.7071 21.7071L19.7071 25.7071C19.3166 26.0976 18.6834 26.0976 18.2929 25.7071L16.2929 23.7071C15.9024 23.3166 15.9024 22.6834 16.2929 22.2929C16.6834 21.9024 17.3166 21.9024 17.7071 22.2929L19 23.5858L22.2929 20.2929C22.6834 19.9024 23.3166 19.9024 23.7071 20.2929Z" fill="#2576B9"></path></svg>