<svg xmlns:xlink="http://www.w3.org/1999/xlink" width="40" height="40" viewBox="0 0 40 40" fill="none" xmlns="http://www.w3.org/2000/svg"><circle cx="20" cy="20" r="20" fill="#FFFFFF"></circle><path d="M12 14.6335C12.1399 14.577 12.308 14.5145 12.5029 14.4515C13.1921 14.2287 14.213 14 15.5 14C16.787 14 17.8079 14.2287 18.4971 14.4515C18.692 14.5145 18.8601 14.577 19 14.6335V25.5129C18.1488 25.2485 16.9602 25 15.5 25C14.0398 25 12.8512 25.2485 12 25.5129V14.6335ZM20 12.8853C19.7743 12.7852 19.4765 12.6662 19.1123 12.5485C18.2546 12.2713 17.0255 12 15.5 12C13.9745 12 12.7454 12.2713 11.8877 12.5485C11.459 12.6871 11.1224 12.8274 10.8869 12.9366C10.7691 12.9912 10.6764 13.0381 10.61 13.0733C10.5768 13.0909 10.5501 13.1056 10.5301 13.1168L10.5051 13.131L10.4964 13.1361L10.493 13.1381L10.4915 13.1389C10.4895 13.1401 10.2451 13.2849 10.4902 13.1397C10.1863 13.3198 10 13.6468 10 14V27C10 27.3593 10.1928 27.691 10.5049 27.8689C10.8169 28.0466 11.2002 28.0435 11.5092 27.8606C11.5065 27.8622 11.5048 27.8632 11.5048 27.8632L11.5061 27.8625L11.5076 27.8616L11.5092 27.8606C11.5153 27.8572 11.5276 27.8505 11.546 27.8408C11.5828 27.8213 11.644 27.7901 11.7283 27.7509C11.8972 27.6726 12.1582 27.5629 12.5029 27.4515C13.1921 27.2287 14.213 27 15.5 27C16.787 27 17.8079 27.2287 18.4971 27.4515C18.8418 27.5629 19.1028 27.6726 19.2717 27.7509C19.356 27.7901 19.4172 27.8213 19.454 27.8408C19.4724 27.8505 19.4847 27.8573 19.4908 27.8608C19.4936 27.8623 19.4952 27.8632 19.4952 27.8632M19.4952 27.8632L19.4939 27.8625L19.4924 27.8616L19.4908 27.8608C19.8048 28.0462 20.1954 28.0463 20.5092 27.8606C20.5153 27.8572 20.5276 27.8505 20.546 27.8408C20.5828 27.8213 20.644 27.7901 20.7283 27.7509C20.8972 27.6726 21.1582 27.5629 21.5029 27.4515C22.1921 27.2287 23.213 27 24.5 27C25.787 27 26.8079 27.2287 27.4971 27.4515C27.8418 27.5629 28.1028 27.6726 28.2717 27.7509C28.356 27.7901 28.4172 27.8213 28.454 27.8408C28.4724 27.8505 28.4847 27.8573 28.4908 27.8608L28.4919 27.8613C28.8007 28.0435 29.1835 28.0464 29.4951 27.8689C29.8072 27.691 30 27.3593 30 27V14C30 13.6468 29.8137 13.3198 29.5098 13.1397L29.5085 13.1389L29.507 13.1381L29.5036 13.1361L29.4949 13.131L29.4699 13.1168C29.4499 13.1056 29.4232 13.0909 29.39 13.0733C29.3236 13.0381 29.2309 12.9912 29.1131 12.9366C28.8776 12.8274 28.541 12.6871 28.1123 12.5485C27.2546 12.2713 26.0255 12 24.5 12C22.9745 12 21.7454 12.2713 20.8877 12.5485C20.5235 12.6662 20.2257 12.7852 20 12.8853M28 14.6335V25.5129C27.1488 25.2485 25.9602 25 24.5 25C23.0398 25 21.8512 25.2485 21 25.5129V14.6335C21.1399 14.577 21.308 14.5145 21.5029 14.4515C22.1921 14.2287 23.213 14 24.5 14C25.787 14 26.8079 14.2287 27.4971 14.4515C27.692 14.5145 27.8601 14.577 28 14.6335ZM28.4908 14.8608C28.4935 14.8623 28.4952 14.8632 28.4952 14.8632L28.4939 14.8625L28.4908 14.8608ZM28.4908 27.8608L28.4941 27.8626L28.4919 27.8613" fill="#2576B9"></path></svg>