<svg xmlns:xlink="http://www.w3.org/1999/xlink" class="text-box-time" width="40" height="40" viewBox="0 0 40 40" fill="none" xmlns="http://www.w3.org/2000/svg"><circle cx="20" cy="20" r="20" fill="#FFFFFF"></circle><path d="M20 12C15.5817 12 12 15.5817 12 20C12 24.4183 15.5817 28 20 28C24.4183 28 28 24.4183 28 20C28 15.5817 24.4183 12 20 12ZM10 20C10 14.4772 14.4772 10 20 10C25.5228 10 30 14.4772 30 20C30 25.5228 25.5228 30 20 30C14.4772 30 10 25.5228 10 20ZM20 14C20.5523 14 21 14.4477 21 15V19.5858L23.7071 22.2929C24.0976 22.6834 24.0976 23.3166 23.7071 23.7071C23.3166 24.0976 22.6834 24.0976 22.2929 23.7071L19.2929 20.7071C19.1054 20.5196 19 20.2652 19 20V15C19 14.4477 19.4477 14 20 14Z" fill="#EB9CC4"></path></svg>