<svg width="84" height="75" viewBox="0 0 84 75" fill="none" xmlns="http://www.w3.org/2000/svg">
<path d="M21.2814 48.097C14.7436 51.2789 12.0245 59.1388 15.2035 65.6721C18.3824 72.2054 26.2697 74.9085 32.8175 71.7366C36.9261 69.7417 39.5251 65.8915 40.1049 61.6922C45.0333 68.9836 54.7 71.7366 62.8572 67.7767C71.7741 63.4378 75.4829 52.7152 71.1344 43.818C66.7858 34.9207 56.0395 31.2202 47.1226 35.5591" fill="#EB9CC3"/>
<path d="M21.2814 48.097C14.7436 51.2789 12.0245 59.1388 15.2035 65.6721C18.3824 72.2054 26.2697 74.9085 32.8175 71.7366C36.9261 69.7417 39.5251 65.8915 40.1049 61.6922C45.0333 68.9836 54.7 71.7366 62.8572 67.7767C71.7741 63.4378 75.4829 52.7152 71.1344 43.818C66.7858 34.9207 56.0395 31.2202 47.1226 35.5591" stroke="#2576B9" stroke-width="3" stroke-miterlimit="10"/>
<path d="M47.1126 35.5391C56.0296 31.2002 59.7383 20.4777 55.3898 11.5804C51.0413 2.68315 40.295 -1.01739 31.378 3.32152C23.2308 7.28139 19.4321 16.5776 22.1511 24.9462C18.4824 22.8117 13.8439 22.4825 9.73535 24.4774C3.19758 27.6593 0.47852 35.5192 3.65744 42.0525C6.83635 48.5858 14.7237 51.2889 21.2714 48.117" fill="#EB9CC3"/>
<path d="M47.1126 35.5391C56.0296 31.2002 59.7383 20.4777 55.3898 11.5804C51.0413 2.68315 40.295 -1.01739 31.378 3.32152C23.2308 7.28139 19.4321 16.5776 22.1511 24.9462C18.4824 22.8117 13.8439 22.4825 9.73535 24.4774C3.19758 27.6593 0.47852 35.5192 3.65744 42.0525C6.83635 48.5858 14.7237 51.2889 21.2714 48.117" stroke="#2576B9" stroke-width="3" stroke-miterlimit="10"/>
<path d="M39.8051 22.6022C42.4496 22.6022 44.5934 20.4631 44.5934 17.8244C44.5934 15.1857 42.4496 13.0466 39.8051 13.0466C37.1606 13.0466 35.0167 15.1857 35.0167 17.8244C35.0167 20.4631 37.1606 22.6022 39.8051 22.6022Z" fill="#EB9CC3" stroke="#2576B9" stroke-width="3" stroke-miterlimit="10"/>
<path d="M17.1128 41.6036C19.7574 41.6036 21.9012 39.4645 21.9012 36.8258C21.9012 34.1871 19.7574 32.048 17.1128 32.048C14.4683 32.048 12.3245 34.1871 12.3245 36.8258C12.3245 39.4645 14.4683 41.6036 17.1128 41.6036Z" fill="#EB9CC3" stroke="#2576B9" stroke-width="3" stroke-miterlimit="10"/>
<path d="M27.5993 63.0887C30.2438 63.0887 32.3876 60.9496 32.3876 58.3109C32.3876 55.6722 30.2438 53.5331 27.5993 53.5331C24.9547 53.5331 22.8109 55.6722 22.8109 58.3109C22.8109 60.9496 24.9547 63.0887 27.5993 63.0887Z" fill="#EB9CC3" stroke="#2576B9" stroke-width="3" stroke-miterlimit="10"/>
<path d="M56.5794 56.9743C59.224 56.9743 61.3678 54.8352 61.3678 52.1965C61.3678 49.5578 59.224 47.4188 56.5794 47.4188C53.9349 47.4188 51.791 49.5578 51.791 52.1965C51.791 54.8352 53.9349 56.9743 56.5794 56.9743Z" fill="#EB9CC3" stroke="#2576B9" stroke-width="3" stroke-miterlimit="10"/>
<path d="M48.1923 35.0105C48.1923 35.0105 76.1228 26.7516 65.5763 5.14685" stroke="#2576B9" stroke-width="3" stroke-miterlimit="10"/>
<path d="M48.3622 35.3596C48.3622 35.3596 72.1041 18.5027 82.6505 40.1075" stroke="#2576B9" stroke-width="3" stroke-miterlimit="10"/>
</svg>
