<svg width="28" height="28" viewBox="0 0 28 28" fill="none" xmlns="http://www.w3.org/2000/svg">
<path fill-rule="evenodd" clip-rule="evenodd" d="M2.31163 2.20106C2.87572 1.63697 3.79029 1.63697 4.35438 2.20106L26.8247 24.6713C27.3888 25.2354 27.3888 26.15 26.8247 26.7141C26.2606 27.2782 25.346 27.2782 24.7819 26.7141L2.31163 4.24382C1.74754 3.67973 1.74754 2.76515 2.31163 2.20106Z" fill="white"/>
<path fill-rule="evenodd" clip-rule="evenodd" d="M1.68788 26.2011C1.12379 25.637 1.12379 24.7224 1.68788 24.1583L24.1582 1.68803C24.7223 1.12394 25.6368 1.12394 26.2009 1.68803C26.765 2.25212 26.765 3.16669 26.2009 3.73079L3.73063 26.2011C3.16654 26.7652 2.25197 26.7652 1.68788 26.2011Z" fill="white"/>
</svg>
