<svg width="80" height="138" viewBox="0 0 80 138" fill="none" xmlns="http://www.w3.org/2000/svg">
<path d="M77.4707 36.2231C75.2909 15.5199 56.7832 0.501262 36.1256 2.68688C15.4681 4.8725 0.499855 23.4302 2.6796 44.1435C3.22953 49.3168 19.0776 81.7903 25.0469 93.8814C26.3968 96.6084 29.2864 98.2025 32.2961 97.8817L59.6828 94.9842C62.6924 94.6634 65.1921 92.4978 65.9421 89.5603C69.2717 76.4766 78.0206 41.4064 77.4707 36.2231Z" fill="#FFD95C" stroke="#2576B9" stroke-width="4.9419" stroke-miterlimit="10"/>
<path d="M18.4575 80.3867L69.5914 74.9728" stroke="#2576B9" stroke-width="4.9419" stroke-miterlimit="10"/>
<path d="M34.6757 78.6723C34.6757 78.6723 22.8571 56.2245 17.9277 9.354Z" fill="#FFD95C"/>
<path d="M34.6757 78.6723C34.6757 78.6723 22.8571 56.2245 17.9277 9.354" stroke="#2576B9" stroke-width="4.9419" stroke-miterlimit="10"/>
<path d="M53.3735 76.6872C53.3735 76.6872 60.2535 52.2644 55.3235 5.39386Z" fill="#FFD95C"/>
<path d="M53.3735 76.6872C53.3735 76.6872 60.2535 52.2644 55.3235 5.39386" stroke="#2576B9" stroke-width="4.9419" stroke-miterlimit="10"/>
<path d="M37.6554 107.005L36.6455 97.4205L55.3433 95.4454L56.3532 105.03C56.6131 107.496 54.8233 109.712 52.3636 109.973L42.5848 111.005C40.1251 111.266 37.9154 109.481 37.6554 107.005Z" fill="#FFD95C" stroke="#2576B9" stroke-width="4.9419" stroke-miterlimit="10"/>
<path d="M60.3127 132.832L39.5852 135.027C37.5654 135.238 35.7556 133.774 35.5357 131.739L34.8257 125.021C34.6158 122.996 36.0756 121.182 38.1054 120.961L58.8329 118.765C60.8527 118.555 62.6624 120.019 62.8824 122.054L63.5923 128.771C63.7923 130.796 62.3325 132.611 60.3127 132.832Z" fill="#FFD95C" stroke="#2576B9" stroke-width="4.9419" stroke-miterlimit="10"/>
</svg>
