<svg xmlns="http://www.w3.org/2000/svg" xmlns:xlink="http://www.w3.org/1999/xlink" width="500" zoomAndPan="magnify" viewBox="0 0 375 374.999991" height="500" preserveAspectRatio="xMidYMid meet" version="1.0"><defs><clipPath id="21dfa57f2a"><path d="M 306 13.296875 L 375 13.296875 L 375 82 L 306 82 Z M 306 13.296875 " clip-rule="nonzero"/></clipPath></defs><path fill="#72ffff" d="M 89.195312 30.746094 L 209.730469 151.28125 C 210.941406 152.492188 212.089844 153.757812 213.175781 155.082031 C 214.261719 156.402344 215.28125 157.777344 216.230469 159.199219 C 217.179688 160.621094 218.058594 162.089844 218.867188 163.597656 C 219.671875 165.105469 220.402344 166.652344 221.058594 168.234375 C 221.714844 169.816406 222.289062 171.425781 222.785156 173.0625 C 223.285156 174.699219 223.699219 176.359375 224.03125 178.035156 C 224.367188 179.714844 224.617188 181.40625 224.785156 183.109375 C 224.953125 184.8125 225.035156 186.519531 225.035156 188.230469 C 225.035156 189.941406 224.953125 191.648438 224.785156 193.351562 C 224.617188 195.054688 224.367188 196.746094 224.03125 198.425781 C 223.699219 200.105469 223.285156 201.761719 222.785156 203.398438 C 222.289062 205.039062 221.714844 206.648438 221.058594 208.230469 C 220.402344 209.808594 219.671875 211.355469 218.867188 212.863281 C 218.058594 214.375 217.179688 215.839844 216.230469 217.261719 C 215.28125 218.6875 214.261719 220.058594 213.175781 221.382812 C 212.089844 222.707031 210.941406 223.972656 209.730469 225.183594 L 89.195312 345.71875 C 56.277344 378.636719 -0.0273438 355.308594 0 308.726562 L 0 67.65625 C -0.0273438 21.15625 56.277344 -2.175781 89.195312 30.746094 Z M 89.195312 30.746094 " fill-opacity="1" fill-rule="nonzero"/><path fill="#00d7ff" d="M 89.195312 30.746094 C 56.464844 -1.988281 0.804688 20.886719 0.0273438 66.878906 C 0.0273438 66.878906 189.695312 246.34375 159.535156 275.59375 L 209.839844 225.289062 C 211.050781 224.078125 212.199219 222.8125 213.28125 221.488281 C 214.367188 220.167969 215.386719 218.792969 216.335938 217.371094 C 217.289062 215.945312 218.167969 214.480469 218.972656 212.972656 C 219.78125 211.460938 220.511719 209.917969 221.167969 208.335938 C 221.820312 206.753906 222.398438 205.144531 222.894531 203.507812 C 223.390625 201.871094 223.804688 200.210938 224.140625 198.53125 C 224.472656 196.855469 224.722656 195.164062 224.890625 193.460938 C 225.058594 191.757812 225.144531 190.050781 225.144531 188.339844 C 225.144531 186.625 225.058594 184.917969 224.890625 183.214844 C 224.722656 181.511719 224.472656 179.820312 224.140625 178.144531 C 223.804688 176.464844 223.390625 174.808594 222.894531 173.167969 C 222.398438 171.53125 221.820312 169.921875 221.167969 168.339844 C 220.511719 166.757812 219.78125 165.214844 218.972656 163.703125 C 218.167969 162.195312 217.289062 160.730469 216.335938 159.304688 C 215.386719 157.882812 214.367188 156.511719 213.28125 155.1875 C 212.199219 153.863281 211.050781 152.597656 209.839844 151.386719 Z M 89.195312 30.746094 " fill-opacity="1" fill-rule="nonzero"/><g clip-path="url(#21dfa57f2a)"><path fill="#590696" d="M 375 47.832031 C 375 48.953125 374.945312 50.066406 374.835938 51.179688 C 374.726562 52.292969 374.5625 53.398438 374.34375 54.496094 C 374.125 55.59375 373.855469 56.675781 373.53125 57.746094 C 373.203125 58.816406 372.828125 59.871094 372.398438 60.902344 C 371.972656 61.9375 371.496094 62.945312 370.96875 63.933594 C 370.441406 64.917969 369.867188 65.878906 369.246094 66.808594 C 368.621094 67.738281 367.957031 68.636719 367.246094 69.5 C 366.539062 70.363281 365.789062 71.191406 364.996094 71.984375 C 364.207031 72.773438 363.378906 73.523438 362.515625 74.234375 C 361.648438 74.941406 360.75 75.609375 359.820312 76.230469 C 358.890625 76.851562 357.933594 77.425781 356.945312 77.953125 C 355.960938 78.480469 354.949219 78.957031 353.917969 79.386719 C 352.882812 79.8125 351.832031 80.191406 350.761719 80.515625 C 349.691406 80.839844 348.609375 81.109375 347.511719 81.328125 C 346.414062 81.546875 345.308594 81.710938 344.195312 81.820312 C 343.082031 81.929688 341.964844 81.984375 340.847656 81.984375 C 339.730469 81.984375 338.613281 81.929688 337.5 81.820312 C 336.386719 81.710938 335.28125 81.546875 334.183594 81.328125 C 333.089844 81.109375 332.003906 80.839844 330.933594 80.515625 C 329.863281 80.191406 328.8125 79.8125 327.777344 79.386719 C 326.746094 78.957031 325.734375 78.480469 324.75 77.953125 C 323.761719 77.425781 322.804688 76.851562 321.875 76.230469 C 320.945312 75.609375 320.046875 74.941406 319.183594 74.234375 C 318.316406 73.523438 317.488281 72.773438 316.699219 71.984375 C 315.910156 71.191406 315.15625 70.363281 314.449219 69.5 C 313.738281 68.636719 313.074219 67.738281 312.453125 66.808594 C 311.832031 65.878906 311.257812 64.917969 310.730469 63.933594 C 310.203125 62.945312 309.722656 61.9375 309.296875 60.902344 C 308.867188 59.871094 308.492188 58.816406 308.167969 57.746094 C 307.84375 56.675781 307.570312 55.59375 307.351562 54.496094 C 307.132812 53.398438 306.96875 52.292969 306.859375 51.179688 C 306.75 50.066406 306.695312 48.953125 306.695312 47.832031 C 306.695312 46.714844 306.75 45.601562 306.859375 44.488281 C 306.96875 43.375 307.132812 42.269531 307.351562 41.171875 C 307.570312 40.074219 307.84375 38.992188 308.167969 37.921875 C 308.492188 36.851562 308.867188 35.796875 309.296875 34.765625 C 309.722656 33.730469 310.203125 32.722656 310.730469 31.734375 C 311.257812 30.75 311.832031 29.789062 312.453125 28.859375 C 313.074219 27.929688 313.738281 27.03125 314.449219 26.167969 C 315.15625 25.304688 315.910156 24.476562 316.699219 23.683594 C 317.488281 22.894531 318.316406 22.144531 319.183594 21.433594 C 320.046875 20.726562 320.945312 20.058594 321.875 19.4375 C 322.804688 18.816406 323.761719 18.242188 324.75 17.714844 C 325.734375 17.1875 326.746094 16.710938 327.777344 16.28125 C 328.8125 15.855469 329.863281 15.476562 330.933594 15.152344 C 332.003906 14.828125 333.089844 14.554688 334.183594 14.339844 C 335.28125 14.121094 336.386719 13.957031 337.5 13.847656 C 338.613281 13.738281 339.730469 13.683594 340.847656 13.683594 C 341.964844 13.683594 343.082031 13.738281 344.195312 13.847656 C 345.308594 13.957031 346.414062 14.121094 347.511719 14.339844 C 348.609375 14.554688 349.691406 14.828125 350.761719 15.152344 C 351.832031 15.476562 352.882812 15.855469 353.917969 16.28125 C 354.949219 16.710938 355.960938 17.1875 356.945312 17.714844 C 357.933594 18.242188 358.890625 18.816406 359.820312 19.4375 C 360.75 20.058594 361.648438 20.726562 362.515625 21.433594 C 363.378906 22.144531 364.207031 22.894531 364.996094 23.683594 C 365.789062 24.476562 366.539062 25.304688 367.246094 26.167969 C 367.957031 27.03125 368.621094 27.929688 369.246094 28.859375 C 369.867188 29.789062 370.441406 30.75 370.96875 31.734375 C 371.496094 32.722656 371.972656 33.730469 372.398438 34.765625 C 372.828125 35.796875 373.203125 36.851562 373.53125 37.921875 C 373.855469 38.992188 374.125 40.074219 374.34375 41.171875 C 374.5625 42.269531 374.726562 43.375 374.835938 44.488281 C 374.945312 45.601562 375 46.714844 375 47.832031 Z M 375 47.832031 " fill-opacity="1" fill-rule="nonzero"/><path fill="#590696" d="M 375 47.832031 C 375 48.953125 374.945312 50.066406 374.835938 51.179688 C 374.726562 52.292969 374.5625 53.398438 374.34375 54.496094 C 374.125 55.59375 373.855469 56.675781 373.53125 57.746094 C 373.203125 58.816406 372.828125 59.871094 372.398438 60.902344 C 371.972656 61.9375 371.496094 62.945312 370.96875 63.933594 C 370.441406 64.917969 369.867188 65.878906 369.246094 66.808594 C 368.621094 67.738281 367.957031 68.636719 367.246094 69.5 C 366.539062 70.363281 365.789062 71.191406 364.996094 71.984375 C 364.207031 72.773438 363.378906 73.523438 362.515625 74.234375 C 361.648438 74.941406 360.75 75.609375 359.820312 76.230469 C 358.890625 76.851562 357.933594 77.425781 356.945312 77.953125 C 355.960938 78.480469 354.949219 78.957031 353.917969 79.386719 C 352.882812 79.8125 351.832031 80.191406 350.761719 80.515625 C 349.691406 80.839844 348.609375 81.109375 347.511719 81.328125 C 346.414062 81.546875 345.308594 81.710938 344.195312 81.820312 C 343.082031 81.929688 341.964844 81.984375 340.847656 81.984375 C 339.730469 81.984375 338.613281 81.929688 337.5 81.820312 C 336.386719 81.710938 335.28125 81.546875 334.183594 81.328125 C 333.089844 81.109375 332.003906 80.839844 330.933594 80.515625 C 329.863281 80.191406 328.8125 79.8125 327.777344 79.386719 C 326.746094 78.957031 325.734375 78.480469 324.75 77.953125 C 323.761719 77.425781 322.804688 76.851562 321.875 76.230469 C 320.945312 75.609375 320.046875 74.941406 319.183594 74.234375 C 318.316406 73.523438 317.488281 72.773438 316.699219 71.984375 C 315.910156 71.191406 315.15625 70.363281 314.449219 69.5 C 313.738281 68.636719 313.074219 67.738281 312.453125 66.808594 C 311.832031 65.878906 311.257812 64.917969 310.730469 63.933594 C 310.203125 62.945312 309.722656 61.9375 309.296875 60.902344 C 308.867188 59.871094 308.492188 58.816406 308.167969 57.746094 C 307.84375 56.675781 307.570312 55.59375 307.351562 54.496094 C 307.132812 53.398438 306.96875 52.292969 306.859375 51.179688 C 306.75 50.066406 306.695312 48.953125 306.695312 47.832031 C 306.695312 46.714844 306.75 45.601562 306.859375 44.488281 C 306.96875 43.375 307.132812 42.269531 307.351562 41.171875 C 307.570312 40.074219 307.84375 38.992188 308.167969 37.921875 C 308.492188 36.851562 308.867188 35.796875 309.296875 34.765625 C 309.722656 33.730469 310.203125 32.722656 310.730469 31.734375 C 311.257812 30.75 311.832031 29.789062 312.453125 28.859375 C 313.074219 27.929688 313.738281 27.03125 314.449219 26.167969 C 315.15625 25.304688 315.910156 24.476562 316.699219 23.683594 C 317.488281 22.894531 318.316406 22.144531 319.183594 21.433594 C 320.046875 20.726562 320.945312 20.058594 321.875 19.4375 C 322.804688 18.816406 323.761719 18.242188 324.75 17.714844 C 325.734375 17.1875 326.746094 16.710938 327.777344 16.28125 C 328.8125 15.855469 329.863281 15.476562 330.933594 15.152344 C 332.003906 14.828125 333.089844 14.554688 334.183594 14.339844 C 335.28125 14.121094 336.386719 13.957031 337.5 13.847656 C 338.613281 13.738281 339.730469 13.683594 340.847656 13.683594 C 341.964844 13.683594 343.082031 13.738281 344.195312 13.847656 C 345.308594 13.957031 346.414062 14.121094 347.511719 14.339844 C 348.609375 14.554688 349.691406 14.828125 350.761719 15.152344 C 351.832031 15.476562 352.882812 15.855469 353.917969 16.28125 C 354.949219 16.710938 355.960938 17.1875 356.945312 17.714844 C 357.933594 18.242188 358.890625 18.816406 359.820312 19.4375 C 360.75 20.058594 361.648438 20.726562 362.515625 21.433594 C 363.378906 22.144531 364.207031 22.894531 364.996094 23.683594 C 365.789062 24.476562 366.539062 25.304688 367.246094 26.167969 C 367.957031 27.03125 368.621094 27.929688 369.246094 28.859375 C 369.867188 29.789062 370.441406 30.75 370.96875 31.734375 C 371.496094 32.722656 371.972656 33.730469 372.398438 34.765625 C 372.828125 35.796875 373.203125 36.851562 373.53125 37.921875 C 373.855469 38.992188 374.125 40.074219 374.34375 41.171875 C 374.5625 42.269531 374.726562 43.375 374.835938 44.488281 C 374.945312 45.601562 375 46.714844 375 47.832031 Z M 375 47.832031 " fill-opacity="1" fill-rule="nonzero"/></g><path fill="#0096ff" d="M 359.679688 151.574219 L 239.144531 31.039062 C 206.785156 -1.34375 120.535156 36.207031 150.054688 65.726562 L 236.730469 152.433594 C 237.941406 153.640625 239.089844 154.90625 240.175781 156.230469 C 241.265625 157.550781 242.28125 158.921875 243.234375 160.34375 C 244.183594 161.769531 245.066406 163.234375 245.871094 164.742188 C 246.679688 166.25 247.410156 167.796875 248.066406 169.375 C 248.722656 170.957031 249.296875 172.566406 249.792969 174.203125 C 250.292969 175.839844 250.707031 177.5 251.039062 179.175781 C 251.375 180.855469 251.625 182.546875 251.792969 184.25 C 251.960938 185.953125 252.046875 187.660156 252.046875 189.371094 C 252.046875 191.082031 251.960938 192.789062 251.792969 194.492188 C 251.625 196.191406 251.375 197.882812 251.039062 199.5625 C 250.707031 201.242188 250.292969 202.898438 249.792969 204.535156 C 249.296875 206.171875 248.722656 207.78125 248.066406 209.363281 C 247.410156 210.941406 246.679688 212.488281 245.871094 213.996094 C 245.066406 215.503906 244.183594 216.972656 243.234375 218.394531 C 242.28125 219.816406 241.265625 221.1875 240.175781 222.511719 C 239.089844 223.832031 237.941406 225.097656 236.730469 226.308594 L 150.105469 312.957031 C 123.695312 339.34375 207.105469 378.261719 239.144531 346.226562 L 359.679688 225.691406 C 360.898438 224.480469 362.050781 223.210938 363.144531 221.886719 C 364.238281 220.5625 365.261719 219.1875 366.222656 217.757812 C 367.179688 216.332031 368.0625 214.863281 368.875 213.351562 C 369.6875 211.835938 370.425781 210.285156 371.082031 208.699219 C 371.742188 207.113281 372.324219 205.5 372.824219 203.855469 C 373.324219 202.214844 373.742188 200.550781 374.078125 198.863281 C 374.414062 197.179688 374.667969 195.484375 374.835938 193.773438 C 375.007812 192.0625 375.089844 190.351562 375.089844 188.632812 C 375.089844 186.914062 375.007812 185.203125 374.835938 183.492188 C 374.667969 181.78125 374.414062 180.085938 374.078125 178.402344 C 373.742188 176.714844 373.324219 175.050781 372.824219 173.410156 C 372.324219 171.765625 371.742188 170.152344 371.082031 168.566406 C 370.425781 166.980469 369.6875 165.429688 368.875 163.914062 C 368.0625 162.402344 367.179688 160.933594 366.222656 159.507812 C 365.261719 158.082031 364.238281 156.703125 363.144531 155.378906 C 362.050781 154.054688 360.898438 152.785156 359.679688 151.574219 Z M 359.679688 151.574219 " fill-opacity="1" fill-rule="nonzero"/><path fill="#5800ff" d="M 359.679688 151.574219 L 239.144531 31.039062 C 206.785156 -1.34375 120.535156 36.207031 150.054688 65.726562 L 236.730469 152.433594 C 238.808594 154.507812 240.699219 156.742188 242.398438 159.132812 C 244.097656 161.527344 245.582031 164.046875 246.855469 166.695312 C 248.128906 169.339844 249.167969 172.074219 249.976562 174.894531 C 250.789062 177.714844 251.355469 180.585938 251.679688 183.503906 C 281.542969 218.566406 306.375 252.609375 311.542969 273.824219 L 359.757812 225.609375 C 360.972656 224.398438 362.125 223.128906 363.214844 221.804688 C 364.300781 220.480469 365.324219 219.101562 366.277344 217.675781 C 367.230469 216.25 368.109375 214.78125 368.917969 213.269531 C 369.726562 211.753906 370.460938 210.207031 371.117188 208.621094 C 371.773438 207.035156 372.347656 205.421875 372.847656 203.78125 C 373.34375 202.140625 373.757812 200.476562 374.09375 198.796875 C 374.425781 197.113281 374.675781 195.417969 374.84375 193.710938 C 375.011719 192.003906 375.09375 190.292969 375.089844 188.574219 C 375.089844 186.859375 375.003906 185.148438 374.832031 183.441406 C 374.660156 181.734375 374.40625 180.042969 374.070312 178.359375 C 373.734375 176.675781 373.3125 175.015625 372.8125 173.375 C 372.3125 171.734375 371.734375 170.121094 371.074219 168.539062 C 370.414062 166.957031 369.675781 165.410156 368.867188 163.898438 C 368.054688 162.386719 367.167969 160.917969 366.214844 159.496094 C 365.257812 158.070312 364.234375 156.695312 363.140625 155.375 C 362.050781 154.050781 360.894531 152.785156 359.679688 151.574219 Z M 359.679688 151.574219 " fill-opacity="1" fill-rule="nonzero"/></svg>