<svg xmlns="http://www.w3.org/2000/svg" xmlns:xlink="http://www.w3.org/1999/xlink" width="500" zoomAndPan="magnify" viewBox="0 0 375 374.999991" height="500" preserveAspectRatio="xMidYMid meet" version="1.0"><defs><g/><clipPath id="0c5ee649af"><path d="M 104.617188 62 L 205 62 L 205 215.503906 L 104.617188 215.503906 Z M 104.617188 62 " clip-rule="nonzero"/></clipPath><clipPath id="ac6d23cfa9"><path d="M 104.617188 62 L 205 62 L 205 178 L 104.617188 178 Z M 104.617188 62 " clip-rule="nonzero"/></clipPath><clipPath id="841c6b1586"><path d="M 240 61.753906 L 270.367188 61.753906 L 270.367188 93 L 240 93 Z M 240 61.753906 " clip-rule="nonzero"/></clipPath><clipPath id="45a3cd0a8e"><path d="M 168 64 L 270.367188 64 L 270.367188 215 L 168 215 Z M 168 64 " clip-rule="nonzero"/></clipPath><clipPath id="16b644a709"><path d="M 168 64 L 270.367188 64 L 270.367188 177 L 168 177 Z M 168 64 " clip-rule="nonzero"/></clipPath><clipPath id="d11c9768f0"><path d="M 109 274.3125 L 264 274.3125 L 264 276.5625 L 109 276.5625 Z M 109 274.3125 " clip-rule="nonzero"/></clipPath></defs><g clip-path="url(#0c5ee649af)"><path fill="#72ffff" d="M 144.046875 69.46875 L 197.328125 122.75 C 197.863281 123.285156 198.367188 123.84375 198.847656 124.429688 C 199.328125 125.015625 199.777344 125.621094 200.199219 126.25 C 200.621094 126.878906 201.007812 127.527344 201.363281 128.195312 C 201.722656 128.863281 202.042969 129.542969 202.332031 130.242188 C 202.621094 130.941406 202.878906 131.652344 203.097656 132.378906 C 203.316406 133.101562 203.5 133.835938 203.648438 134.578125 C 203.796875 135.320312 203.90625 136.066406 203.980469 136.820312 C 204.054688 137.570312 204.089844 138.328125 204.089844 139.082031 C 204.089844 139.839844 204.054688 140.59375 203.980469 141.347656 C 203.90625 142.101562 203.796875 142.847656 203.648438 143.589844 C 203.5 144.332031 203.316406 145.0625 203.097656 145.789062 C 202.878906 146.511719 202.621094 147.222656 202.332031 147.921875 C 202.042969 148.621094 201.722656 149.304688 201.363281 149.972656 C 201.007812 150.640625 200.621094 151.289062 200.199219 151.917969 C 199.777344 152.546875 199.328125 153.152344 198.847656 153.738281 C 198.367188 154.320312 197.863281 154.882812 197.328125 155.417969 L 144.046875 208.695312 C 129.496094 223.25 104.605469 212.9375 104.617188 192.347656 L 104.617188 85.785156 C 104.605469 65.230469 129.496094 54.917969 144.046875 69.46875 Z M 144.046875 69.46875 " fill-opacity="1" fill-rule="nonzero"/></g><g clip-path="url(#ac6d23cfa9)"><path fill="#00d7ff" d="M 144.046875 69.46875 C 129.578125 55 104.972656 65.113281 104.628906 85.441406 C 104.628906 85.441406 188.46875 164.769531 175.136719 177.699219 L 197.375 155.464844 C 197.910156 154.929688 198.417969 154.367188 198.894531 153.785156 C 199.375 153.199219 199.824219 152.59375 200.246094 151.964844 C 200.667969 151.335938 201.054688 150.6875 201.410156 150.019531 C 201.769531 149.351562 202.089844 148.667969 202.378906 147.96875 C 202.671875 147.269531 202.925781 146.558594 203.144531 145.835938 C 203.363281 145.113281 203.546875 144.378906 203.695312 143.636719 C 203.84375 142.894531 203.953125 142.148438 204.027344 141.394531 C 204.101562 140.640625 204.140625 139.886719 204.140625 139.128906 C 204.140625 138.375 204.101562 137.621094 204.027344 136.867188 C 203.953125 136.113281 203.84375 135.367188 203.695312 134.625 C 203.546875 133.882812 203.363281 133.148438 203.144531 132.425781 C 202.925781 131.703125 202.671875 130.988281 202.378906 130.289062 C 202.089844 129.59375 201.769531 128.910156 201.410156 128.242188 C 201.054688 127.574219 200.667969 126.925781 200.246094 126.296875 C 199.824219 125.667969 199.375 125.0625 198.894531 124.476562 C 198.417969 123.890625 197.910156 123.332031 197.375 122.796875 Z M 144.046875 69.46875 " fill-opacity="1" fill-rule="nonzero"/></g><g clip-path="url(#841c6b1586)"><path fill="#590696" d="M 270.378906 77.023438 C 270.378906 78.015625 270.285156 78.996094 270.089844 79.96875 C 269.898438 80.941406 269.609375 81.882812 269.230469 82.800781 C 268.851562 83.714844 268.386719 84.585938 267.835938 85.410156 C 267.285156 86.234375 266.660156 86.996094 265.957031 87.699219 C 265.257812 88.398438 264.496094 89.023438 263.671875 89.574219 C 262.847656 90.125 261.976562 90.589844 261.0625 90.96875 C 260.144531 91.347656 259.199219 91.636719 258.230469 91.828125 C 257.257812 92.023438 256.273438 92.121094 255.285156 92.121094 C 254.292969 92.121094 253.3125 92.023438 252.339844 91.828125 C 251.367188 91.636719 250.421875 91.347656 249.507812 90.96875 C 248.589844 90.589844 247.722656 90.125 246.898438 89.574219 C 246.074219 89.023438 245.308594 88.398438 244.609375 87.699219 C 243.910156 86.996094 243.28125 86.234375 242.730469 85.410156 C 242.179688 84.585938 241.714844 83.714844 241.335938 82.800781 C 240.957031 81.882812 240.671875 80.941406 240.476562 79.96875 C 240.285156 78.996094 240.1875 78.015625 240.1875 77.023438 C 240.1875 76.03125 240.285156 75.050781 240.476562 74.078125 C 240.671875 73.105469 240.957031 72.160156 241.335938 71.246094 C 241.714844 70.332031 242.179688 69.460938 242.730469 68.636719 C 243.28125 67.8125 243.910156 67.050781 244.609375 66.347656 C 245.308594 65.648438 246.074219 65.023438 246.898438 64.472656 C 247.722656 63.921875 248.589844 63.457031 249.507812 63.078125 C 250.421875 62.695312 251.367188 62.410156 252.339844 62.21875 C 253.3125 62.023438 254.292969 61.925781 255.285156 61.925781 C 256.273438 61.925781 257.257812 62.023438 258.230469 62.21875 C 259.199219 62.410156 260.144531 62.695312 261.0625 63.078125 C 261.976562 63.457031 262.847656 63.921875 263.671875 64.472656 C 264.496094 65.023438 265.257812 65.648438 265.957031 66.347656 C 266.660156 67.050781 267.285156 67.8125 267.835938 68.636719 C 268.386719 69.460938 268.851562 70.332031 269.230469 71.246094 C 269.609375 72.160156 269.898438 73.105469 270.089844 74.078125 C 270.285156 75.050781 270.378906 76.03125 270.378906 77.023438 Z M 270.378906 77.023438 " fill-opacity="1" fill-rule="nonzero"/><path fill="#590696" d="M 270.378906 77.023438 C 270.378906 78.015625 270.285156 78.996094 270.089844 79.96875 C 269.898438 80.941406 269.609375 81.882812 269.230469 82.800781 C 268.851562 83.714844 268.386719 84.585938 267.835938 85.410156 C 267.285156 86.234375 266.660156 86.996094 265.957031 87.699219 C 265.257812 88.398438 264.496094 89.023438 263.671875 89.574219 C 262.847656 90.125 261.976562 90.589844 261.0625 90.96875 C 260.144531 91.347656 259.199219 91.636719 258.230469 91.828125 C 257.257812 92.023438 256.273438 92.121094 255.285156 92.121094 C 254.292969 92.121094 253.3125 92.023438 252.339844 91.828125 C 251.367188 91.636719 250.421875 91.347656 249.507812 90.96875 C 248.589844 90.589844 247.722656 90.125 246.898438 89.574219 C 246.074219 89.023438 245.308594 88.398438 244.609375 87.699219 C 243.910156 86.996094 243.28125 86.234375 242.730469 85.410156 C 242.179688 84.585938 241.714844 83.714844 241.335938 82.800781 C 240.957031 81.882812 240.671875 80.941406 240.476562 79.96875 C 240.285156 78.996094 240.1875 78.015625 240.1875 77.023438 C 240.1875 76.03125 240.285156 75.050781 240.476562 74.078125 C 240.671875 73.105469 240.957031 72.160156 241.335938 71.246094 C 241.714844 70.332031 242.179688 69.460938 242.730469 68.636719 C 243.28125 67.8125 243.910156 67.050781 244.609375 66.347656 C 245.308594 65.648438 246.074219 65.023438 246.898438 64.472656 C 247.722656 63.921875 248.589844 63.457031 249.507812 63.078125 C 250.421875 62.695312 251.367188 62.410156 252.339844 62.21875 C 253.3125 62.023438 254.292969 61.925781 255.285156 61.925781 C 256.273438 61.925781 257.257812 62.023438 258.230469 62.21875 C 259.199219 62.410156 260.144531 62.695312 261.0625 63.078125 C 261.976562 63.457031 262.847656 63.921875 263.671875 64.472656 C 264.496094 65.023438 265.257812 65.648438 265.957031 66.347656 C 266.660156 67.050781 267.285156 67.8125 267.835938 68.636719 C 268.386719 69.460938 268.851562 70.332031 269.230469 71.246094 C 269.609375 72.160156 269.898438 73.105469 270.089844 74.078125 C 270.285156 75.050781 270.378906 76.03125 270.378906 77.023438 Z M 270.378906 77.023438 " fill-opacity="1" fill-rule="nonzero"/></g><g clip-path="url(#45a3cd0a8e)"><path fill="#0096ff" d="M 263.609375 122.878906 L 210.328125 69.597656 C 196.023438 55.285156 157.898438 71.882812 170.945312 84.933594 L 209.261719 123.257812 C 209.796875 123.792969 210.304688 124.351562 210.785156 124.9375 C 211.265625 125.523438 211.714844 126.128906 212.136719 126.757812 C 212.554688 127.386719 212.945312 128.035156 213.300781 128.699219 C 213.65625 129.367188 213.980469 130.050781 214.269531 130.75 C 214.5625 131.449219 214.816406 132.160156 215.035156 132.882812 C 215.253906 133.605469 215.4375 134.339844 215.585938 135.082031 C 215.734375 135.824219 215.84375 136.570312 215.917969 137.324219 C 215.992188 138.074219 216.03125 138.828125 216.03125 139.585938 C 216.03125 140.34375 215.992188 141.097656 215.917969 141.851562 C 215.84375 142.601562 215.734375 143.351562 215.585938 144.09375 C 215.4375 144.832031 215.253906 145.566406 215.035156 146.289062 C 214.816406 147.015625 214.5625 147.726562 214.269531 148.425781 C 213.980469 149.121094 213.65625 149.804688 213.300781 150.472656 C 212.945312 151.140625 212.554688 151.785156 212.136719 152.414062 C 211.714844 153.042969 211.265625 153.652344 210.785156 154.234375 C 210.304688 154.820312 209.796875 155.378906 209.261719 155.914062 L 170.96875 194.214844 C 159.296875 205.878906 196.167969 223.082031 210.328125 208.921875 L 263.609375 155.640625 C 264.144531 155.105469 264.65625 154.546875 265.140625 153.960938 C 265.621094 153.375 266.078125 152.765625 266.5 152.136719 C 266.921875 151.503906 267.3125 150.855469 267.671875 150.1875 C 268.03125 149.515625 268.355469 148.832031 268.648438 148.132812 C 268.941406 147.429688 269.195312 146.714844 269.417969 145.988281 C 269.640625 145.265625 269.824219 144.527344 269.972656 143.785156 C 270.121094 143.039062 270.234375 142.289062 270.308594 141.535156 C 270.382812 140.777344 270.421875 140.019531 270.421875 139.261719 C 270.421875 138.5 270.382812 137.742188 270.308594 136.988281 C 270.234375 136.234375 270.121094 135.484375 269.972656 134.738281 C 269.824219 133.992188 269.640625 133.257812 269.417969 132.53125 C 269.195312 131.804688 268.941406 131.089844 268.648438 130.390625 C 268.355469 129.6875 268.03125 129.003906 267.671875 128.335938 C 267.3125 127.667969 266.921875 127.015625 266.5 126.386719 C 266.078125 125.753906 265.621094 125.148438 265.140625 124.5625 C 264.65625 123.976562 264.144531 123.414062 263.609375 122.878906 Z M 263.609375 122.878906 " fill-opacity="1" fill-rule="nonzero"/></g><g clip-path="url(#16b644a709)"><path fill="#5800ff" d="M 263.609375 122.878906 L 210.328125 69.597656 C 196.023438 55.285156 157.898438 71.882812 170.945312 84.933594 L 209.261719 123.257812 C 211.109375 125.105469 212.601562 127.207031 213.734375 129.5625 C 214.867188 131.917969 215.578125 134.394531 215.867188 136.992188 C 229.070312 152.492188 240.046875 167.539062 242.332031 176.917969 L 263.644531 155.605469 C 264.179688 155.070312 264.6875 154.507812 265.167969 153.921875 C 265.652344 153.335938 266.101562 152.730469 266.523438 152.097656 C 266.945312 151.46875 267.335938 150.820312 267.691406 150.148438 C 268.050781 149.480469 268.375 148.796875 268.664062 148.097656 C 268.953125 147.394531 269.207031 146.683594 269.429688 145.957031 C 269.648438 145.230469 269.832031 144.496094 269.980469 143.753906 C 270.125 143.007812 270.238281 142.257812 270.3125 141.503906 C 270.382812 140.75 270.421875 139.992188 270.421875 139.234375 C 270.417969 138.476562 270.382812 137.722656 270.304688 136.964844 C 270.230469 136.210938 270.117188 135.464844 269.96875 134.71875 C 269.820312 133.976562 269.636719 133.242188 269.414062 132.515625 C 269.191406 131.792969 268.9375 131.078125 268.644531 130.378906 C 268.351562 129.679688 268.027344 128.996094 267.667969 128.328125 C 267.308594 127.660156 266.917969 127.011719 266.496094 126.378906 C 266.074219 125.75 265.621094 125.144531 265.136719 124.558594 C 264.65625 123.972656 264.144531 123.414062 263.609375 122.878906 Z M 263.609375 122.878906 " fill-opacity="1" fill-rule="nonzero"/></g><g fill="#ffffff" fill-opacity="1"><g transform="translate(66.348069, 266.657942)"><g><path d="M 6.183594 -25.03125 L 16.207031 -0.0351562 L 24.0625 -19.785156 L 32.015625 -0.0351562 L 41.941406 -25 C 42.8125 -27.203125 44.550781 -28.507812 47.1875 -28.507812 L 47.1875 -28.808594 L 39.269531 -28.808594 L 39.269531 -28.507812 C 41.640625 -28.507812 42.476562 -27.203125 41.609375 -25 L 35.390625 -9.324219 L 29.242188 -25 C 28.375 -27.203125 29.007812 -28.507812 31.015625 -28.507812 L 31.015625 -28.808594 L 17.480469 -28.808594 L 17.480469 -28.507812 C 19.585938 -28.40625 20.988281 -27.503906 21.992188 -25 L 23.894531 -20.21875 L 19.585938 -9.324219 L 13.46875 -25 C 12.566406 -27.304688 13.132812 -28.441406 15.238281 -28.507812 L 15.238281 -28.808594 L 1.671875 -28.808594 L 1.671875 -28.507812 C 3.777344 -28.441406 5.28125 -27.304688 6.183594 -25.03125 Z M 6.183594 -25.03125 "/></g></g></g><g fill="#ffffff" fill-opacity="1"><g transform="translate(115.193681, 266.657942)"><g><path d="M 1.671875 -0.300781 L 1.671875 0 L 25.867188 0 L 28.074219 -7.554688 L 27.773438 -7.554688 C 26.167969 -2.707031 22.222656 -0.300781 16.476562 -0.300781 C 14.035156 -0.300781 12.53125 -1.636719 12.53125 -3.84375 L 12.53125 -14.972656 L 17.546875 -14.972656 C 20.621094 -14.871094 20.921875 -12.097656 20.921875 -11.328125 L 20.921875 -11.164062 L 21.222656 -11.164062 L 21.222656 -19.050781 L 20.921875 -19.050781 L 20.921875 -18.882812 C 20.921875 -18.113281 20.621094 -15.339844 17.546875 -15.273438 L 12.53125 -15.273438 L 12.566406 -28.507812 L 14.972656 -28.507812 C 23.058594 -28.507812 24.796875 -23.5625 25.132812 -21.855469 L 25.230469 -21.253906 L 25.5 -21.390625 L 24.363281 -28.808594 L 1.671875 -28.808594 L 1.671875 -28.507812 C 4.109375 -28.507812 5.613281 -27.171875 5.613281 -24.964844 L 5.613281 -3.84375 C 5.613281 -1.636719 4.109375 -0.300781 1.671875 -0.300781 Z M 1.671875 -0.300781 "/></g></g></g><g fill="#ffffff" fill-opacity="1"><g transform="translate(144.928691, 266.657942)"><g><path d="M 1.671875 -0.300781 L 1.671875 0 L 25.867188 0 L 28.074219 -7.554688 L 27.773438 -7.554688 C 26.167969 -2.707031 22.222656 -0.300781 16.476562 -0.300781 C 14.035156 -0.300781 12.53125 -1.636719 12.53125 -3.84375 L 12.53125 -24.964844 C 12.53125 -27.171875 14.035156 -28.507812 16.476562 -28.507812 L 16.476562 -28.808594 L 1.671875 -28.808594 L 1.671875 -28.507812 C 4.109375 -28.507812 5.613281 -27.171875 5.613281 -24.964844 L 5.613281 -3.84375 C 5.613281 -1.636719 4.109375 -0.300781 1.671875 -0.300781 Z M 1.671875 -0.300781 "/></g></g></g><g fill="#ffffff" fill-opacity="1"><g transform="translate(174.663701, 266.657942)"><g><path d="M 1.671875 -0.300781 L 1.671875 0 L 25.867188 0 L 28.074219 -7.554688 L 27.773438 -7.554688 C 26.167969 -2.707031 22.222656 -0.300781 16.476562 -0.300781 C 14.035156 -0.300781 12.53125 -1.636719 12.53125 -3.84375 L 12.53125 -14.972656 L 17.546875 -14.972656 C 20.621094 -14.871094 20.921875 -12.097656 20.921875 -11.328125 L 20.921875 -11.164062 L 21.222656 -11.164062 L 21.222656 -19.050781 L 20.921875 -19.050781 L 20.921875 -18.882812 C 20.921875 -18.113281 20.621094 -15.339844 17.546875 -15.273438 L 12.53125 -15.273438 L 12.566406 -28.507812 L 14.972656 -28.507812 C 23.058594 -28.507812 24.796875 -23.5625 25.132812 -21.855469 L 25.230469 -21.253906 L 25.5 -21.390625 L 24.363281 -28.808594 L 1.671875 -28.808594 L 1.671875 -28.507812 C 4.109375 -28.507812 5.613281 -27.171875 5.613281 -24.964844 L 5.613281 -3.84375 C 5.613281 -1.636719 4.109375 -0.300781 1.671875 -0.300781 Z M 1.671875 -0.300781 "/></g></g></g><g fill="#ffffff" fill-opacity="1"><g transform="translate(204.398711, 266.657942)"><g><path d="M 1.671875 -0.300781 L 1.671875 0 L 9.558594 0 L 9.558594 -0.300781 L 9.457031 -0.300781 C 8.890625 -0.335938 6.015625 -0.667969 8.554688 -6.25 L 9.660156 -8.65625 L 20.753906 -8.65625 L 22.960938 -3.808594 C 24.429688 -0.601562 21.992188 -0.335938 21.320312 -0.300781 L 21.15625 -0.300781 L 21.15625 0 L 34.722656 0 L 34.722656 -0.300781 L 34.554688 -0.300781 C 33.886719 -0.335938 31.316406 -0.636719 29.878906 -3.808594 L 18.480469 -28.808594 L 15.039062 -21.1875 L 8.222656 -6.25 C 5.980469 -1.269531 3.375 -0.433594 2.238281 -0.300781 Z M 20.621094 -8.957031 L 9.792969 -8.957031 L 15.207031 -20.820312 Z M 20.621094 -8.957031 "/></g></g></g><g fill="#ffffff" fill-opacity="1"><g transform="translate(240.782338, 266.657942)"><g><path d="M 1.671875 -0.300781 L 1.671875 0 L 16.109375 0 L 16.109375 -0.300781 C 13.601562 -0.300781 12.53125 -1.402344 12.53125 -3.777344 L 12.53125 -13.769531 L 16.34375 -13.769531 C 18.75 -13.769531 18.046875 -12.265625 20.050781 -7.117188 C 22.125 -1.804688 24.496094 0 27.003906 0 L 33.019531 0 L 33.019531 -0.300781 C 30.011719 -0.300781 28.574219 -1.738281 26.871094 -7.117188 C 25.230469 -12.265625 23.660156 -13.769531 18.949219 -14.035156 C 22.992188 -14.703125 26.636719 -16.945312 26.636719 -21.390625 C 26.636719 -26.769531 21.554688 -28.808594 16.140625 -28.808594 L 1.671875 -28.808594 L 1.671875 -28.507812 L 2.070312 -28.507812 C 3.074219 -28.472656 5.613281 -28.039062 5.613281 -24.964844 L 5.613281 -3.84375 C 5.613281 -1.402344 4.175781 -0.300781 1.671875 -0.300781 Z M 16.140625 -14.101562 L 12.53125 -14.101562 L 12.53125 -28.507812 L 16.140625 -28.507812 C 18.546875 -28.507812 19.816406 -25.433594 19.816406 -21.390625 C 19.816406 -17.3125 18.546875 -14.101562 16.140625 -14.101562 Z M 16.140625 -14.101562 "/></g></g></g><g fill="#ffffff" fill-opacity="1"><g transform="translate(275.462054, 266.657942)"><g><path d="M 6.28125 -23.960938 L 27.371094 0 L 27.707031 0 L 27.707031 -25.097656 C 27.804688 -28.675781 31.515625 -28.472656 31.515625 -28.472656 L 31.515625 -28.808594 L 23.59375 -28.808594 L 23.59375 -28.507812 C 23.59375 -28.472656 27.304688 -28.675781 27.40625 -25.097656 L 27.40625 -10.292969 L 11.0625 -28.808594 L 1.671875 -28.808594 L 1.671875 -28.472656 C 4.042969 -28.472656 5.378906 -27.269531 5.449219 -24.429688 L 5.449219 -3.675781 C 5.378906 -0.601562 2.574219 -0.335938 1.839844 -0.300781 L 1.671875 -0.300781 L 1.671875 0 L 9.558594 0 L 9.558594 -0.300781 L 9.390625 -0.300781 C 8.621094 -0.335938 5.847656 -0.601562 5.75 -3.675781 L 5.75 -24.53125 Z M 6.28125 -23.960938 "/></g></g></g><g fill="#ffffff" fill-opacity="1"><g transform="translate(85.601974, 313.157939)"><g><path d="M 1.671875 -0.300781 L 1.671875 0 L 25.867188 0 L 28.074219 -7.554688 L 27.773438 -7.554688 C 26.167969 -2.707031 22.222656 -0.300781 16.476562 -0.300781 C 14.035156 -0.300781 12.53125 -1.636719 12.53125 -3.84375 L 12.53125 -14.972656 L 17.546875 -14.972656 C 20.621094 -14.871094 20.921875 -12.097656 20.921875 -11.328125 L 20.921875 -11.164062 L 21.222656 -11.164062 L 21.222656 -19.050781 L 20.921875 -19.050781 L 20.921875 -18.882812 C 20.921875 -18.113281 20.621094 -15.339844 17.546875 -15.273438 L 12.53125 -15.273438 L 12.566406 -28.507812 L 14.972656 -28.507812 C 23.058594 -28.507812 24.796875 -23.5625 25.132812 -21.855469 L 25.230469 -21.253906 L 25.5 -21.390625 L 24.363281 -28.808594 L 1.671875 -28.808594 L 1.671875 -28.507812 C 4.109375 -28.507812 5.613281 -27.171875 5.613281 -24.964844 L 5.613281 -3.84375 C 5.613281 -1.636719 4.109375 -0.300781 1.671875 -0.300781 Z M 1.671875 -0.300781 "/></g></g></g><g fill="#ffffff" fill-opacity="1"><g transform="translate(115.336984, 313.157939)"><g><path d="M 6.28125 -23.960938 L 27.371094 0 L 27.707031 0 L 27.707031 -25.097656 C 27.804688 -28.675781 31.515625 -28.472656 31.515625 -28.472656 L 31.515625 -28.808594 L 23.59375 -28.808594 L 23.59375 -28.507812 C 23.59375 -28.472656 27.304688 -28.675781 27.40625 -25.097656 L 27.40625 -10.292969 L 11.0625 -28.808594 L 1.671875 -28.808594 L 1.671875 -28.472656 C 4.042969 -28.472656 5.378906 -27.269531 5.449219 -24.429688 L 5.449219 -3.675781 C 5.378906 -0.601562 2.574219 -0.335938 1.839844 -0.300781 L 1.671875 -0.300781 L 1.671875 0 L 9.558594 0 L 9.558594 -0.300781 L 9.390625 -0.300781 C 8.621094 -0.335938 5.847656 -0.601562 5.75 -3.675781 L 5.75 -24.53125 Z M 6.28125 -23.960938 "/></g></g></g><g fill="#ffffff" fill-opacity="1"><g transform="translate(148.513244, 313.157939)"><g><path d="M 16.277344 0 C 18.011719 0 19.652344 -0.300781 21.222656 -0.867188 C 24.195312 -1.738281 27.40625 -1.539062 27.503906 -0.300781 L 27.804688 -0.300781 L 27.804688 -9.289062 C 27.871094 -11.394531 29.308594 -12.667969 31.617188 -12.667969 L 31.617188 -12.96875 L 17.210938 -12.96875 L 17.210938 -12.667969 C 19.382812 -12.667969 20.953125 -11.464844 20.988281 -9.257812 L 20.988281 -1.402344 C 19.75 -0.867188 17.613281 -0.402344 16.277344 -0.402344 C 14.203125 -0.402344 8.488281 -1.769531 8.457031 -14.636719 C 8.488281 -27.503906 14.203125 -28.875 16.277344 -28.875 C 16.910156 -28.875 18.382812 -28.742188 20.117188 -28.207031 C 23.761719 -26.96875 25.734375 -24.628906 25.832031 -21.089844 L 26.132812 -21.089844 L 26.132812 -28.976562 L 25.832031 -28.976562 C 25.734375 -27.707031 24.363281 -27.472656 21.222656 -28.40625 C 19.652344 -28.976562 18.011719 -29.277344 16.277344 -29.277344 C 12.433594 -29.277344 8.824219 -27.773438 6.050781 -25.097656 C 3.375 -22.390625 1.871094 -19.117188 1.671875 -15.507812 L 1.671875 -13.835938 C 2.105469 -6.082031 8.554688 0 16.277344 0 Z M 16.277344 0 "/></g></g></g><g fill="#ffffff" fill-opacity="1"><g transform="translate(181.78973, 313.157939)"><g><path d="M 1.671875 -0.300781 L 1.671875 0 L 25.867188 0 L 28.074219 -7.554688 L 27.773438 -7.554688 C 26.167969 -2.707031 22.222656 -0.300781 16.476562 -0.300781 C 14.035156 -0.300781 12.53125 -1.636719 12.53125 -3.84375 L 12.53125 -24.964844 C 12.53125 -27.171875 14.035156 -28.507812 16.476562 -28.507812 L 16.476562 -28.808594 L 1.671875 -28.808594 L 1.671875 -28.507812 C 4.109375 -28.507812 5.613281 -27.171875 5.613281 -24.964844 L 5.613281 -3.84375 C 5.613281 -1.636719 4.109375 -0.300781 1.671875 -0.300781 Z M 1.671875 -0.300781 "/></g></g></g><g fill="#ffffff" fill-opacity="1"><g transform="translate(211.524741, 313.157939)"><g><path d="M 1.671875 -0.300781 L 1.671875 0 L 16.476562 0 L 16.476562 -0.300781 C 14.035156 -0.300781 12.53125 -1.636719 12.53125 -3.84375 L 12.53125 -24.964844 C 12.53125 -27.171875 14.035156 -28.507812 16.476562 -28.507812 L 16.476562 -28.808594 L 1.671875 -28.808594 L 1.671875 -28.507812 C 4.109375 -28.507812 5.613281 -27.171875 5.613281 -24.964844 L 5.613281 -3.84375 C 5.613281 -1.636719 4.109375 -0.300781 1.671875 -0.300781 Z M 1.671875 -0.300781 "/></g></g></g><g fill="#ffffff" fill-opacity="1"><g transform="translate(229.66644, 313.157939)"><g><path d="M 6.785156 -0.800781 C 11.027344 0.800781 17.042969 0.402344 19.886719 -2.441406 C 21.222656 -3.777344 22.222656 -6.183594 22.222656 -8.121094 C 22.222656 -14.003906 17.511719 -15.105469 12.03125 -18.480469 C 8.824219 -20.453125 7.285156 -22.023438 7.285156 -24.296875 C 7.285156 -26.804688 8.523438 -28.742188 12.433594 -28.742188 C 13.96875 -28.742188 15.40625 -28.339844 16.578125 -27.671875 C 19.585938 -25.734375 19.75 -20.1875 19.75 -20.1875 L 20.050781 -20.1875 L 20.050781 -28.105469 L 19.75 -28.105469 L 19.75 -27.972656 C 19.617188 -26.703125 16.976562 -27.804688 15.839844 -28.375 C 14.804688 -28.875 13.636719 -29.042969 12.433594 -29.042969 C 8.421875 -29.042969 4.546875 -26.871094 3.007812 -23.394531 C 1.304688 -19.585938 2.90625 -17.210938 7.921875 -13.46875 C 11.5625 -10.761719 18.515625 -8.523438 18.382812 -4.777344 C 18.28125 -2.273438 16.476562 -0.132812 11.628906 -0.132812 C 6.71875 -0.132812 2.003906 -4.476562 2.003906 -8.789062 L 2.003906 -9.558594 L 1.703125 -9.558594 L 1.703125 0 L 2.003906 0 L 2.003906 -0.0351562 C 2.003906 -1.503906 2.273438 -2.539062 6.785156 -0.800781 Z M 6.785156 -0.800781 "/></g></g></g><g fill="#ffffff" fill-opacity="1"><g transform="translate(252.886478, 313.157939)"><g><path d="M 1.671875 -0.300781 L 1.671875 0 L 16.476562 0 L 16.476562 -0.300781 C 14.035156 -0.300781 12.53125 -1.636719 12.53125 -3.84375 L 12.53125 -13.535156 L 23.960938 -13.535156 L 23.960938 -3.84375 C 23.960938 -1.636719 22.457031 -0.300781 20.019531 -0.300781 L 20.019531 0 L 34.824219 0 L 34.824219 -0.300781 C 32.382812 -0.300781 30.878906 -1.636719 30.878906 -3.84375 L 30.878906 -24.964844 C 30.878906 -27.171875 32.382812 -28.507812 34.824219 -28.507812 L 34.824219 -28.808594 L 20.019531 -28.808594 L 20.019531 -28.507812 C 22.457031 -28.507812 23.960938 -27.171875 23.960938 -24.964844 L 23.960938 -13.835938 L 12.53125 -13.835938 L 12.53125 -24.964844 C 12.53125 -27.171875 14.035156 -28.507812 16.476562 -28.507812 L 16.476562 -28.808594 L 1.671875 -28.808594 L 1.671875 -28.507812 C 4.109375 -28.507812 5.613281 -27.171875 5.613281 -24.964844 L 5.613281 -3.84375 C 5.613281 -1.636719 4.109375 -0.300781 1.671875 -0.300781 Z M 1.671875 -0.300781 "/></g></g></g><g clip-path="url(#d11c9768f0)"><path fill="#000000" d="M 262.238281 275.464844 C 222.597656 275.222656 182.957031 274.984375 143.316406 274.746094 C 132.109375 274.675781 120.835938 274.316406 109.632812 274.722656 C 109.238281 274.734375 109.578125 275.308594 109.859375 275.320312 C 119.714844 275.789062 129.632812 275.636719 139.5 275.707031 C 149.375 275.773438 159.253906 275.839844 169.128906 275.910156 C 189.046875 276.046875 208.96875 276.1875 228.886719 276.324219 C 240.105469 276.398438 251.320312 276.476562 262.535156 276.554688 C 263.511719 276.5625 262.988281 275.46875 262.238281 275.464844 " fill-opacity="1" fill-rule="nonzero"/></g></svg>