<svg xmlns="http://www.w3.org/2000/svg" xmlns:xlink="http://www.w3.org/1999/xlink" zoomAndPan="magnify" preserveAspectRatio="xMidYMid meet" version="1.0" viewBox="27.29 65.61 393.63 120.09"><defs><g/><clipPath id="faa375a94d"><path d="M 27.285156 66 L 105 66 L 105 185.613281 L 27.285156 185.613281 Z M 27.285156 66 " clip-rule="nonzero"/></clipPath><clipPath id="a217707cc4"><path d="M 27.285156 66 L 106 66 L 106 157 L 27.285156 157 Z M 27.285156 66 " clip-rule="nonzero"/></clipPath><clipPath id="fe66a9406b"><path d="M 133 65.613281 L 157 65.613281 L 157 90 L 133 90 Z M 133 65.613281 " clip-rule="nonzero"/></clipPath><clipPath id="5de552c509"><path d="M 231 119.351562 L 379 119.351562 L 379 121.601562 L 231 121.601562 Z M 231 119.351562 " clip-rule="nonzero"/></clipPath></defs><g clip-path="url(#faa375a94d)"><path fill="#ffffff" d="M 58.082031 71.640625 L 99.695312 113.257812 C 100.113281 113.675781 100.511719 114.113281 100.886719 114.570312 C 101.257812 115.023438 101.609375 115.5 101.941406 115.992188 C 102.269531 116.480469 102.570312 116.988281 102.851562 117.507812 C 103.128906 118.03125 103.378906 118.5625 103.605469 119.109375 C 103.832031 119.65625 104.03125 120.210938 104.203125 120.777344 C 104.375 121.34375 104.519531 121.914062 104.632812 122.496094 C 104.75 123.074219 104.835938 123.65625 104.894531 124.246094 C 104.949219 124.832031 104.980469 125.421875 104.980469 126.015625 C 104.980469 126.605469 104.949219 127.195312 104.894531 127.78125 C 104.835938 128.371094 104.75 128.953125 104.632812 129.535156 C 104.519531 130.113281 104.375 130.6875 104.203125 131.25 C 104.03125 131.816406 103.832031 132.371094 103.605469 132.917969 C 103.378906 133.464844 103.128906 133.996094 102.851562 134.519531 C 102.570312 135.039062 102.269531 135.546875 101.941406 136.039062 C 101.609375 136.527344 101.257812 137.003906 100.886719 137.460938 C 100.511719 137.917969 100.113281 138.351562 99.695312 138.769531 L 58.082031 180.386719 C 46.714844 191.75 27.277344 183.695312 27.285156 167.613281 L 27.285156 84.386719 C 27.277344 68.332031 46.714844 60.277344 58.082031 71.640625 Z M 58.082031 71.640625 " fill-opacity="1" fill-rule="nonzero"/></g><g clip-path="url(#a217707cc4)"><path fill="#ffffff" d="M 58.082031 71.640625 C 46.78125 60.339844 27.5625 68.238281 27.296875 84.117188 C 27.296875 84.117188 92.777344 146.078125 82.367188 156.175781 L 99.734375 138.808594 C 100.152344 138.390625 100.546875 137.953125 100.921875 137.496094 C 101.296875 137.039062 101.648438 136.566406 101.976562 136.074219 C 102.304688 135.582031 102.609375 135.078125 102.886719 134.554688 C 103.164062 134.035156 103.417969 133.5 103.644531 132.953125 C 103.871094 132.410156 104.070312 131.851562 104.238281 131.289062 C 104.410156 130.722656 104.554688 130.148438 104.671875 129.570312 C 104.785156 128.992188 104.871094 128.40625 104.929688 127.820312 C 104.988281 127.230469 105.015625 126.640625 105.015625 126.050781 C 105.015625 125.460938 104.988281 124.871094 104.929688 124.28125 C 104.871094 123.695312 104.785156 123.109375 104.671875 122.53125 C 104.554688 121.953125 104.410156 121.378906 104.238281 120.8125 C 104.070312 120.25 103.871094 119.691406 103.644531 119.148438 C 103.417969 118.601562 103.164062 118.066406 102.886719 117.546875 C 102.609375 117.023438 102.304688 116.519531 101.976562 116.027344 C 101.648438 115.535156 101.296875 115.0625 100.921875 114.605469 C 100.546875 114.148438 100.152344 113.710938 99.734375 113.292969 Z M 58.082031 71.640625 " fill-opacity="1" fill-rule="nonzero"/></g><g clip-path="url(#fe66a9406b)"><path fill="#ffffff" d="M 156.753906 77.542969 C 156.753906 78.316406 156.679688 79.082031 156.527344 79.84375 C 156.378906 80.601562 156.152344 81.339844 155.855469 82.054688 C 155.5625 82.769531 155.199219 83.449219 154.765625 84.09375 C 154.335938 84.734375 153.847656 85.332031 153.300781 85.878906 C 152.753906 86.425781 152.15625 86.914062 151.515625 87.34375 C 150.871094 87.777344 150.191406 88.140625 149.476562 88.433594 C 148.761719 88.730469 148.023438 88.957031 147.265625 89.105469 C 146.503906 89.257812 145.738281 89.332031 144.964844 89.332031 C 144.191406 89.332031 143.421875 89.257812 142.664062 89.105469 C 141.902344 88.957031 141.167969 88.730469 140.453125 88.433594 C 139.734375 88.140625 139.058594 87.777344 138.414062 87.34375 C 137.769531 86.914062 137.171875 86.425781 136.625 85.878906 C 136.078125 85.332031 135.589844 84.734375 135.160156 84.09375 C 134.730469 83.449219 134.367188 82.769531 134.070312 82.054688 C 133.773438 81.339844 133.550781 80.601562 133.398438 79.84375 C 133.25 79.082031 133.171875 78.316406 133.171875 77.542969 C 133.171875 76.769531 133.25 76 133.398438 75.242188 C 133.550781 74.480469 133.773438 73.746094 134.070312 73.03125 C 134.367188 72.3125 134.730469 71.636719 135.160156 70.992188 C 135.589844 70.347656 136.078125 69.75 136.625 69.203125 C 137.171875 68.65625 137.769531 68.167969 138.414062 67.738281 C 139.058594 67.308594 139.734375 66.945312 140.453125 66.648438 C 141.167969 66.351562 141.902344 66.128906 142.664062 65.976562 C 143.421875 65.828125 144.191406 65.75 144.964844 65.75 C 145.738281 65.75 146.503906 65.828125 147.265625 65.976562 C 148.023438 66.128906 148.761719 66.351562 149.476562 66.648438 C 150.191406 66.945312 150.871094 67.308594 151.515625 67.738281 C 152.15625 68.167969 152.753906 68.65625 153.300781 69.203125 C 153.847656 69.75 154.335938 70.347656 154.765625 70.992188 C 155.199219 71.636719 155.5625 72.3125 155.855469 73.03125 C 156.152344 73.746094 156.378906 74.480469 156.527344 75.242188 C 156.679688 76 156.753906 76.769531 156.753906 77.542969 Z M 156.753906 77.542969 " fill-opacity="1" fill-rule="nonzero"/><path fill="#ffffff" d="M 156.753906 77.542969 C 156.753906 78.316406 156.679688 79.082031 156.527344 79.84375 C 156.378906 80.601562 156.152344 81.339844 155.855469 82.054688 C 155.5625 82.769531 155.199219 83.449219 154.765625 84.09375 C 154.335938 84.734375 153.847656 85.332031 153.300781 85.878906 C 152.753906 86.425781 152.15625 86.914062 151.515625 87.34375 C 150.871094 87.777344 150.191406 88.140625 149.476562 88.433594 C 148.761719 88.730469 148.023438 88.957031 147.265625 89.105469 C 146.503906 89.257812 145.738281 89.332031 144.964844 89.332031 C 144.191406 89.332031 143.421875 89.257812 142.664062 89.105469 C 141.902344 88.957031 141.167969 88.730469 140.453125 88.433594 C 139.734375 88.140625 139.058594 87.777344 138.414062 87.34375 C 137.769531 86.914062 137.171875 86.425781 136.625 85.878906 C 136.078125 85.332031 135.589844 84.734375 135.160156 84.09375 C 134.730469 83.449219 134.367188 82.769531 134.070312 82.054688 C 133.773438 81.339844 133.550781 80.601562 133.398438 79.84375 C 133.25 79.082031 133.171875 78.316406 133.171875 77.542969 C 133.171875 76.769531 133.25 76 133.398438 75.242188 C 133.550781 74.480469 133.773438 73.746094 134.070312 73.03125 C 134.367188 72.3125 134.730469 71.636719 135.160156 70.992188 C 135.589844 70.347656 136.078125 69.75 136.625 69.203125 C 137.171875 68.65625 137.769531 68.167969 138.414062 67.738281 C 139.058594 67.308594 139.734375 66.945312 140.453125 66.648438 C 141.167969 66.351562 141.902344 66.128906 142.664062 65.976562 C 143.421875 65.828125 144.191406 65.75 144.964844 65.75 C 145.738281 65.75 146.503906 65.828125 147.265625 65.976562 C 148.023438 66.128906 148.761719 66.351562 149.476562 66.648438 C 150.191406 66.945312 150.871094 67.308594 151.515625 67.738281 C 152.15625 68.167969 152.753906 68.65625 153.300781 69.203125 C 153.847656 69.75 154.335938 70.347656 154.765625 70.992188 C 155.199219 71.636719 155.5625 72.3125 155.855469 73.03125 C 156.152344 73.746094 156.378906 74.480469 156.527344 75.242188 C 156.679688 76 156.753906 76.769531 156.753906 77.542969 Z M 156.753906 77.542969 " fill-opacity="1" fill-rule="nonzero"/></g><path fill="#ffffff" d="M 151.464844 113.359375 L 109.851562 71.742188 C 98.679688 60.5625 68.902344 73.527344 79.09375 83.71875 L 109.019531 113.65625 C 109.4375 114.070312 109.832031 114.507812 110.207031 114.964844 C 110.582031 115.421875 110.933594 115.894531 111.261719 116.386719 C 111.589844 116.878906 111.894531 117.382812 112.171875 117.90625 C 112.453125 118.425781 112.703125 118.957031 112.929688 119.503906 C 113.15625 120.050781 113.355469 120.605469 113.527344 121.171875 C 113.699219 121.734375 113.84375 122.308594 113.957031 122.886719 C 114.074219 123.46875 114.160156 124.050781 114.21875 124.640625 C 114.277344 125.226562 114.304688 125.816406 114.304688 126.40625 C 114.304688 126.996094 114.277344 127.585938 114.21875 128.175781 C 114.160156 128.761719 114.074219 129.347656 113.957031 129.925781 C 113.84375 130.503906 113.699219 131.078125 113.527344 131.644531 C 113.355469 132.207031 113.15625 132.765625 112.929688 133.308594 C 112.703125 133.855469 112.453125 134.386719 112.171875 134.910156 C 111.894531 135.429688 111.589844 135.9375 111.261719 136.425781 C 110.933594 136.917969 110.582031 137.390625 110.207031 137.847656 C 109.832031 138.304688 109.4375 138.742188 109.019531 139.160156 L 79.109375 169.078125 C 69.992188 178.183594 98.789062 191.621094 109.851562 180.5625 L 151.464844 138.945312 C 151.886719 138.527344 152.285156 138.089844 152.660156 137.632812 C 153.039062 137.175781 153.394531 136.699219 153.722656 136.207031 C 154.054688 135.714844 154.359375 135.207031 154.640625 134.6875 C 154.921875 134.164062 155.175781 133.628906 155.402344 133.082031 C 155.628906 132.535156 155.832031 131.976562 156.003906 131.410156 C 156.175781 130.839844 156.320312 130.265625 156.4375 129.683594 C 156.554688 129.105469 156.640625 128.519531 156.699219 127.925781 C 156.757812 127.335938 156.785156 126.746094 156.785156 126.152344 C 156.785156 125.558594 156.757812 124.96875 156.699219 124.378906 C 156.640625 123.789062 156.554688 123.203125 156.4375 122.621094 C 156.320312 122.039062 156.175781 121.464844 156.003906 120.898438 C 155.832031 120.328125 155.628906 119.773438 155.402344 119.222656 C 155.175781 118.675781 154.921875 118.140625 154.640625 117.617188 C 154.359375 117.097656 154.054688 116.589844 153.722656 116.097656 C 153.394531 115.605469 153.039062 115.128906 152.660156 114.671875 C 152.285156 114.214844 151.886719 113.777344 151.464844 113.359375 Z M 151.464844 113.359375 " fill-opacity="1" fill-rule="nonzero"/><path fill="#ffffff" d="M 151.464844 113.359375 L 109.851562 71.742188 C 98.679688 60.5625 68.902344 73.527344 79.09375 83.71875 L 109.019531 113.65625 C 110.460938 115.097656 111.628906 116.738281 112.511719 118.578125 C 113.398438 120.417969 113.953125 122.351562 114.179688 124.382812 C 124.488281 136.488281 133.0625 148.242188 134.847656 155.566406 L 151.492188 138.917969 C 151.910156 138.5 152.308594 138.0625 152.683594 137.605469 C 153.0625 137.148438 153.414062 136.671875 153.742188 136.179688 C 154.070312 135.6875 154.375 135.179688 154.65625 134.65625 C 154.933594 134.136719 155.1875 133.601562 155.414062 133.054688 C 155.640625 132.507812 155.839844 131.949219 156.011719 131.382812 C 156.183594 130.816406 156.328125 130.242188 156.441406 129.660156 C 156.554688 129.082031 156.644531 128.496094 156.699219 127.90625 C 156.757812 127.316406 156.785156 126.726562 156.785156 126.132812 C 156.785156 125.539062 156.753906 124.949219 156.695312 124.359375 C 156.636719 123.769531 156.550781 123.1875 156.433594 122.605469 C 156.316406 122.023438 156.171875 121.453125 156 120.886719 C 155.828125 120.320312 155.625 119.761719 155.398438 119.214844 C 155.171875 118.667969 154.917969 118.132812 154.636719 117.613281 C 154.355469 117.089844 154.050781 116.585938 153.722656 116.09375 C 153.390625 115.601562 153.039062 115.125 152.660156 114.671875 C 152.285156 114.214844 151.886719 113.777344 151.464844 113.359375 Z M 151.464844 113.359375 " fill-opacity="1" fill-rule="nonzero"/><g fill="#ffffff" fill-opacity="1"><g transform="translate(177.945643, 111.373378)"><g><path d="M 6.242188 -25.273438 L 16.367188 -0.0351562 L 24.296875 -19.976562 L 32.328125 -0.0351562 L 42.351562 -25.242188 C 43.226562 -27.46875 44.984375 -28.785156 47.648438 -28.785156 L 47.648438 -29.089844 L 39.652344 -29.089844 L 39.652344 -28.785156 C 42.046875 -28.785156 42.890625 -27.46875 42.011719 -25.242188 L 35.734375 -9.414062 L 29.527344 -25.242188 C 28.648438 -27.46875 29.289062 -28.785156 31.316406 -28.785156 L 31.316406 -29.089844 L 17.648438 -29.089844 L 17.648438 -28.785156 C 19.773438 -28.683594 21.191406 -27.773438 22.203125 -25.242188 L 24.128906 -20.414062 L 19.773438 -9.414062 L 13.597656 -25.242188 C 12.6875 -27.570312 13.261719 -28.71875 15.386719 -28.785156 L 15.386719 -29.089844 L 1.6875 -29.089844 L 1.6875 -28.785156 C 3.8125 -28.71875 5.332031 -27.570312 6.242188 -25.273438 Z M 6.242188 -25.273438 "/></g></g></g><g fill="#ffffff" fill-opacity="1"><g transform="translate(227.266766, 111.373378)"><g><path d="M 1.6875 -0.304688 L 1.6875 0 L 26.117188 0 L 28.347656 -7.625 L 28.042969 -7.625 C 26.421875 -2.734375 22.441406 -0.304688 16.636719 -0.304688 C 14.171875 -0.304688 12.65625 -1.652344 12.65625 -3.878906 L 12.65625 -15.117188 L 17.714844 -15.117188 C 20.820312 -15.015625 21.125 -12.214844 21.125 -11.441406 L 21.125 -11.269531 L 21.429688 -11.269531 L 21.429688 -19.234375 L 21.125 -19.234375 L 21.125 -19.066406 C 21.125 -18.289062 20.820312 -15.488281 17.714844 -15.421875 L 12.65625 -15.421875 L 12.6875 -28.785156 L 15.117188 -28.785156 C 23.285156 -28.785156 25.039062 -23.789062 25.375 -22.070312 L 25.476562 -21.460938 L 25.746094 -21.597656 L 24.601562 -29.089844 L 1.6875 -29.089844 L 1.6875 -28.785156 C 4.152344 -28.785156 5.667969 -27.433594 5.667969 -25.207031 L 5.667969 -3.878906 C 5.667969 -1.652344 4.152344 -0.304688 1.6875 -0.304688 Z M 1.6875 -0.304688 "/></g></g></g><g fill="#ffffff" fill-opacity="1"><g transform="translate(257.291245, 111.373378)"><g><path d="M 1.6875 -0.304688 L 1.6875 0 L 26.117188 0 L 28.347656 -7.625 L 28.042969 -7.625 C 26.421875 -2.734375 22.441406 -0.304688 16.636719 -0.304688 C 14.171875 -0.304688 12.65625 -1.652344 12.65625 -3.878906 L 12.65625 -25.207031 C 12.65625 -27.433594 14.171875 -28.785156 16.636719 -28.785156 L 16.636719 -29.089844 L 1.6875 -29.089844 L 1.6875 -28.785156 C 4.152344 -28.785156 5.667969 -27.433594 5.667969 -25.207031 L 5.667969 -3.878906 C 5.667969 -1.652344 4.152344 -0.304688 1.6875 -0.304688 Z M 1.6875 -0.304688 "/></g></g></g><g fill="#ffffff" fill-opacity="1"><g transform="translate(287.315725, 111.373378)"><g><path d="M 1.6875 -0.304688 L 1.6875 0 L 26.117188 0 L 28.347656 -7.625 L 28.042969 -7.625 C 26.421875 -2.734375 22.441406 -0.304688 16.636719 -0.304688 C 14.171875 -0.304688 12.65625 -1.652344 12.65625 -3.878906 L 12.65625 -15.117188 L 17.714844 -15.117188 C 20.820312 -15.015625 21.125 -12.214844 21.125 -11.441406 L 21.125 -11.269531 L 21.429688 -11.269531 L 21.429688 -19.234375 L 21.125 -19.234375 L 21.125 -19.066406 C 21.125 -18.289062 20.820312 -15.488281 17.714844 -15.421875 L 12.65625 -15.421875 L 12.6875 -28.785156 L 15.117188 -28.785156 C 23.285156 -28.785156 25.039062 -23.789062 25.375 -22.070312 L 25.476562 -21.460938 L 25.746094 -21.597656 L 24.601562 -29.089844 L 1.6875 -29.089844 L 1.6875 -28.785156 C 4.152344 -28.785156 5.667969 -27.433594 5.667969 -25.207031 L 5.667969 -3.878906 C 5.667969 -1.652344 4.152344 -0.304688 1.6875 -0.304688 Z M 1.6875 -0.304688 "/></g></g></g><g fill="#ffffff" fill-opacity="1"><g transform="translate(317.340204, 111.373378)"><g><path d="M 1.6875 -0.304688 L 1.6875 0 L 9.652344 0 L 9.652344 -0.304688 L 9.550781 -0.304688 C 8.976562 -0.335938 6.074219 -0.675781 8.640625 -6.308594 L 9.753906 -8.738281 L 20.957031 -8.738281 L 23.183594 -3.847656 C 24.667969 -0.605469 22.203125 -0.335938 21.53125 -0.304688 L 21.359375 -0.304688 L 21.359375 0 L 35.0625 0 L 35.0625 -0.304688 L 34.894531 -0.304688 C 34.21875 -0.335938 31.621094 -0.640625 30.167969 -3.847656 L 18.660156 -29.089844 L 15.183594 -21.394531 L 8.300781 -6.308594 C 6.039062 -1.28125 3.410156 -0.4375 2.261719 -0.304688 Z M 20.820312 -9.042969 L 9.886719 -9.042969 L 15.355469 -21.023438 Z M 20.820312 -9.042969 "/></g></g></g><g fill="#ffffff" fill-opacity="1"><g transform="translate(354.078024, 111.373378)"><g><path d="M 1.6875 -0.304688 L 1.6875 0 L 16.265625 0 L 16.265625 -0.304688 C 13.734375 -0.304688 12.65625 -1.417969 12.65625 -3.8125 L 12.65625 -13.902344 L 16.5 -13.902344 C 18.929688 -13.902344 18.222656 -12.382812 20.246094 -7.1875 C 22.339844 -1.820312 24.734375 0 27.265625 0 L 33.339844 0 L 33.339844 -0.304688 C 30.304688 -0.304688 28.851562 -1.753906 27.132812 -7.1875 C 25.476562 -12.382812 23.890625 -13.902344 19.132812 -14.171875 C 23.214844 -14.847656 26.894531 -17.109375 26.894531 -21.597656 C 26.894531 -27.03125 21.765625 -29.089844 16.300781 -29.089844 L 1.6875 -29.089844 L 1.6875 -28.785156 L 2.09375 -28.785156 C 3.105469 -28.75 5.667969 -28.3125 5.667969 -25.207031 L 5.667969 -3.878906 C 5.667969 -1.417969 4.21875 -0.304688 1.6875 -0.304688 Z M 16.300781 -14.242188 L 12.65625 -14.242188 L 12.65625 -28.785156 L 16.300781 -28.785156 C 18.730469 -28.785156 20.011719 -25.679688 20.011719 -21.597656 C 20.011719 -17.480469 18.730469 -14.242188 16.300781 -14.242188 Z M 16.300781 -14.242188 "/></g></g></g><g fill="#ffffff" fill-opacity="1"><g transform="translate(389.095345, 111.373378)"><g><path d="M 6.34375 -24.195312 L 27.636719 0 L 27.976562 0 L 27.976562 -25.34375 C 28.074219 -28.953125 31.820312 -28.75 31.820312 -28.75 L 31.820312 -29.089844 L 23.824219 -29.089844 L 23.824219 -28.785156 C 23.824219 -28.75 27.570312 -28.953125 27.671875 -25.34375 L 27.671875 -10.394531 L 11.167969 -29.089844 L 1.6875 -29.089844 L 1.6875 -28.75 C 4.082031 -28.75 5.433594 -27.535156 5.5 -24.667969 L 5.5 -3.710938 C 5.433594 -0.605469 2.597656 -0.335938 1.855469 -0.304688 L 1.6875 -0.304688 L 1.6875 0 L 9.652344 0 L 9.652344 -0.304688 L 9.484375 -0.304688 C 8.707031 -0.335938 5.90625 -0.605469 5.804688 -3.710938 L 5.804688 -24.769531 Z M 6.34375 -24.195312 "/></g></g></g><g fill="#ffffff" fill-opacity="1"><g transform="translate(197.398817, 158.326051)"><g><path d="M 1.6875 -0.304688 L 1.6875 0 L 26.117188 0 L 28.347656 -7.625 L 28.042969 -7.625 C 26.421875 -2.734375 22.441406 -0.304688 16.636719 -0.304688 C 14.171875 -0.304688 12.65625 -1.652344 12.65625 -3.878906 L 12.65625 -15.117188 L 17.714844 -15.117188 C 20.820312 -15.015625 21.125 -12.214844 21.125 -11.441406 L 21.125 -11.269531 L 21.429688 -11.269531 L 21.429688 -19.234375 L 21.125 -19.234375 L 21.125 -19.066406 C 21.125 -18.289062 20.820312 -15.488281 17.714844 -15.421875 L 12.65625 -15.421875 L 12.6875 -28.785156 L 15.117188 -28.785156 C 23.285156 -28.785156 25.039062 -23.789062 25.375 -22.070312 L 25.476562 -21.460938 L 25.746094 -21.597656 L 24.601562 -29.089844 L 1.6875 -29.089844 L 1.6875 -28.785156 C 4.152344 -28.785156 5.667969 -27.433594 5.667969 -25.207031 L 5.667969 -3.878906 C 5.667969 -1.652344 4.152344 -0.304688 1.6875 -0.304688 Z M 1.6875 -0.304688 "/></g></g></g><g fill="#ffffff" fill-opacity="1"><g transform="translate(227.423297, 158.326051)"><g><path d="M 6.34375 -24.195312 L 27.636719 0 L 27.976562 0 L 27.976562 -25.34375 C 28.074219 -28.953125 31.820312 -28.75 31.820312 -28.75 L 31.820312 -29.089844 L 23.824219 -29.089844 L 23.824219 -28.785156 C 23.824219 -28.75 27.570312 -28.953125 27.671875 -25.34375 L 27.671875 -10.394531 L 11.167969 -29.089844 L 1.6875 -29.089844 L 1.6875 -28.75 C 4.082031 -28.75 5.433594 -27.535156 5.5 -24.667969 L 5.5 -3.710938 C 5.433594 -0.605469 2.597656 -0.335938 1.855469 -0.304688 L 1.6875 -0.304688 L 1.6875 0 L 9.652344 0 L 9.652344 -0.304688 L 9.484375 -0.304688 C 8.707031 -0.335938 5.90625 -0.605469 5.804688 -3.710938 L 5.804688 -24.769531 Z M 6.34375 -24.195312 "/></g></g></g><g fill="#ffffff" fill-opacity="1"><g transform="translate(260.922526, 158.326051)"><g><path d="M 16.433594 0 C 18.1875 0 19.84375 -0.304688 21.429688 -0.878906 C 24.429688 -1.753906 27.671875 -1.550781 27.773438 -0.304688 L 28.074219 -0.304688 L 28.074219 -9.382812 C 28.144531 -11.507812 29.59375 -12.789062 31.921875 -12.789062 L 31.921875 -13.09375 L 17.378906 -13.09375 L 17.378906 -12.789062 C 19.574219 -12.789062 21.160156 -11.574219 21.191406 -9.347656 L 21.191406 -1.417969 C 19.945312 -0.878906 17.785156 -0.40625 16.433594 -0.40625 C 14.339844 -0.40625 8.570312 -1.789062 8.539062 -14.78125 C 8.570312 -27.773438 14.339844 -29.15625 16.433594 -29.15625 C 17.074219 -29.15625 18.558594 -29.019531 20.316406 -28.480469 C 23.992188 -27.234375 25.984375 -24.871094 26.085938 -21.292969 L 26.390625 -21.292969 L 26.390625 -29.257812 L 26.085938 -29.257812 C 25.984375 -27.976562 24.601562 -27.738281 21.429688 -28.683594 C 19.84375 -29.257812 18.1875 -29.5625 16.433594 -29.5625 C 12.554688 -29.5625 8.910156 -28.042969 6.109375 -25.34375 C 3.410156 -22.609375 1.890625 -19.300781 1.6875 -15.65625 L 1.6875 -13.96875 C 2.125 -6.140625 8.640625 0 16.433594 0 Z M 16.433594 0 "/></g></g></g><g fill="#ffffff" fill-opacity="1"><g transform="translate(294.522958, 158.326051)"><g><path d="M 1.6875 -0.304688 L 1.6875 0 L 26.117188 0 L 28.347656 -7.625 L 28.042969 -7.625 C 26.421875 -2.734375 22.441406 -0.304688 16.636719 -0.304688 C 14.171875 -0.304688 12.65625 -1.652344 12.65625 -3.878906 L 12.65625 -25.207031 C 12.65625 -27.433594 14.171875 -28.785156 16.636719 -28.785156 L 16.636719 -29.089844 L 1.6875 -29.089844 L 1.6875 -28.785156 C 4.152344 -28.785156 5.667969 -27.433594 5.667969 -25.207031 L 5.667969 -3.878906 C 5.667969 -1.652344 4.152344 -0.304688 1.6875 -0.304688 Z M 1.6875 -0.304688 "/></g></g></g><g fill="#ffffff" fill-opacity="1"><g transform="translate(324.547438, 158.326051)"><g><path d="M 1.6875 -0.304688 L 1.6875 0 L 16.636719 0 L 16.636719 -0.304688 C 14.171875 -0.304688 12.65625 -1.652344 12.65625 -3.878906 L 12.65625 -25.207031 C 12.65625 -27.433594 14.171875 -28.785156 16.636719 -28.785156 L 16.636719 -29.089844 L 1.6875 -29.089844 L 1.6875 -28.785156 C 4.152344 -28.785156 5.667969 -27.433594 5.667969 -25.207031 L 5.667969 -3.878906 C 5.667969 -1.652344 4.152344 -0.304688 1.6875 -0.304688 Z M 1.6875 -0.304688 "/></g></g></g><g fill="#ffffff" fill-opacity="1"><g transform="translate(342.865746, 158.326051)"><g><path d="M 6.851562 -0.808594 C 11.136719 0.808594 17.210938 0.40625 20.078125 -2.464844 C 21.429688 -3.8125 22.441406 -6.242188 22.441406 -8.199219 C 22.441406 -14.140625 17.683594 -15.253906 12.148438 -18.660156 C 8.910156 -20.652344 7.355469 -22.238281 7.355469 -24.53125 C 7.355469 -27.0625 8.605469 -29.019531 12.554688 -29.019531 C 14.105469 -29.019531 15.554688 -28.617188 16.738281 -27.941406 C 19.773438 -25.984375 19.945312 -20.382812 19.945312 -20.382812 L 20.246094 -20.382812 L 20.246094 -28.378906 L 19.945312 -28.378906 L 19.945312 -28.246094 C 19.808594 -26.960938 17.144531 -28.074219 15.996094 -28.648438 C 14.949219 -29.15625 13.769531 -29.324219 12.554688 -29.324219 C 8.503906 -29.324219 4.589844 -27.132812 3.035156 -23.621094 C 1.316406 -19.773438 2.9375 -17.378906 7.996094 -13.597656 C 11.675781 -10.867188 18.695312 -8.605469 18.558594 -4.824219 C 18.457031 -2.292969 16.636719 -0.136719 11.742188 -0.136719 C 6.78125 -0.136719 2.023438 -4.523438 2.023438 -8.875 L 2.023438 -9.652344 L 1.722656 -9.652344 L 1.722656 0 L 2.023438 0 L 2.023438 -0.0351562 C 2.023438 -1.519531 2.292969 -2.566406 6.851562 -0.808594 Z M 6.851562 -0.808594 "/></g></g></g><g fill="#ffffff" fill-opacity="1"><g transform="translate(366.31183, 158.326051)"><g><path d="M 1.6875 -0.304688 L 1.6875 0 L 16.636719 0 L 16.636719 -0.304688 C 14.171875 -0.304688 12.65625 -1.652344 12.65625 -3.878906 L 12.65625 -13.667969 L 24.195312 -13.667969 L 24.195312 -3.878906 C 24.195312 -1.652344 22.675781 -0.304688 20.214844 -0.304688 L 20.214844 0 L 35.164062 0 L 35.164062 -0.304688 C 32.699219 -0.304688 31.179688 -1.652344 31.179688 -3.878906 L 31.179688 -25.207031 C 31.179688 -27.433594 32.699219 -28.785156 35.164062 -28.785156 L 35.164062 -29.089844 L 20.214844 -29.089844 L 20.214844 -28.785156 C 22.675781 -28.785156 24.195312 -27.433594 24.195312 -25.207031 L 24.195312 -13.96875 L 12.65625 -13.96875 L 12.65625 -25.207031 C 12.65625 -27.433594 14.171875 -28.785156 16.636719 -28.785156 L 16.636719 -29.089844 L 1.6875 -29.089844 L 1.6875 -28.785156 C 4.152344 -28.785156 5.667969 -27.433594 5.667969 -25.207031 L 5.667969 -3.878906 C 5.667969 -1.652344 4.152344 -0.304688 1.6875 -0.304688 Z M 1.6875 -0.304688 "/></g></g></g><g clip-path="url(#5de552c509)"><path fill="#ffffff" d="M 377.609375 120.453125 C 339.703125 120.222656 301.800781 119.996094 263.898438 119.765625 C 253.175781 119.703125 242.398438 119.359375 231.6875 119.746094 C 231.308594 119.757812 231.632812 120.300781 231.902344 120.316406 C 241.328125 120.761719 250.8125 120.617188 260.246094 120.683594 C 269.6875 120.746094 279.132812 120.8125 288.578125 120.878906 C 307.625 121.007812 326.671875 121.140625 345.71875 121.269531 C 356.441406 121.34375 367.167969 121.417969 377.890625 121.492188 C 378.824219 121.5 378.324219 120.457031 377.609375 120.453125 " fill-opacity="1" fill-rule="nonzero"/></g></svg>