<svg xmlns="http://www.w3.org/2000/svg" xmlns:xlink="http://www.w3.org/1999/xlink" zoomAndPan="magnify" preserveAspectRatio="xMidYMid meet" version="1.0" viewBox="24.3 85.87 381.35 71.25"><defs><g/><clipPath id="84fbcaa18b"><path d="M 24.300781 86 L 71 86 L 71 157.117188 L 24.300781 157.117188 Z M 24.300781 86 " clip-rule="nonzero"/></clipPath><clipPath id="32338181d5"><path d="M 24.300781 86 L 71 86 L 71 140 L 24.300781 140 Z M 24.300781 86 " clip-rule="nonzero"/></clipPath><clipPath id="4c35f0addc"><path d="M 87 85.867188 L 100.800781 85.867188 L 100.800781 100 L 87 100 Z M 87 85.867188 " clip-rule="nonzero"/></clipPath><clipPath id="469030fe5c"><path d="M 53 86 L 100.800781 86 L 100.800781 157 L 53 157 Z M 53 86 " clip-rule="nonzero"/></clipPath><clipPath id="bf892801a0"><path d="M 53 86 L 100.800781 86 L 100.800781 140 L 53 140 Z M 53 86 " clip-rule="nonzero"/></clipPath></defs><g fill="#ffffff" fill-opacity="1"><g transform="translate(109.26611, 127.948737)"><g><path d="M 3.945312 -15.96875 L 10.339844 -0.0195312 L 15.351562 -12.621094 L 20.425781 -0.0195312 L 26.757812 -15.949219 C 27.3125 -17.355469 28.421875 -18.1875 30.105469 -18.1875 L 30.105469 -18.378906 L 25.054688 -18.378906 L 25.054688 -18.1875 C 26.566406 -18.1875 27.101562 -17.355469 26.546875 -15.949219 L 22.582031 -5.949219 L 18.65625 -15.949219 C 18.101562 -17.355469 18.507812 -18.1875 19.785156 -18.1875 L 19.785156 -18.378906 L 11.152344 -18.378906 L 11.152344 -18.1875 C 12.496094 -18.125 13.390625 -17.546875 14.03125 -15.949219 L 15.246094 -12.898438 L 12.496094 -5.949219 L 8.59375 -15.949219 C 8.015625 -17.421875 8.378906 -18.144531 9.722656 -18.1875 L 9.722656 -18.378906 L 1.066406 -18.378906 L 1.066406 -18.1875 C 2.410156 -18.144531 3.367188 -17.421875 3.945312 -15.96875 Z M 3.945312 -15.96875 "/></g></g></g><g fill="#ffffff" fill-opacity="1"><g transform="translate(140.437716, 127.948737)"><g><path d="M 1.066406 -0.191406 L 1.066406 0 L 16.503906 0 L 17.910156 -4.820312 L 17.71875 -4.820312 C 16.695312 -1.726562 14.179688 -0.191406 10.511719 -0.191406 C 8.957031 -0.191406 7.996094 -1.042969 7.996094 -2.453125 L 7.996094 -9.550781 L 11.195312 -9.550781 C 13.15625 -9.488281 13.347656 -7.71875 13.347656 -7.226562 L 13.347656 -7.121094 L 13.539062 -7.121094 L 13.539062 -12.152344 L 13.347656 -12.152344 L 13.347656 -12.046875 C 13.347656 -11.554688 13.15625 -9.785156 11.195312 -9.746094 L 7.996094 -9.746094 L 8.015625 -18.1875 L 9.550781 -18.1875 C 14.710938 -18.1875 15.820312 -15.03125 16.035156 -13.945312 L 16.097656 -13.5625 L 16.269531 -13.644531 L 15.542969 -18.378906 L 1.066406 -18.378906 L 1.066406 -18.1875 C 2.621094 -18.1875 3.582031 -17.335938 3.582031 -15.925781 L 3.582031 -2.453125 C 3.582031 -1.042969 2.621094 -0.191406 1.066406 -0.191406 Z M 1.066406 -0.191406 "/></g></g></g><g fill="#ffffff" fill-opacity="1"><g transform="translate(159.413591, 127.948737)"><g><path d="M 1.066406 -0.191406 L 1.066406 0 L 16.503906 0 L 17.910156 -4.820312 L 17.71875 -4.820312 C 16.695312 -1.726562 14.179688 -0.191406 10.511719 -0.191406 C 8.957031 -0.191406 7.996094 -1.042969 7.996094 -2.453125 L 7.996094 -15.925781 C 7.996094 -17.335938 8.957031 -18.1875 10.511719 -18.1875 L 10.511719 -18.378906 L 1.066406 -18.378906 L 1.066406 -18.1875 C 2.621094 -18.1875 3.582031 -17.335938 3.582031 -15.925781 L 3.582031 -2.453125 C 3.582031 -1.042969 2.621094 -0.191406 1.066406 -0.191406 Z M 1.066406 -0.191406 "/></g></g></g><g fill="#ffffff" fill-opacity="1"><g transform="translate(178.389466, 127.948737)"><g><path d="M 1.066406 -0.191406 L 1.066406 0 L 16.503906 0 L 17.910156 -4.820312 L 17.71875 -4.820312 C 16.695312 -1.726562 14.179688 -0.191406 10.511719 -0.191406 C 8.957031 -0.191406 7.996094 -1.042969 7.996094 -2.453125 L 7.996094 -9.550781 L 11.195312 -9.550781 C 13.15625 -9.488281 13.347656 -7.71875 13.347656 -7.226562 L 13.347656 -7.121094 L 13.539062 -7.121094 L 13.539062 -12.152344 L 13.347656 -12.152344 L 13.347656 -12.046875 C 13.347656 -11.554688 13.15625 -9.785156 11.195312 -9.746094 L 7.996094 -9.746094 L 8.015625 -18.1875 L 9.550781 -18.1875 C 14.710938 -18.1875 15.820312 -15.03125 16.035156 -13.945312 L 16.097656 -13.5625 L 16.269531 -13.644531 L 15.542969 -18.378906 L 1.066406 -18.378906 L 1.066406 -18.1875 C 2.621094 -18.1875 3.582031 -17.335938 3.582031 -15.925781 L 3.582031 -2.453125 C 3.582031 -1.042969 2.621094 -0.191406 1.066406 -0.191406 Z M 1.066406 -0.191406 "/></g></g></g><g fill="#ffffff" fill-opacity="1"><g transform="translate(197.365341, 127.948737)"><g><path d="M 1.066406 -0.191406 L 1.066406 0 L 6.097656 0 L 6.097656 -0.191406 L 6.035156 -0.191406 C 5.671875 -0.214844 3.839844 -0.425781 5.457031 -3.988281 L 6.160156 -5.523438 L 13.242188 -5.523438 L 14.648438 -2.429688 C 15.585938 -0.382812 14.03125 -0.214844 13.605469 -0.191406 L 13.496094 -0.191406 L 13.496094 0 L 22.152344 0 L 22.152344 -0.191406 L 22.046875 -0.191406 C 21.621094 -0.214844 19.980469 -0.40625 19.0625 -2.429688 L 11.792969 -18.378906 L 9.59375 -13.519531 L 5.246094 -3.988281 C 3.816406 -0.808594 2.152344 -0.277344 1.429688 -0.191406 Z M 13.15625 -5.714844 L 6.246094 -5.714844 L 9.703125 -13.285156 Z M 13.15625 -5.714844 "/></g></g></g><g fill="#ffffff" fill-opacity="1"><g transform="translate(220.584134, 127.948737)"><g><path d="M 1.066406 -0.191406 L 1.066406 0 L 10.277344 0 L 10.277344 -0.191406 C 8.679688 -0.191406 7.996094 -0.894531 7.996094 -2.410156 L 7.996094 -8.785156 L 10.425781 -8.785156 C 11.960938 -8.785156 11.515625 -7.824219 12.792969 -4.542969 C 14.117188 -1.152344 15.628906 0 17.226562 0 L 21.066406 0 L 21.066406 -0.191406 C 19.148438 -0.191406 18.230469 -1.109375 17.144531 -4.542969 C 16.097656 -7.824219 15.097656 -8.785156 12.089844 -8.957031 C 14.667969 -9.382812 16.992188 -10.808594 16.992188 -13.644531 C 16.992188 -17.078125 13.753906 -18.378906 10.296875 -18.378906 L 1.066406 -18.378906 L 1.066406 -18.1875 L 1.320312 -18.1875 C 1.960938 -18.167969 3.582031 -17.890625 3.582031 -15.925781 L 3.582031 -2.453125 C 3.582031 -0.894531 2.664062 -0.191406 1.066406 -0.191406 Z M 10.296875 -8.996094 L 7.996094 -8.996094 L 7.996094 -18.1875 L 10.296875 -18.1875 C 11.832031 -18.1875 12.644531 -16.226562 12.644531 -13.644531 C 12.644531 -11.042969 11.832031 -8.996094 10.296875 -8.996094 Z M 10.296875 -8.996094 "/></g></g></g><g fill="#ffffff" fill-opacity="1"><g transform="translate(242.715558, 127.948737)"><g><path d="M 4.007812 -15.289062 L 17.460938 0 L 17.675781 0 L 17.675781 -16.011719 C 17.738281 -18.292969 20.105469 -18.167969 20.105469 -18.167969 L 20.105469 -18.378906 L 15.054688 -18.378906 L 15.054688 -18.1875 C 15.054688 -18.167969 17.421875 -18.292969 17.484375 -16.011719 L 17.484375 -6.566406 L 7.058594 -18.378906 L 1.066406 -18.378906 L 1.066406 -18.167969 C 2.578125 -18.167969 3.433594 -17.398438 3.476562 -15.585938 L 3.476562 -2.34375 C 3.433594 -0.382812 1.640625 -0.214844 1.171875 -0.191406 L 1.066406 -0.191406 L 1.066406 0 L 6.097656 0 L 6.097656 -0.191406 L 5.992188 -0.191406 C 5.5 -0.214844 3.730469 -0.382812 3.667969 -2.34375 L 3.667969 -15.652344 Z M 4.007812 -15.289062 "/></g></g></g><g fill="#ffffff" fill-opacity="1"><g transform="translate(263.887511, 127.948737)"><g/></g></g><g fill="#ffffff" fill-opacity="1"><g transform="translate(276.680247, 127.948737)"><g><path d="M 1.066406 -0.191406 L 1.066406 0 L 16.503906 0 L 17.910156 -4.820312 L 17.71875 -4.820312 C 16.695312 -1.726562 14.179688 -0.191406 10.511719 -0.191406 C 8.957031 -0.191406 7.996094 -1.042969 7.996094 -2.453125 L 7.996094 -9.550781 L 11.195312 -9.550781 C 13.15625 -9.488281 13.347656 -7.71875 13.347656 -7.226562 L 13.347656 -7.121094 L 13.539062 -7.121094 L 13.539062 -12.152344 L 13.347656 -12.152344 L 13.347656 -12.046875 C 13.347656 -11.554688 13.15625 -9.785156 11.195312 -9.746094 L 7.996094 -9.746094 L 8.015625 -18.1875 L 9.550781 -18.1875 C 14.710938 -18.1875 15.820312 -15.03125 16.035156 -13.945312 L 16.097656 -13.5625 L 16.269531 -13.644531 L 15.542969 -18.378906 L 1.066406 -18.378906 L 1.066406 -18.1875 C 2.621094 -18.1875 3.582031 -17.335938 3.582031 -15.925781 L 3.582031 -2.453125 C 3.582031 -1.042969 2.621094 -0.191406 1.066406 -0.191406 Z M 1.066406 -0.191406 "/></g></g></g><g fill="#ffffff" fill-opacity="1"><g transform="translate(295.65613, 127.948737)"><g><path d="M 4.007812 -15.289062 L 17.460938 0 L 17.675781 0 L 17.675781 -16.011719 C 17.738281 -18.292969 20.105469 -18.167969 20.105469 -18.167969 L 20.105469 -18.378906 L 15.054688 -18.378906 L 15.054688 -18.1875 C 15.054688 -18.167969 17.421875 -18.292969 17.484375 -16.011719 L 17.484375 -6.566406 L 7.058594 -18.378906 L 1.066406 -18.378906 L 1.066406 -18.167969 C 2.578125 -18.167969 3.433594 -17.398438 3.476562 -15.585938 L 3.476562 -2.34375 C 3.433594 -0.382812 1.640625 -0.214844 1.171875 -0.191406 L 1.066406 -0.191406 L 1.066406 0 L 6.097656 0 L 6.097656 -0.191406 L 5.992188 -0.191406 C 5.5 -0.214844 3.730469 -0.382812 3.667969 -2.34375 L 3.667969 -15.652344 Z M 4.007812 -15.289062 "/></g></g></g><g fill="#ffffff" fill-opacity="1"><g transform="translate(316.828082, 127.948737)"><g><path d="M 10.382812 0 C 11.492188 0 12.539062 -0.191406 13.539062 -0.554688 C 15.4375 -1.109375 17.484375 -0.980469 17.546875 -0.191406 L 17.738281 -0.191406 L 17.738281 -5.925781 C 17.78125 -7.269531 18.699219 -8.082031 20.171875 -8.082031 L 20.171875 -8.273438 L 10.980469 -8.273438 L 10.980469 -8.082031 C 12.367188 -8.082031 13.367188 -7.3125 13.390625 -5.90625 L 13.390625 -0.894531 C 12.601562 -0.554688 11.238281 -0.257812 10.382812 -0.257812 C 9.0625 -0.257812 5.414062 -1.128906 5.394531 -9.339844 C 5.414062 -17.546875 9.0625 -18.421875 10.382812 -18.421875 C 10.789062 -18.421875 11.726562 -18.335938 12.835938 -17.996094 C 15.160156 -17.207031 16.417969 -15.714844 16.480469 -13.453125 L 16.675781 -13.453125 L 16.675781 -18.484375 L 16.480469 -18.484375 C 16.417969 -17.675781 15.542969 -17.527344 13.539062 -18.125 C 12.539062 -18.484375 11.492188 -18.679688 10.382812 -18.679688 C 7.933594 -18.679688 5.628906 -17.71875 3.859375 -16.011719 C 2.152344 -14.285156 1.195312 -12.195312 1.066406 -9.894531 L 1.066406 -8.828125 C 1.34375 -3.878906 5.457031 0 10.382812 0 Z M 10.382812 0 "/></g></g></g><g fill="#ffffff" fill-opacity="1"><g transform="translate(338.064003, 127.948737)"><g><path d="M 1.066406 -0.191406 L 1.066406 0 L 16.503906 0 L 17.910156 -4.820312 L 17.71875 -4.820312 C 16.695312 -1.726562 14.179688 -0.191406 10.511719 -0.191406 C 8.957031 -0.191406 7.996094 -1.042969 7.996094 -2.453125 L 7.996094 -15.925781 C 7.996094 -17.335938 8.957031 -18.1875 10.511719 -18.1875 L 10.511719 -18.378906 L 1.066406 -18.378906 L 1.066406 -18.1875 C 2.621094 -18.1875 3.582031 -17.335938 3.582031 -15.925781 L 3.582031 -2.453125 C 3.582031 -1.042969 2.621094 -0.191406 1.066406 -0.191406 Z M 1.066406 -0.191406 "/></g></g></g><g fill="#ffffff" fill-opacity="1"><g transform="translate(357.03987, 127.948737)"><g><path d="M 1.066406 -0.191406 L 1.066406 0 L 10.511719 0 L 10.511719 -0.191406 C 8.957031 -0.191406 7.996094 -1.042969 7.996094 -2.453125 L 7.996094 -15.925781 C 7.996094 -17.335938 8.957031 -18.1875 10.511719 -18.1875 L 10.511719 -18.378906 L 1.066406 -18.378906 L 1.066406 -18.1875 C 2.621094 -18.1875 3.582031 -17.335938 3.582031 -15.925781 L 3.582031 -2.453125 C 3.582031 -1.042969 2.621094 -0.191406 1.066406 -0.191406 Z M 1.066406 -0.191406 "/></g></g></g><g fill="#ffffff" fill-opacity="1"><g transform="translate(368.617294, 127.948737)"><g><path d="M 4.328125 -0.511719 C 7.035156 0.511719 10.875 0.257812 12.6875 -1.554688 C 13.539062 -2.410156 14.179688 -3.945312 14.179688 -5.179688 C 14.179688 -8.933594 11.171875 -9.636719 7.675781 -11.792969 C 5.628906 -13.050781 4.648438 -14.050781 4.648438 -15.5 C 4.648438 -17.101562 5.4375 -18.335938 7.933594 -18.335938 C 8.914062 -18.335938 9.828125 -18.082031 10.574219 -17.65625 C 12.496094 -16.417969 12.601562 -12.878906 12.601562 -12.878906 L 12.792969 -12.878906 L 12.792969 -17.933594 L 12.601562 -17.933594 L 12.601562 -17.847656 C 12.515625 -17.035156 10.832031 -17.738281 10.105469 -18.101562 C 9.445312 -18.421875 8.699219 -18.527344 7.933594 -18.527344 C 5.375 -18.527344 2.898438 -17.144531 1.917969 -14.925781 C 0.832031 -12.496094 1.855469 -10.980469 5.054688 -8.59375 C 7.378906 -6.867188 11.8125 -5.4375 11.726562 -3.050781 C 11.664062 -1.449219 10.511719 -0.0859375 7.421875 -0.0859375 C 4.285156 -0.0859375 1.28125 -2.855469 1.28125 -5.609375 L 1.28125 -6.097656 L 1.085938 -6.097656 L 1.085938 0 L 1.28125 0 L 1.28125 -0.0195312 C 1.28125 -0.960938 1.449219 -1.621094 4.328125 -0.511719 Z M 4.328125 -0.511719 "/></g></g></g><g fill="#ffffff" fill-opacity="1"><g transform="translate(383.435529, 127.948737)"><g><path d="M 1.066406 -0.191406 L 1.066406 0 L 10.511719 0 L 10.511719 -0.191406 C 8.957031 -0.191406 7.996094 -1.042969 7.996094 -2.453125 L 7.996094 -8.636719 L 15.289062 -8.636719 L 15.289062 -2.453125 C 15.289062 -1.042969 14.328125 -0.191406 12.773438 -0.191406 L 12.773438 0 L 22.21875 0 L 22.21875 -0.191406 C 20.660156 -0.191406 19.703125 -1.042969 19.703125 -2.453125 L 19.703125 -15.925781 C 19.703125 -17.335938 20.660156 -18.1875 22.21875 -18.1875 L 22.21875 -18.378906 L 12.773438 -18.378906 L 12.773438 -18.1875 C 14.328125 -18.1875 15.289062 -17.335938 15.289062 -15.925781 L 15.289062 -8.828125 L 7.996094 -8.828125 L 7.996094 -15.925781 C 7.996094 -17.335938 8.957031 -18.1875 10.511719 -18.1875 L 10.511719 -18.378906 L 1.066406 -18.378906 L 1.066406 -18.1875 C 2.621094 -18.1875 3.582031 -17.335938 3.582031 -15.925781 L 3.582031 -2.453125 C 3.582031 -1.042969 2.621094 -0.191406 1.066406 -0.191406 Z M 1.066406 -0.191406 "/></g></g></g><g clip-path="url(#84fbcaa18b)"><path fill="#ffffff" d="M 42.542969 89.4375 L 67.195312 114.089844 C 67.691406 114.585938 68.136719 115.125 68.527344 115.710938 C 68.914062 116.292969 69.246094 116.910156 69.511719 117.558594 C 69.78125 118.207031 69.984375 118.875 70.121094 119.5625 C 70.257812 120.25 70.328125 120.945312 70.328125 121.648438 C 70.328125 122.351562 70.257812 123.042969 70.121094 123.734375 C 69.984375 124.421875 69.78125 125.089844 69.511719 125.738281 C 69.246094 126.386719 68.914062 127.003906 68.527344 127.585938 C 68.136719 128.167969 67.691406 128.710938 67.195312 129.207031 L 42.542969 153.859375 C 35.808594 160.59375 24.292969 155.820312 24.300781 146.292969 L 24.300781 96.988281 C 24.292969 87.476562 35.808594 82.703125 42.542969 89.4375 Z M 42.542969 89.4375 " fill-opacity="1" fill-rule="nonzero"/></g><g clip-path="url(#32338181d5)"><path fill="#ffffff" d="M 42.542969 89.4375 C 35.847656 82.742188 24.464844 87.421875 24.304688 96.828125 C 24.304688 96.828125 63.097656 133.535156 56.929688 139.515625 L 67.21875 129.226562 C 67.714844 128.730469 68.15625 128.191406 68.546875 127.609375 C 68.9375 127.023438 69.265625 126.40625 69.535156 125.761719 C 69.804688 125.113281 70.007812 124.441406 70.144531 123.753906 C 70.28125 123.066406 70.347656 122.371094 70.347656 121.667969 C 70.347656 120.96875 70.28125 120.273438 70.144531 119.585938 C 70.007812 118.894531 69.804688 118.226562 69.535156 117.578125 C 69.265625 116.929688 68.9375 116.316406 68.546875 115.730469 C 68.15625 115.148438 67.714844 114.609375 67.21875 114.113281 Z M 42.542969 89.4375 " fill-opacity="1" fill-rule="nonzero"/></g><g clip-path="url(#4c35f0addc)"><path fill="#ffffff" d="M 101 92.933594 C 101 93.390625 100.953125 93.84375 100.863281 94.296875 C 100.777344 94.746094 100.644531 95.179688 100.46875 95.605469 C 100.292969 96.027344 100.078125 96.429688 99.820312 96.8125 C 99.566406 97.195312 99.277344 97.546875 98.953125 97.871094 C 98.628906 98.195312 98.277344 98.484375 97.894531 98.738281 C 97.511719 98.996094 97.109375 99.210938 96.6875 99.386719 C 96.261719 99.5625 95.828125 99.695312 95.375 99.78125 C 94.925781 99.871094 94.472656 99.917969 94.015625 99.917969 C 93.554688 99.917969 93.101562 99.871094 92.652344 99.78125 C 92.203125 99.695312 91.765625 99.5625 91.339844 99.386719 C 90.917969 99.210938 90.515625 98.996094 90.132812 98.738281 C 89.753906 98.484375 89.398438 98.195312 89.074219 97.871094 C 88.75 97.546875 88.460938 97.195312 88.207031 96.8125 C 87.953125 96.429688 87.734375 96.027344 87.5625 95.605469 C 87.386719 95.179688 87.253906 94.746094 87.164062 94.296875 C 87.074219 93.84375 87.027344 93.390625 87.027344 92.933594 C 87.027344 92.472656 87.074219 92.019531 87.164062 91.570312 C 87.253906 91.121094 87.386719 90.683594 87.5625 90.257812 C 87.734375 89.835938 87.953125 89.433594 88.207031 89.050781 C 88.460938 88.671875 88.75 88.316406 89.074219 87.992188 C 89.398438 87.667969 89.753906 87.378906 90.132812 87.125 C 90.515625 86.871094 90.917969 86.65625 91.339844 86.480469 C 91.765625 86.304688 92.203125 86.171875 92.652344 86.082031 C 93.101562 85.992188 93.554688 85.945312 94.015625 85.945312 C 94.472656 85.945312 94.925781 85.992188 95.375 86.082031 C 95.828125 86.171875 96.261719 86.304688 96.6875 86.480469 C 97.109375 86.65625 97.511719 86.871094 97.894531 87.125 C 98.277344 87.378906 98.628906 87.667969 98.953125 87.992188 C 99.277344 88.316406 99.566406 88.671875 99.820312 89.050781 C 100.078125 89.433594 100.292969 89.835938 100.46875 90.257812 C 100.644531 90.683594 100.777344 91.121094 100.863281 91.570312 C 100.953125 92.019531 101 92.472656 101 92.933594 Z M 101 92.933594 " fill-opacity="1" fill-rule="nonzero"/><path fill="#ffffff" d="M 101 92.933594 C 101 93.390625 100.953125 93.84375 100.863281 94.296875 C 100.777344 94.746094 100.644531 95.179688 100.46875 95.605469 C 100.292969 96.027344 100.078125 96.429688 99.820312 96.8125 C 99.566406 97.195312 99.277344 97.546875 98.953125 97.871094 C 98.628906 98.195312 98.277344 98.484375 97.894531 98.738281 C 97.511719 98.996094 97.109375 99.210938 96.6875 99.386719 C 96.261719 99.5625 95.828125 99.695312 95.375 99.78125 C 94.925781 99.871094 94.472656 99.917969 94.015625 99.917969 C 93.554688 99.917969 93.101562 99.871094 92.652344 99.78125 C 92.203125 99.695312 91.765625 99.5625 91.339844 99.386719 C 90.917969 99.210938 90.515625 98.996094 90.132812 98.738281 C 89.753906 98.484375 89.398438 98.195312 89.074219 97.871094 C 88.75 97.546875 88.460938 97.195312 88.207031 96.8125 C 87.953125 96.429688 87.734375 96.027344 87.5625 95.605469 C 87.386719 95.179688 87.253906 94.746094 87.164062 94.296875 C 87.074219 93.84375 87.027344 93.390625 87.027344 92.933594 C 87.027344 92.472656 87.074219 92.019531 87.164062 91.570312 C 87.253906 91.121094 87.386719 90.683594 87.5625 90.257812 C 87.734375 89.835938 87.953125 89.433594 88.207031 89.050781 C 88.460938 88.671875 88.75 88.316406 89.074219 87.992188 C 89.398438 87.667969 89.753906 87.378906 90.132812 87.125 C 90.515625 86.871094 90.917969 86.65625 91.339844 86.480469 C 91.765625 86.304688 92.203125 86.171875 92.652344 86.082031 C 93.101562 85.992188 93.554688 85.945312 94.015625 85.945312 C 94.472656 85.945312 94.925781 85.992188 95.375 86.082031 C 95.828125 86.171875 96.261719 86.304688 96.6875 86.480469 C 97.109375 86.65625 97.511719 86.871094 97.894531 87.125 C 98.277344 87.378906 98.628906 87.667969 98.953125 87.992188 C 99.277344 88.316406 99.566406 88.671875 99.820312 89.050781 C 100.078125 89.433594 100.292969 89.835938 100.46875 90.257812 C 100.644531 90.683594 100.777344 91.121094 100.863281 91.570312 C 100.953125 92.019531 101 92.472656 101 92.933594 Z M 101 92.933594 " fill-opacity="1" fill-rule="nonzero"/></g><g clip-path="url(#469030fe5c)"><path fill="#ffffff" d="M 97.867188 114.152344 L 73.210938 89.496094 C 66.59375 82.875 48.953125 90.554688 54.992188 96.59375 L 72.71875 114.324219 C 73.214844 114.820312 73.660156 115.359375 74.050781 115.945312 C 74.4375 116.527344 74.769531 117.144531 75.039062 117.792969 C 75.304688 118.441406 75.507812 119.109375 75.644531 119.796875 C 75.78125 120.484375 75.851562 121.179688 75.851562 121.878906 C 75.851562 122.582031 75.78125 123.277344 75.644531 123.964844 C 75.507812 124.652344 75.304688 125.320312 75.039062 125.96875 C 74.769531 126.617188 74.4375 127.234375 74.050781 127.816406 C 73.660156 128.398438 73.214844 128.941406 72.71875 129.4375 L 55 147.160156 C 49.601562 152.554688 66.660156 160.515625 73.210938 153.960938 L 97.867188 129.308594 C 98.363281 128.8125 98.8125 128.273438 99.203125 127.6875 C 99.597656 127.101562 99.929688 126.484375 100.199219 125.835938 C 100.46875 125.183594 100.671875 124.511719 100.8125 123.824219 C 100.949219 123.132812 101.019531 122.433594 101.019531 121.730469 C 101.019531 121.027344 100.949219 120.328125 100.8125 119.636719 C 100.671875 118.945312 100.46875 118.277344 100.199219 117.625 C 99.929688 116.976562 99.597656 116.359375 99.203125 115.773438 C 98.8125 115.1875 98.363281 114.648438 97.867188 114.152344 Z M 97.867188 114.152344 " fill-opacity="1" fill-rule="nonzero"/></g><g clip-path="url(#bf892801a0)"><path fill="#ffffff" d="M 97.867188 114.152344 L 73.210938 89.496094 C 66.59375 82.875 48.953125 90.554688 54.992188 96.59375 L 72.71875 114.324219 C 73.574219 115.179688 74.265625 116.152344 74.789062 117.242188 C 75.3125 118.332031 75.644531 119.480469 75.777344 120.679688 C 81.882812 127.851562 86.964844 134.816406 88.019531 139.15625 L 97.882812 129.292969 C 98.378906 128.796875 98.824219 128.253906 99.214844 127.671875 C 99.605469 127.085938 99.9375 126.46875 100.203125 125.820312 C 100.472656 125.167969 100.675781 124.5 100.8125 123.808594 C 100.949219 123.117188 101.019531 122.421875 101.019531 121.71875 C 101.015625 121.015625 100.949219 120.320312 100.808594 119.628906 C 100.671875 118.9375 100.464844 118.269531 100.195312 117.621094 C 99.925781 116.972656 99.59375 116.355469 99.203125 115.769531 C 98.808594 115.1875 98.363281 114.644531 97.867188 114.152344 Z M 97.867188 114.152344 " fill-opacity="1" fill-rule="nonzero"/></g></svg>