<svg xmlns="http://www.w3.org/2000/svg" xmlns:xlink="http://www.w3.org/1999/xlink" width="500" zoomAndPan="magnify" viewBox="0 0 375 374.999991" height="500" preserveAspectRatio="xMidYMid meet" version="1.0"><defs><g/><clipPath id="6427d29cdb"><path d="M 69.253906 38 L 212 38 L 212 257 L 69.253906 257 Z M 69.253906 38 " clip-rule="nonzero"/></clipPath><clipPath id="bece76e95a"><path d="M 69.253906 38 L 212 38 L 212 203 L 69.253906 203 Z M 69.253906 38 " clip-rule="nonzero"/></clipPath><clipPath id="74f8a18ad9"><path d="M 262 37.5 L 305.503906 37.5 L 305.503906 81 L 262 81 Z M 262 37.5 " clip-rule="nonzero"/></clipPath><clipPath id="a4eb08a8b1"><path d="M 160 40 L 305.503906 40 L 305.503906 256 L 160 256 Z M 160 40 " clip-rule="nonzero"/></clipPath><clipPath id="d9514be7f6"><path d="M 160 40 L 305.503906 40 L 305.503906 202 L 160 202 Z M 160 40 " clip-rule="nonzero"/></clipPath><clipPath id="a7ed272290"><path d="M 110 306.648438 L 265 306.648438 L 265 308.898438 L 110 308.898438 Z M 110 306.648438 " clip-rule="nonzero"/></clipPath></defs><g clip-path="url(#6427d29cdb)"><path fill="#72ffff" d="M 125.503906 48.507812 L 201.515625 124.519531 C 202.28125 125.28125 203.003906 126.082031 203.6875 126.917969 C 204.371094 127.75 205.015625 128.617188 205.613281 129.511719 C 206.214844 130.410156 206.769531 131.335938 207.277344 132.289062 C 207.785156 133.238281 208.246094 134.214844 208.660156 135.210938 C 209.074219 136.207031 209.4375 137.222656 209.75 138.257812 C 210.0625 139.289062 210.324219 140.335938 210.535156 141.394531 C 210.746094 142.453125 210.902344 143.519531 211.007812 144.59375 C 211.113281 145.664062 211.167969 146.742188 211.167969 147.820312 C 211.167969 148.902344 211.113281 149.976562 211.007812 151.050781 C 210.902344 152.125 210.746094 153.191406 210.535156 154.25 C 210.324219 155.308594 210.0625 156.355469 209.75 157.386719 C 209.4375 158.421875 209.074219 159.4375 208.660156 160.433594 C 208.246094 161.429688 207.785156 162.40625 207.277344 163.355469 C 206.769531 164.308594 206.214844 165.234375 205.613281 166.128906 C 205.015625 167.027344 204.371094 167.894531 203.6875 168.726562 C 203.003906 169.5625 202.28125 170.359375 201.515625 171.125 L 125.503906 247.136719 C 104.742188 267.898438 69.238281 253.183594 69.253906 223.808594 L 69.253906 71.785156 C 69.238281 42.460938 104.742188 27.746094 125.503906 48.507812 Z M 125.503906 48.507812 " fill-opacity="1" fill-rule="nonzero"/></g><g clip-path="url(#bece76e95a)"><path fill="#00d7ff" d="M 125.503906 48.507812 C 104.863281 27.867188 69.761719 42.289062 69.269531 71.292969 C 69.269531 71.292969 188.882812 184.46875 169.859375 202.914062 L 201.582031 171.191406 C 202.347656 170.429688 203.070312 169.628906 203.753906 168.796875 C 204.441406 167.960938 205.082031 167.09375 205.683594 166.199219 C 206.28125 165.300781 206.835938 164.375 207.34375 163.421875 C 207.851562 162.472656 208.3125 161.496094 208.726562 160.5 C 209.140625 159.503906 209.503906 158.488281 209.816406 157.457031 C 210.128906 156.421875 210.390625 155.375 210.601562 154.316406 C 210.8125 153.257812 210.972656 152.195312 211.078125 151.121094 C 211.183594 150.046875 211.234375 148.96875 211.234375 147.890625 C 211.234375 146.808594 211.183594 145.734375 211.078125 144.660156 C 210.972656 143.585938 210.8125 142.519531 210.601562 141.460938 C 210.390625 140.402344 210.128906 139.355469 209.816406 138.324219 C 209.503906 137.289062 209.140625 136.277344 208.726562 135.277344 C 208.3125 134.28125 207.851562 133.308594 207.34375 132.355469 C 206.835938 131.402344 206.28125 130.476562 205.683594 129.582031 C 205.082031 128.683594 204.441406 127.816406 203.753906 126.984375 C 203.070312 126.148438 202.347656 125.351562 201.582031 124.585938 Z M 125.503906 48.507812 " fill-opacity="1" fill-rule="nonzero"/></g><g clip-path="url(#74f8a18ad9)"><path fill="#590696" d="M 305.738281 59.285156 C 305.738281 59.988281 305.703125 60.691406 305.632812 61.394531 C 305.566406 62.097656 305.460938 62.792969 305.324219 63.484375 C 305.1875 64.175781 305.015625 64.859375 304.8125 65.535156 C 304.605469 66.210938 304.367188 66.875 304.097656 67.527344 C 303.828125 68.175781 303.527344 68.8125 303.195312 69.4375 C 302.863281 70.058594 302.5 70.664062 302.109375 71.25 C 301.71875 71.835938 301.296875 72.402344 300.851562 72.945312 C 300.402344 73.492188 299.929688 74.015625 299.429688 74.511719 C 298.929688 75.011719 298.410156 75.484375 297.863281 75.933594 C 297.320312 76.378906 296.753906 76.800781 296.167969 77.191406 C 295.582031 77.582031 294.976562 77.945312 294.355469 78.277344 C 293.730469 78.609375 293.09375 78.910156 292.441406 79.179688 C 291.792969 79.453125 291.128906 79.6875 290.453125 79.894531 C 289.777344 80.097656 289.09375 80.269531 288.402344 80.40625 C 287.710938 80.542969 287.015625 80.648438 286.3125 80.71875 C 285.609375 80.785156 284.90625 80.820312 284.203125 80.820312 C 283.496094 80.820312 282.792969 80.785156 282.089844 80.71875 C 281.386719 80.648438 280.691406 80.542969 280 80.40625 C 279.308594 80.269531 278.625 80.097656 277.949219 79.894531 C 277.273438 79.6875 276.609375 79.453125 275.960938 79.179688 C 275.308594 78.910156 274.671875 78.609375 274.050781 78.277344 C 273.425781 77.945312 272.824219 77.582031 272.234375 77.191406 C 271.648438 76.800781 271.082031 76.378906 270.539062 75.933594 C 269.992188 75.484375 269.472656 75.011719 268.972656 74.511719 C 268.472656 74.015625 268 73.492188 267.554688 72.945312 C 267.105469 72.402344 266.6875 71.835938 266.292969 71.25 C 265.902344 70.664062 265.539062 70.058594 265.207031 69.4375 C 264.875 68.8125 264.574219 68.175781 264.304688 67.527344 C 264.035156 66.875 263.796875 66.210938 263.59375 65.535156 C 263.386719 64.859375 263.214844 64.175781 263.078125 63.484375 C 262.941406 62.792969 262.835938 62.097656 262.769531 61.394531 C 262.699219 60.691406 262.664062 59.988281 262.664062 59.285156 C 262.664062 58.578125 262.699219 57.875 262.769531 57.171875 C 262.835938 56.472656 262.941406 55.773438 263.078125 55.082031 C 263.214844 54.390625 263.386719 53.707031 263.59375 53.03125 C 263.796875 52.355469 264.035156 51.695312 264.304688 51.042969 C 264.574219 50.390625 264.875 49.753906 265.207031 49.132812 C 265.539062 48.507812 265.902344 47.90625 266.292969 47.320312 C 266.6875 46.730469 267.105469 46.167969 267.554688 45.621094 C 268 45.074219 268.472656 44.554688 268.972656 44.054688 C 269.472656 43.554688 269.992188 43.082031 270.539062 42.636719 C 271.082031 42.1875 271.648438 41.769531 272.234375 41.375 C 272.824219 40.984375 273.425781 40.621094 274.050781 40.289062 C 274.671875 39.957031 275.308594 39.65625 275.960938 39.386719 C 276.609375 39.117188 277.273438 38.878906 277.949219 38.675781 C 278.625 38.46875 279.308594 38.296875 280 38.160156 C 280.691406 38.023438 281.386719 37.917969 282.089844 37.851562 C 282.792969 37.78125 283.496094 37.746094 284.203125 37.746094 C 284.90625 37.746094 285.609375 37.78125 286.3125 37.851562 C 287.015625 37.917969 287.710938 38.023438 288.402344 38.160156 C 289.09375 38.296875 289.777344 38.46875 290.453125 38.675781 C 291.128906 38.878906 291.792969 39.117188 292.441406 39.386719 C 293.09375 39.65625 293.730469 39.957031 294.355469 40.289062 C 294.976562 40.621094 295.582031 40.984375 296.167969 41.375 C 296.753906 41.769531 297.320312 42.1875 297.863281 42.636719 C 298.410156 43.082031 298.929688 43.554688 299.429688 44.054688 C 299.929688 44.554688 300.402344 45.074219 300.851562 45.621094 C 301.296875 46.167969 301.71875 46.730469 302.109375 47.320312 C 302.5 47.90625 302.863281 48.507812 303.195312 49.132812 C 303.527344 49.753906 303.828125 50.390625 304.097656 51.042969 C 304.367188 51.695312 304.605469 52.355469 304.8125 53.03125 C 305.015625 53.707031 305.1875 54.390625 305.324219 55.082031 C 305.460938 55.773438 305.566406 56.472656 305.632812 57.171875 C 305.703125 57.875 305.738281 58.578125 305.738281 59.285156 Z M 305.738281 59.285156 " fill-opacity="1" fill-rule="nonzero"/><path fill="#590696" d="M 305.738281 59.285156 C 305.738281 59.988281 305.703125 60.691406 305.632812 61.394531 C 305.566406 62.097656 305.460938 62.792969 305.324219 63.484375 C 305.1875 64.175781 305.015625 64.859375 304.8125 65.535156 C 304.605469 66.210938 304.367188 66.875 304.097656 67.527344 C 303.828125 68.175781 303.527344 68.8125 303.195312 69.4375 C 302.863281 70.058594 302.5 70.664062 302.109375 71.25 C 301.71875 71.835938 301.296875 72.402344 300.851562 72.945312 C 300.402344 73.492188 299.929688 74.015625 299.429688 74.511719 C 298.929688 75.011719 298.410156 75.484375 297.863281 75.933594 C 297.320312 76.378906 296.753906 76.800781 296.167969 77.191406 C 295.582031 77.582031 294.976562 77.945312 294.355469 78.277344 C 293.730469 78.609375 293.09375 78.910156 292.441406 79.179688 C 291.792969 79.453125 291.128906 79.6875 290.453125 79.894531 C 289.777344 80.097656 289.09375 80.269531 288.402344 80.40625 C 287.710938 80.542969 287.015625 80.648438 286.3125 80.71875 C 285.609375 80.785156 284.90625 80.820312 284.203125 80.820312 C 283.496094 80.820312 282.792969 80.785156 282.089844 80.71875 C 281.386719 80.648438 280.691406 80.542969 280 80.40625 C 279.308594 80.269531 278.625 80.097656 277.949219 79.894531 C 277.273438 79.6875 276.609375 79.453125 275.960938 79.179688 C 275.308594 78.910156 274.671875 78.609375 274.050781 78.277344 C 273.425781 77.945312 272.824219 77.582031 272.234375 77.191406 C 271.648438 76.800781 271.082031 76.378906 270.539062 75.933594 C 269.992188 75.484375 269.472656 75.011719 268.972656 74.511719 C 268.472656 74.015625 268 73.492188 267.554688 72.945312 C 267.105469 72.402344 266.6875 71.835938 266.292969 71.25 C 265.902344 70.664062 265.539062 70.058594 265.207031 69.4375 C 264.875 68.8125 264.574219 68.175781 264.304688 67.527344 C 264.035156 66.875 263.796875 66.210938 263.59375 65.535156 C 263.386719 64.859375 263.214844 64.175781 263.078125 63.484375 C 262.941406 62.792969 262.835938 62.097656 262.769531 61.394531 C 262.699219 60.691406 262.664062 59.988281 262.664062 59.285156 C 262.664062 58.578125 262.699219 57.875 262.769531 57.171875 C 262.835938 56.472656 262.941406 55.773438 263.078125 55.082031 C 263.214844 54.390625 263.386719 53.707031 263.59375 53.03125 C 263.796875 52.355469 264.035156 51.695312 264.304688 51.042969 C 264.574219 50.390625 264.875 49.753906 265.207031 49.132812 C 265.539062 48.507812 265.902344 47.90625 266.292969 47.320312 C 266.6875 46.730469 267.105469 46.167969 267.554688 45.621094 C 268 45.074219 268.472656 44.554688 268.972656 44.054688 C 269.472656 43.554688 269.992188 43.082031 270.539062 42.636719 C 271.082031 42.1875 271.648438 41.769531 272.234375 41.375 C 272.824219 40.984375 273.425781 40.621094 274.050781 40.289062 C 274.671875 39.957031 275.308594 39.65625 275.960938 39.386719 C 276.609375 39.117188 277.273438 38.878906 277.949219 38.675781 C 278.625 38.46875 279.308594 38.296875 280 38.160156 C 280.691406 38.023438 281.386719 37.917969 282.089844 37.851562 C 282.792969 37.78125 283.496094 37.746094 284.203125 37.746094 C 284.90625 37.746094 285.609375 37.78125 286.3125 37.851562 C 287.015625 37.917969 287.710938 38.023438 288.402344 38.160156 C 289.09375 38.296875 289.777344 38.46875 290.453125 38.675781 C 291.128906 38.878906 291.792969 39.117188 292.441406 39.386719 C 293.09375 39.65625 293.730469 39.957031 294.355469 40.289062 C 294.976562 40.621094 295.582031 40.984375 296.167969 41.375 C 296.753906 41.769531 297.320312 42.1875 297.863281 42.636719 C 298.410156 43.082031 298.929688 43.554688 299.429688 44.054688 C 299.929688 44.554688 300.402344 45.074219 300.851562 45.621094 C 301.296875 46.167969 301.71875 46.730469 302.109375 47.320312 C 302.5 47.90625 302.863281 48.507812 303.195312 49.132812 C 303.527344 49.753906 303.828125 50.390625 304.097656 51.042969 C 304.367188 51.695312 304.605469 52.355469 304.8125 53.03125 C 305.015625 53.707031 305.1875 54.390625 305.324219 55.082031 C 305.460938 55.773438 305.566406 56.472656 305.632812 57.171875 C 305.703125 57.875 305.738281 58.578125 305.738281 59.285156 Z M 305.738281 59.285156 " fill-opacity="1" fill-rule="nonzero"/></g><g clip-path="url(#a4eb08a8b1)"><path fill="#0096ff" d="M 296.078125 124.707031 L 220.0625 48.691406 C 199.660156 28.269531 145.265625 51.953125 163.882812 70.566406 L 218.542969 125.246094 C 219.308594 126.007812 220.03125 126.808594 220.714844 127.640625 C 221.402344 128.472656 222.042969 129.339844 222.644531 130.238281 C 223.242188 131.132812 223.796875 132.058594 224.308594 133.007812 C 224.816406 133.960938 225.277344 134.933594 225.691406 135.933594 C 226.105469 136.929688 226.46875 137.941406 226.78125 138.976562 C 227.09375 140.007812 227.355469 141.054688 227.566406 142.113281 C 227.777344 143.171875 227.9375 144.238281 228.042969 145.308594 C 228.148438 146.382812 228.199219 147.460938 228.199219 148.539062 C 228.199219 149.617188 228.148438 150.695312 228.042969 151.769531 C 227.9375 152.84375 227.777344 153.910156 227.566406 154.96875 C 227.355469 156.027344 227.09375 157.070312 226.78125 158.105469 C 226.46875 159.136719 226.105469 160.152344 225.691406 161.148438 C 225.277344 162.144531 224.816406 163.117188 224.308594 164.070312 C 223.796875 165.023438 223.242188 165.945312 222.644531 166.84375 C 222.042969 167.738281 221.402344 168.605469 220.714844 169.4375 C 220.03125 170.273438 219.308594 171.070312 218.542969 171.832031 L 163.914062 226.476562 C 147.261719 243.117188 199.859375 267.660156 220.0625 247.457031 L 296.078125 171.445312 C 296.84375 170.679688 297.574219 169.882812 298.261719 169.046875 C 298.953125 168.210938 299.597656 167.34375 300.203125 166.441406 C 300.804688 165.542969 301.363281 164.617188 301.875 163.664062 C 302.390625 162.707031 302.851562 161.730469 303.269531 160.730469 C 303.683594 159.730469 304.050781 158.710938 304.367188 157.675781 C 304.683594 156.640625 304.945312 155.589844 305.15625 154.527344 C 305.371094 153.464844 305.527344 152.394531 305.636719 151.316406 C 305.742188 150.238281 305.796875 149.160156 305.796875 148.074219 C 305.796875 146.992188 305.742188 145.910156 305.636719 144.832031 C 305.527344 143.753906 305.371094 142.683594 305.15625 141.621094 C 304.945312 140.558594 304.683594 139.511719 304.367188 138.476562 C 304.050781 137.4375 303.683594 136.421875 303.269531 135.421875 C 302.851562 134.421875 302.390625 133.441406 301.875 132.488281 C 301.363281 131.535156 300.804688 130.605469 300.203125 129.707031 C 299.597656 128.808594 298.953125 127.941406 298.261719 127.105469 C 297.574219 126.269531 296.84375 125.46875 296.078125 124.707031 Z M 296.078125 124.707031 " fill-opacity="1" fill-rule="nonzero"/></g><g clip-path="url(#d9514be7f6)"><path fill="#5800ff" d="M 296.078125 124.707031 L 220.0625 48.691406 C 199.660156 28.269531 145.265625 51.953125 163.882812 70.566406 L 218.542969 125.246094 C 221.183594 127.882812 223.308594 130.878906 224.925781 134.238281 C 226.542969 137.601562 227.558594 141.132812 227.96875 144.839844 C 246.804688 166.953125 262.460938 188.421875 265.722656 201.800781 L 296.128906 171.394531 C 296.890625 170.628906 297.617188 169.828125 298.304688 168.992188 C 298.992188 168.15625 299.636719 167.289062 300.238281 166.390625 C 300.839844 165.492188 301.394531 164.566406 301.902344 163.609375 C 302.414062 162.65625 302.875 161.679688 303.289062 160.679688 C 303.703125 159.679688 304.066406 158.664062 304.378906 157.628906 C 304.695312 156.59375 304.957031 155.542969 305.167969 154.484375 C 305.375 153.421875 305.535156 152.355469 305.640625 151.277344 C 305.746094 150.199219 305.796875 149.121094 305.796875 148.039062 C 305.792969 146.957031 305.738281 145.878906 305.632812 144.800781 C 305.523438 143.726562 305.363281 142.65625 305.152344 141.597656 C 304.941406 140.535156 304.675781 139.488281 304.359375 138.453125 C 304.042969 137.417969 303.679688 136.402344 303.261719 135.402344 C 302.847656 134.40625 302.382812 133.429688 301.871094 132.476562 C 301.359375 131.523438 300.800781 130.597656 300.195312 129.699219 C 299.59375 128.800781 298.949219 127.9375 298.257812 127.101562 C 297.570312 126.265625 296.84375 125.46875 296.078125 124.707031 Z M 296.078125 124.707031 " fill-opacity="1" fill-rule="nonzero"/></g><g fill="#ffffff" fill-opacity="1"><g transform="translate(59.637838, 298.451229)"><g><path d="M 6.523438 -26.417969 L 17.105469 -0.0351562 L 25.394531 -20.878906 L 33.789062 -0.0351562 L 44.265625 -26.382812 C 45.179688 -28.710938 47.015625 -30.085938 49.800781 -30.085938 L 49.800781 -30.402344 L 41.441406 -30.402344 L 41.441406 -30.085938 C 43.945312 -30.085938 44.828125 -28.710938 43.910156 -26.382812 L 37.351562 -9.839844 L 30.863281 -26.382812 C 29.945312 -28.710938 30.613281 -30.085938 32.730469 -30.085938 L 32.730469 -30.402344 L 18.445312 -30.402344 L 18.445312 -30.085938 C 20.667969 -29.980469 22.148438 -29.027344 23.207031 -26.382812 L 25.21875 -21.339844 L 20.667969 -9.839844 L 14.214844 -26.382812 C 13.261719 -28.816406 13.859375 -30.015625 16.082031 -30.085938 L 16.082031 -30.402344 L 1.761719 -30.402344 L 1.761719 -30.085938 C 3.984375 -30.015625 5.574219 -28.816406 6.523438 -26.417969 Z M 6.523438 -26.417969 "/></g></g></g><g fill="#ffffff" fill-opacity="1"><g transform="translate(111.187571, 298.451229)"><g><path d="M 1.761719 -0.316406 L 1.761719 0 L 27.300781 0 L 29.625 -7.972656 L 29.308594 -7.972656 C 27.617188 -2.855469 23.453125 -0.316406 17.386719 -0.316406 C 14.8125 -0.316406 13.226562 -1.726562 13.226562 -4.054688 L 13.226562 -15.800781 L 18.515625 -15.800781 C 21.761719 -15.695312 22.078125 -12.769531 22.078125 -11.957031 L 22.078125 -11.78125 L 22.398438 -11.78125 L 22.398438 -20.105469 L 22.078125 -20.105469 L 22.078125 -19.925781 C 22.078125 -19.117188 21.761719 -16.1875 18.515625 -16.117188 L 13.226562 -16.117188 L 13.261719 -30.085938 L 15.800781 -30.085938 C 24.335938 -30.085938 26.171875 -24.867188 26.523438 -23.066406 L 26.628906 -22.433594 L 26.910156 -22.574219 L 25.710938 -30.402344 L 1.761719 -30.402344 L 1.761719 -30.085938 C 4.339844 -30.085938 5.925781 -28.675781 5.925781 -26.347656 L 5.925781 -4.054688 C 5.925781 -1.726562 4.339844 -0.316406 1.761719 -0.316406 Z M 1.761719 -0.316406 "/></g></g></g><g fill="#ffffff" fill-opacity="1"><g transform="translate(142.568729, 298.451229)"><g><path d="M 1.761719 -0.316406 L 1.761719 0 L 27.300781 0 L 29.625 -7.972656 L 29.308594 -7.972656 C 27.617188 -2.855469 23.453125 -0.316406 17.386719 -0.316406 C 14.8125 -0.316406 13.226562 -1.726562 13.226562 -4.054688 L 13.226562 -26.347656 C 13.226562 -28.675781 14.8125 -30.085938 17.386719 -30.085938 L 17.386719 -30.402344 L 1.761719 -30.402344 L 1.761719 -30.085938 C 4.339844 -30.085938 5.925781 -28.675781 5.925781 -26.347656 L 5.925781 -4.054688 C 5.925781 -1.726562 4.339844 -0.316406 1.761719 -0.316406 Z M 1.761719 -0.316406 "/></g></g></g><g fill="#ffffff" fill-opacity="1"><g transform="translate(173.949886, 298.451229)"><g><path d="M 1.761719 -0.316406 L 1.761719 0 L 27.300781 0 L 29.625 -7.972656 L 29.308594 -7.972656 C 27.617188 -2.855469 23.453125 -0.316406 17.386719 -0.316406 C 14.8125 -0.316406 13.226562 -1.726562 13.226562 -4.054688 L 13.226562 -15.800781 L 18.515625 -15.800781 C 21.761719 -15.695312 22.078125 -12.769531 22.078125 -11.957031 L 22.078125 -11.78125 L 22.398438 -11.78125 L 22.398438 -20.105469 L 22.078125 -20.105469 L 22.078125 -19.925781 C 22.078125 -19.117188 21.761719 -16.1875 18.515625 -16.117188 L 13.226562 -16.117188 L 13.261719 -30.085938 L 15.800781 -30.085938 C 24.335938 -30.085938 26.171875 -24.867188 26.523438 -23.066406 L 26.628906 -22.433594 L 26.910156 -22.574219 L 25.710938 -30.402344 L 1.761719 -30.402344 L 1.761719 -30.085938 C 4.339844 -30.085938 5.925781 -28.675781 5.925781 -26.347656 L 5.925781 -4.054688 C 5.925781 -1.726562 4.339844 -0.316406 1.761719 -0.316406 Z M 1.761719 -0.316406 "/></g></g></g><g fill="#ffffff" fill-opacity="1"><g transform="translate(205.331044, 298.451229)"><g><path d="M 1.761719 -0.316406 L 1.761719 0 L 10.085938 0 L 10.085938 -0.316406 L 9.980469 -0.316406 C 9.382812 -0.351562 6.347656 -0.707031 9.027344 -6.59375 L 10.191406 -9.136719 L 21.902344 -9.136719 L 24.230469 -4.019531 C 25.78125 -0.636719 23.207031 -0.351562 22.503906 -0.316406 L 22.324219 -0.316406 L 22.324219 0 L 36.644531 0 L 36.644531 -0.316406 L 36.46875 -0.316406 C 35.765625 -0.351562 33.046875 -0.671875 31.53125 -4.019531 L 19.503906 -30.402344 L 15.871094 -22.359375 L 8.675781 -6.59375 C 6.3125 -1.339844 3.5625 -0.457031 2.363281 -0.316406 Z M 21.761719 -9.453125 L 10.335938 -9.453125 L 16.046875 -21.972656 Z M 21.761719 -9.453125 "/></g></g></g><g fill="#ffffff" fill-opacity="1"><g transform="translate(243.728889, 298.451229)"><g><path d="M 1.761719 -0.316406 L 1.761719 0 L 17 0 L 17 -0.316406 C 14.355469 -0.316406 13.226562 -1.480469 13.226562 -3.984375 L 13.226562 -14.53125 L 17.246094 -14.53125 C 19.785156 -14.53125 19.046875 -12.945312 21.160156 -7.511719 C 23.347656 -1.90625 25.851562 0 28.5 0 L 34.847656 0 L 34.847656 -0.316406 C 31.671875 -0.316406 30.15625 -1.835938 28.355469 -7.511719 C 26.628906 -12.945312 24.972656 -14.53125 20 -14.8125 C 24.265625 -15.519531 28.109375 -17.882812 28.109375 -22.574219 C 28.109375 -28.25 22.75 -30.402344 17.035156 -30.402344 L 1.761719 -30.402344 L 1.761719 -30.085938 L 2.1875 -30.085938 C 3.246094 -30.050781 5.925781 -29.589844 5.925781 -26.347656 L 5.925781 -4.054688 C 5.925781 -1.480469 4.410156 -0.316406 1.761719 -0.316406 Z M 17.035156 -14.882812 L 13.226562 -14.882812 L 13.226562 -30.085938 L 17.035156 -30.085938 C 19.574219 -30.085938 20.914062 -26.839844 20.914062 -22.574219 C 20.914062 -18.269531 19.574219 -14.882812 17.035156 -14.882812 Z M 17.035156 -14.882812 "/></g></g></g><g fill="#ffffff" fill-opacity="1"><g transform="translate(280.328493, 298.451229)"><g><path d="M 6.628906 -25.289062 L 28.886719 0 L 29.238281 0 L 29.238281 -26.488281 C 29.34375 -30.261719 33.257812 -30.050781 33.257812 -30.050781 L 33.257812 -30.402344 L 24.902344 -30.402344 L 24.902344 -30.085938 C 24.902344 -30.050781 28.816406 -30.261719 28.921875 -26.488281 L 28.921875 -10.863281 L 11.675781 -30.402344 L 1.761719 -30.402344 L 1.761719 -30.050781 C 4.269531 -30.050781 5.679688 -28.78125 5.75 -25.78125 L 5.75 -3.878906 C 5.679688 -0.636719 2.714844 -0.351562 1.941406 -0.316406 L 1.761719 -0.316406 L 1.761719 0 L 10.085938 0 L 10.085938 -0.316406 L 9.910156 -0.316406 C 9.101562 -0.351562 6.171875 -0.636719 6.066406 -3.878906 L 6.066406 -25.886719 Z M 6.628906 -25.289062 "/></g></g></g><g fill="#ffffff" fill-opacity="1"><g transform="translate(79.970017, 347.525492)"><g><path d="M 1.761719 -0.316406 L 1.761719 0 L 27.300781 0 L 29.625 -7.972656 L 29.308594 -7.972656 C 27.617188 -2.855469 23.453125 -0.316406 17.386719 -0.316406 C 14.8125 -0.316406 13.226562 -1.726562 13.226562 -4.054688 L 13.226562 -15.800781 L 18.515625 -15.800781 C 21.761719 -15.695312 22.078125 -12.769531 22.078125 -11.957031 L 22.078125 -11.78125 L 22.398438 -11.78125 L 22.398438 -20.105469 L 22.078125 -20.105469 L 22.078125 -19.925781 C 22.078125 -19.117188 21.761719 -16.1875 18.515625 -16.117188 L 13.226562 -16.117188 L 13.261719 -30.085938 L 15.800781 -30.085938 C 24.335938 -30.085938 26.171875 -24.867188 26.523438 -23.066406 L 26.628906 -22.433594 L 26.910156 -22.574219 L 25.710938 -30.402344 L 1.761719 -30.402344 L 1.761719 -30.085938 C 4.339844 -30.085938 5.925781 -28.675781 5.925781 -26.347656 L 5.925781 -4.054688 C 5.925781 -1.726562 4.339844 -0.316406 1.761719 -0.316406 Z M 1.761719 -0.316406 "/></g></g></g><g fill="#ffffff" fill-opacity="1"><g transform="translate(111.351175, 347.525492)"><g><path d="M 6.628906 -25.289062 L 28.886719 0 L 29.238281 0 L 29.238281 -26.488281 C 29.34375 -30.261719 33.257812 -30.050781 33.257812 -30.050781 L 33.257812 -30.402344 L 24.902344 -30.402344 L 24.902344 -30.085938 C 24.902344 -30.050781 28.816406 -30.261719 28.921875 -26.488281 L 28.921875 -10.863281 L 11.675781 -30.402344 L 1.761719 -30.402344 L 1.761719 -30.050781 C 4.269531 -30.050781 5.679688 -28.78125 5.75 -25.78125 L 5.75 -3.878906 C 5.679688 -0.636719 2.714844 -0.351562 1.941406 -0.316406 L 1.761719 -0.316406 L 1.761719 0 L 10.085938 0 L 10.085938 -0.316406 L 9.910156 -0.316406 C 9.101562 -0.351562 6.171875 -0.636719 6.066406 -3.878906 L 6.066406 -25.886719 Z M 6.628906 -25.289062 "/></g></g></g><g fill="#ffffff" fill-opacity="1"><g transform="translate(146.364092, 347.525492)"><g><path d="M 17.175781 0 C 19.011719 0 20.738281 -0.316406 22.398438 -0.917969 C 25.535156 -1.835938 28.921875 -1.621094 29.027344 -0.316406 L 29.34375 -0.316406 L 29.34375 -9.804688 C 29.414062 -12.027344 30.933594 -13.367188 33.367188 -13.367188 L 33.367188 -13.683594 L 18.164062 -13.683594 L 18.164062 -13.367188 C 20.457031 -13.367188 22.113281 -12.097656 22.148438 -9.769531 L 22.148438 -1.480469 C 20.84375 -0.917969 18.585938 -0.421875 17.175781 -0.421875 C 14.988281 -0.421875 8.957031 -1.871094 8.921875 -15.449219 C 8.957031 -29.027344 14.988281 -30.472656 17.175781 -30.472656 C 17.847656 -30.472656 19.398438 -30.332031 21.234375 -29.769531 C 25.078125 -28.464844 27.15625 -25.992188 27.265625 -22.253906 L 27.582031 -22.253906 L 27.582031 -30.578125 L 27.265625 -30.578125 C 27.15625 -29.238281 25.710938 -28.992188 22.398438 -29.980469 C 20.738281 -30.578125 19.011719 -30.898438 17.175781 -30.898438 C 13.121094 -30.898438 9.3125 -29.308594 6.382812 -26.488281 C 3.5625 -23.632812 1.976562 -20.175781 1.761719 -16.367188 L 1.761719 -14.601562 C 2.222656 -6.417969 9.027344 0 17.175781 0 Z M 17.175781 0 "/></g></g></g><g fill="#ffffff" fill-opacity="1"><g transform="translate(181.482784, 347.525492)"><g><path d="M 1.761719 -0.316406 L 1.761719 0 L 27.300781 0 L 29.625 -7.972656 L 29.308594 -7.972656 C 27.617188 -2.855469 23.453125 -0.316406 17.386719 -0.316406 C 14.8125 -0.316406 13.226562 -1.726562 13.226562 -4.054688 L 13.226562 -26.347656 C 13.226562 -28.675781 14.8125 -30.085938 17.386719 -30.085938 L 17.386719 -30.402344 L 1.761719 -30.402344 L 1.761719 -30.085938 C 4.339844 -30.085938 5.925781 -28.675781 5.925781 -26.347656 L 5.925781 -4.054688 C 5.925781 -1.726562 4.339844 -0.316406 1.761719 -0.316406 Z M 1.761719 -0.316406 "/></g></g></g><g fill="#ffffff" fill-opacity="1"><g transform="translate(212.863942, 347.525492)"><g><path d="M 1.761719 -0.316406 L 1.761719 0 L 17.386719 0 L 17.386719 -0.316406 C 14.8125 -0.316406 13.226562 -1.726562 13.226562 -4.054688 L 13.226562 -26.347656 C 13.226562 -28.675781 14.8125 -30.085938 17.386719 -30.085938 L 17.386719 -30.402344 L 1.761719 -30.402344 L 1.761719 -30.085938 C 4.339844 -30.085938 5.925781 -28.675781 5.925781 -26.347656 L 5.925781 -4.054688 C 5.925781 -1.726562 4.339844 -0.316406 1.761719 -0.316406 Z M 1.761719 -0.316406 "/></g></g></g><g fill="#ffffff" fill-opacity="1"><g transform="translate(232.009976, 347.525492)"><g><path d="M 7.160156 -0.847656 C 11.640625 0.847656 17.988281 0.421875 20.984375 -2.574219 C 22.398438 -3.984375 23.453125 -6.523438 23.453125 -8.570312 C 23.453125 -14.777344 18.480469 -15.941406 12.695312 -19.503906 C 9.3125 -21.585938 7.6875 -23.242188 7.6875 -25.640625 C 7.6875 -28.285156 8.992188 -30.332031 13.121094 -30.332031 C 14.742188 -30.332031 16.257812 -29.910156 17.492188 -29.203125 C 20.667969 -27.15625 20.84375 -21.304688 20.84375 -21.304688 L 21.160156 -21.304688 L 21.160156 -29.664062 L 20.84375 -29.664062 L 20.84375 -29.519531 C 20.703125 -28.179688 17.917969 -29.34375 16.71875 -29.945312 C 15.625 -30.472656 14.390625 -30.648438 13.121094 -30.648438 C 8.886719 -30.648438 4.796875 -28.355469 3.175781 -24.6875 C 1.375 -20.667969 3.070312 -18.164062 8.359375 -14.214844 C 12.203125 -11.355469 19.539062 -8.992188 19.398438 -5.042969 C 19.292969 -2.398438 17.386719 -0.140625 12.273438 -0.140625 C 7.089844 -0.140625 2.117188 -4.726562 2.117188 -9.277344 L 2.117188 -10.085938 L 1.796875 -10.085938 L 1.796875 0 L 2.117188 0 L 2.117188 -0.0351562 C 2.117188 -1.585938 2.398438 -2.679688 7.160156 -0.847656 Z M 7.160156 -0.847656 "/></g></g></g><g fill="#ffffff" fill-opacity="1"><g transform="translate(256.515488, 347.525492)"><g><path d="M 1.761719 -0.316406 L 1.761719 0 L 17.386719 0 L 17.386719 -0.316406 C 14.8125 -0.316406 13.226562 -1.726562 13.226562 -4.054688 L 13.226562 -14.285156 L 25.289062 -14.285156 L 25.289062 -4.054688 C 25.289062 -1.726562 23.703125 -0.316406 21.125 -0.316406 L 21.125 0 L 36.75 0 L 36.75 -0.316406 C 34.175781 -0.316406 32.589844 -1.726562 32.589844 -4.054688 L 32.589844 -26.347656 C 32.589844 -28.675781 34.175781 -30.085938 36.75 -30.085938 L 36.75 -30.402344 L 21.125 -30.402344 L 21.125 -30.085938 C 23.703125 -30.085938 25.289062 -28.675781 25.289062 -26.347656 L 25.289062 -14.601562 L 13.226562 -14.601562 L 13.226562 -26.347656 C 13.226562 -28.675781 14.8125 -30.085938 17.386719 -30.085938 L 17.386719 -30.402344 L 1.761719 -30.402344 L 1.761719 -30.085938 C 4.339844 -30.085938 5.925781 -28.675781 5.925781 -26.347656 L 5.925781 -4.054688 C 5.925781 -1.726562 4.339844 -0.316406 1.761719 -0.316406 Z M 1.761719 -0.316406 "/></g></g></g><g clip-path="url(#a7ed272290)"><path fill="#ffffff" d="M 263.214844 307.796875 C 223.65625 307.558594 184.09375 307.320312 144.535156 307.082031 C 133.347656 307.011719 122.097656 306.65625 110.917969 307.058594 C 110.519531 307.070312 110.859375 307.640625 111.140625 307.652344 C 120.976562 308.121094 130.875 307.96875 140.722656 308.035156 C 150.578125 308.101562 160.4375 308.171875 170.292969 308.238281 C 190.171875 308.375 210.050781 308.515625 229.929688 308.652344 C 241.125 308.726562 252.320312 308.804688 263.511719 308.882812 C 264.484375 308.886719 263.960938 307.800781 263.214844 307.796875 " fill-opacity="1" fill-rule="nonzero"/></g></svg>