<svg xmlns="http://www.w3.org/2000/svg" xmlns:xlink="http://www.w3.org/1999/xlink" width="500" zoomAndPan="magnify" viewBox="0 0 375 374.999991" height="500" preserveAspectRatio="xMidYMid meet" version="1.0"><defs><g/><clipPath id="15b1cbeae8"><path d="M 38.46875 1 L 218 1 L 218 276.75 L 38.46875 276.75 Z M 38.46875 1 " clip-rule="nonzero"/></clipPath><clipPath id="3c6dcea68d"><path d="M 38.46875 1 L 218 1 L 218 209 L 38.46875 209 Z M 38.46875 1 " clip-rule="nonzero"/></clipPath><clipPath id="5f8f707add"><path d="M 282 0 L 336.21875 0 L 336.21875 55 L 282 55 Z M 282 0 " clip-rule="nonzero"/></clipPath><clipPath id="ed238cd600"><path d="M 152 4 L 336.21875 4 L 336.21875 275 L 152 275 Z M 152 4 " clip-rule="nonzero"/></clipPath><clipPath id="6acd3eebd5"><path d="M 152 4 L 336.21875 4 L 336.21875 208 L 152 208 Z M 152 4 " clip-rule="nonzero"/></clipPath><clipPath id="353a9bf122"><path d="M 108 313.488281 L 262 313.488281 L 262 315.738281 L 108 315.738281 Z M 108 313.488281 " clip-rule="nonzero"/></clipPath></defs><g clip-path="url(#15b1cbeae8)"><path fill="#72ffff" d="M 109.363281 13.875 L 205.164062 109.679688 C 206.125 110.640625 207.039062 111.648438 207.902344 112.699219 C 208.765625 113.75 209.574219 114.84375 210.328125 115.972656 C 211.085938 117.105469 211.785156 118.269531 212.425781 119.46875 C 213.066406 120.667969 213.648438 121.898438 214.167969 123.152344 C 214.6875 124.410156 215.144531 125.691406 215.539062 126.992188 C 215.9375 128.292969 216.265625 129.613281 216.53125 130.945312 C 216.796875 132.28125 216.996094 133.625 217.128906 134.976562 C 217.261719 136.332031 217.328125 137.6875 217.328125 139.046875 C 217.328125 140.410156 217.261719 141.765625 217.128906 143.121094 C 216.996094 144.472656 216.796875 145.816406 216.53125 147.152344 C 216.265625 148.484375 215.9375 149.804688 215.539062 151.105469 C 215.144531 152.40625 214.6875 153.6875 214.167969 154.941406 C 213.648438 156.199219 213.066406 157.425781 212.425781 158.628906 C 211.785156 159.828125 211.085938 160.992188 210.328125 162.125 C 209.574219 163.253906 208.765625 164.347656 207.902344 165.398438 C 207.039062 166.449219 206.125 167.457031 205.164062 168.417969 L 109.363281 264.21875 C 83.195312 290.386719 38.445312 271.84375 38.46875 234.820312 L 38.46875 43.214844 C 38.445312 6.253906 83.195312 -12.289062 109.363281 13.875 Z M 109.363281 13.875 " fill-opacity="1" fill-rule="nonzero"/></g><g clip-path="url(#3c6dcea68d)"><path fill="#00d7ff" d="M 109.363281 13.875 C 83.347656 -12.140625 39.105469 6.042969 38.488281 42.59375 C 38.488281 42.59375 189.242188 185.234375 165.269531 208.484375 L 205.25 168.503906 C 206.210938 167.539062 207.125 166.535156 207.988281 165.480469 C 208.851562 164.429688 209.660156 163.339844 210.414062 162.207031 C 211.171875 161.078125 211.871094 159.910156 212.511719 158.710938 C 213.152344 157.511719 213.734375 156.285156 214.253906 155.027344 C 214.773438 153.769531 215.230469 152.492188 215.625 151.191406 C 216.019531 149.886719 216.351562 148.570312 216.617188 147.234375 C 216.882812 145.902344 217.082031 144.558594 217.214844 143.203125 C 217.347656 141.851562 217.414062 140.492188 217.414062 139.132812 C 217.414062 137.773438 217.347656 136.414062 217.214844 135.0625 C 217.082031 133.707031 216.882812 132.363281 216.617188 131.03125 C 216.351562 129.695312 216.019531 128.378906 215.625 127.078125 C 215.230469 125.773438 214.773438 124.496094 214.253906 123.238281 C 213.734375 121.980469 213.152344 120.753906 212.511719 119.554688 C 211.871094 118.355469 211.171875 117.1875 210.414062 116.058594 C 209.660156 114.925781 208.851562 113.835938 207.988281 112.785156 C 207.125 111.734375 206.210938 110.726562 205.25 109.765625 Z M 109.363281 13.875 " fill-opacity="1" fill-rule="nonzero"/></g><g clip-path="url(#5f8f707add)"><path fill="#590696" d="M 336.523438 27.457031 C 336.523438 28.347656 336.476562 29.234375 336.390625 30.121094 C 336.304688 31.003906 336.175781 31.882812 336 32.753906 C 335.828125 33.625 335.609375 34.488281 335.351562 35.339844 C 335.09375 36.1875 334.796875 37.023438 334.457031 37.847656 C 334.117188 38.667969 333.734375 39.46875 333.316406 40.253906 C 332.898438 41.039062 332.441406 41.800781 331.949219 42.539062 C 331.453125 43.277344 330.925781 43.992188 330.359375 44.679688 C 329.796875 45.367188 329.199219 46.023438 328.570312 46.652344 C 327.941406 47.28125 327.285156 47.878906 326.597656 48.441406 C 325.910156 49.003906 325.199219 49.535156 324.457031 50.027344 C 323.71875 50.523438 322.957031 50.980469 322.171875 51.398438 C 321.390625 51.816406 320.585938 52.195312 319.765625 52.535156 C 318.945312 52.878906 318.109375 53.175781 317.257812 53.433594 C 316.40625 53.691406 315.546875 53.90625 314.671875 54.082031 C 313.800781 54.253906 312.921875 54.386719 312.039062 54.472656 C 311.152344 54.558594 310.265625 54.601562 309.378906 54.601562 C 308.488281 54.601562 307.601562 54.558594 306.71875 54.472656 C 305.832031 54.386719 304.953125 54.253906 304.082031 54.082031 C 303.210938 53.90625 302.347656 53.691406 301.5 53.433594 C 300.648438 53.175781 299.8125 52.878906 298.988281 52.535156 C 298.167969 52.195312 297.367188 51.816406 296.582031 51.398438 C 295.796875 50.980469 295.035156 50.523438 294.296875 50.027344 C 293.558594 49.535156 292.84375 49.003906 292.15625 48.441406 C 291.46875 47.878906 290.8125 47.28125 290.183594 46.652344 C 289.554688 46.023438 288.957031 45.367188 288.394531 44.679688 C 287.832031 43.992188 287.300781 43.277344 286.808594 42.539062 C 286.3125 41.800781 285.859375 41.039062 285.4375 40.253906 C 285.019531 39.46875 284.640625 38.667969 284.300781 37.847656 C 283.960938 37.023438 283.660156 36.1875 283.402344 35.339844 C 283.144531 34.488281 282.929688 33.625 282.753906 32.753906 C 282.582031 31.882812 282.453125 31.003906 282.363281 30.121094 C 282.277344 29.234375 282.234375 28.347656 282.234375 27.457031 C 282.234375 26.570312 282.277344 25.683594 282.363281 24.796875 C 282.453125 23.914062 282.582031 23.035156 282.753906 22.164062 C 282.929688 21.292969 283.144531 20.429688 283.402344 19.578125 C 283.660156 18.726562 283.960938 17.890625 284.300781 17.070312 C 284.640625 16.25 285.019531 15.445312 285.4375 14.664062 C 285.859375 13.878906 286.3125 13.117188 286.808594 12.378906 C 287.300781 11.640625 287.832031 10.925781 288.394531 10.238281 C 288.957031 9.550781 289.554688 8.894531 290.183594 8.265625 C 290.8125 7.636719 291.46875 7.039062 292.15625 6.476562 C 292.84375 5.910156 293.558594 5.382812 294.296875 4.890625 C 295.035156 4.394531 295.796875 3.9375 296.582031 3.519531 C 297.367188 3.101562 298.167969 2.722656 298.988281 2.378906 C 299.8125 2.039062 300.648438 1.742188 301.5 1.484375 C 302.347656 1.226562 303.210938 1.007812 304.082031 0.835938 C 304.953125 0.664062 305.832031 0.53125 306.71875 0.445312 C 307.601562 0.359375 308.488281 0.316406 309.378906 0.316406 C 310.265625 0.316406 311.152344 0.359375 312.039062 0.445312 C 312.921875 0.53125 313.800781 0.664062 314.671875 0.835938 C 315.546875 1.007812 316.40625 1.226562 317.257812 1.484375 C 318.109375 1.742188 318.945312 2.039062 319.765625 2.378906 C 320.585938 2.722656 321.390625 3.101562 322.171875 3.519531 C 322.957031 3.9375 323.71875 4.394531 324.457031 4.890625 C 325.199219 5.382812 325.910156 5.910156 326.597656 6.476562 C 327.285156 7.039062 327.941406 7.636719 328.570312 8.265625 C 329.199219 8.894531 329.796875 9.550781 330.359375 10.238281 C 330.925781 10.925781 331.453125 11.640625 331.949219 12.378906 C 332.441406 13.117188 332.898438 13.878906 333.316406 14.664062 C 333.734375 15.445312 334.117188 16.25 334.457031 17.070312 C 334.796875 17.890625 335.09375 18.730469 335.351562 19.578125 C 335.609375 20.429688 335.828125 21.292969 336 22.164062 C 336.175781 23.035156 336.304688 23.914062 336.390625 24.796875 C 336.476562 25.683594 336.523438 26.570312 336.523438 27.457031 Z M 336.523438 27.457031 " fill-opacity="1" fill-rule="nonzero"/><path fill="#590696" d="M 336.523438 27.457031 C 336.523438 28.347656 336.476562 29.234375 336.390625 30.121094 C 336.304688 31.003906 336.175781 31.882812 336 32.753906 C 335.828125 33.625 335.609375 34.488281 335.351562 35.339844 C 335.09375 36.1875 334.796875 37.023438 334.457031 37.847656 C 334.117188 38.667969 333.734375 39.46875 333.316406 40.253906 C 332.898438 41.039062 332.441406 41.800781 331.949219 42.539062 C 331.453125 43.277344 330.925781 43.992188 330.359375 44.679688 C 329.796875 45.367188 329.199219 46.023438 328.570312 46.652344 C 327.941406 47.28125 327.285156 47.878906 326.597656 48.441406 C 325.910156 49.003906 325.199219 49.535156 324.457031 50.027344 C 323.71875 50.523438 322.957031 50.980469 322.171875 51.398438 C 321.390625 51.816406 320.585938 52.195312 319.765625 52.535156 C 318.945312 52.878906 318.109375 53.175781 317.257812 53.433594 C 316.40625 53.691406 315.546875 53.90625 314.671875 54.082031 C 313.800781 54.253906 312.921875 54.386719 312.039062 54.472656 C 311.152344 54.558594 310.265625 54.601562 309.378906 54.601562 C 308.488281 54.601562 307.601562 54.558594 306.71875 54.472656 C 305.832031 54.386719 304.953125 54.253906 304.082031 54.082031 C 303.210938 53.90625 302.347656 53.691406 301.5 53.433594 C 300.648438 53.175781 299.8125 52.878906 298.988281 52.535156 C 298.167969 52.195312 297.367188 51.816406 296.582031 51.398438 C 295.796875 50.980469 295.035156 50.523438 294.296875 50.027344 C 293.558594 49.535156 292.84375 49.003906 292.15625 48.441406 C 291.46875 47.878906 290.8125 47.28125 290.183594 46.652344 C 289.554688 46.023438 288.957031 45.367188 288.394531 44.679688 C 287.832031 43.992188 287.300781 43.277344 286.808594 42.539062 C 286.3125 41.800781 285.859375 41.039062 285.4375 40.253906 C 285.019531 39.46875 284.640625 38.667969 284.300781 37.847656 C 283.960938 37.023438 283.660156 36.1875 283.402344 35.339844 C 283.144531 34.488281 282.929688 33.625 282.753906 32.753906 C 282.582031 31.882812 282.453125 31.003906 282.363281 30.121094 C 282.277344 29.234375 282.234375 28.347656 282.234375 27.457031 C 282.234375 26.570312 282.277344 25.683594 282.363281 24.796875 C 282.453125 23.914062 282.582031 23.035156 282.753906 22.164062 C 282.929688 21.292969 283.144531 20.429688 283.402344 19.578125 C 283.660156 18.726562 283.960938 17.890625 284.300781 17.070312 C 284.640625 16.25 285.019531 15.445312 285.4375 14.664062 C 285.859375 13.878906 286.3125 13.117188 286.808594 12.378906 C 287.300781 11.640625 287.832031 10.925781 288.394531 10.238281 C 288.957031 9.550781 289.554688 8.894531 290.183594 8.265625 C 290.8125 7.636719 291.46875 7.039062 292.15625 6.476562 C 292.84375 5.910156 293.558594 5.382812 294.296875 4.890625 C 295.035156 4.394531 295.796875 3.9375 296.582031 3.519531 C 297.367188 3.101562 298.167969 2.722656 298.988281 2.378906 C 299.8125 2.039062 300.648438 1.742188 301.5 1.484375 C 302.347656 1.226562 303.210938 1.007812 304.082031 0.835938 C 304.953125 0.664062 305.832031 0.53125 306.71875 0.445312 C 307.601562 0.359375 308.488281 0.316406 309.378906 0.316406 C 310.265625 0.316406 311.152344 0.359375 312.039062 0.445312 C 312.921875 0.53125 313.800781 0.664062 314.671875 0.835938 C 315.546875 1.007812 316.40625 1.226562 317.257812 1.484375 C 318.109375 1.742188 318.945312 2.039062 319.765625 2.378906 C 320.585938 2.722656 321.390625 3.101562 322.171875 3.519531 C 322.957031 3.9375 323.71875 4.394531 324.457031 4.890625 C 325.199219 5.382812 325.910156 5.910156 326.597656 6.476562 C 327.285156 7.039062 327.941406 7.636719 328.570312 8.265625 C 329.199219 8.894531 329.796875 9.550781 330.359375 10.238281 C 330.925781 10.925781 331.453125 11.640625 331.949219 12.378906 C 332.441406 13.117188 332.898438 13.878906 333.316406 14.664062 C 333.734375 15.445312 334.117188 16.25 334.457031 17.070312 C 334.796875 17.890625 335.09375 18.730469 335.351562 19.578125 C 335.609375 20.429688 335.828125 21.292969 336 22.164062 C 336.175781 23.035156 336.304688 23.914062 336.390625 24.796875 C 336.476562 25.683594 336.523438 26.570312 336.523438 27.457031 Z M 336.523438 27.457031 " fill-opacity="1" fill-rule="nonzero"/></g><g clip-path="url(#ed238cd600)"><path fill="#0096ff" d="M 324.34375 109.914062 L 228.542969 14.109375 C 202.824219 -11.628906 134.269531 18.21875 157.730469 41.679688 L 226.625 110.59375 C 227.585938 111.554688 228.5 112.5625 229.363281 113.613281 C 230.226562 114.664062 231.035156 115.753906 231.792969 116.882812 C 232.546875 118.015625 233.246094 119.179688 233.890625 120.378906 C 234.53125 121.578125 235.113281 122.804688 235.632812 124.0625 C 236.152344 125.320312 236.613281 126.597656 237.007812 127.898438 C 237.402344 129.199219 237.730469 130.519531 237.996094 131.851562 C 238.261719 133.1875 238.460938 134.53125 238.597656 135.882812 C 238.730469 137.234375 238.796875 138.59375 238.796875 139.953125 C 238.796875 141.3125 238.730469 142.667969 238.597656 144.023438 C 238.460938 145.375 238.261719 146.71875 237.996094 148.054688 C 237.730469 149.386719 237.402344 150.707031 237.007812 152.007812 C 236.613281 153.308594 236.152344 154.585938 235.632812 155.84375 C 235.113281 157.101562 234.53125 158.328125 233.890625 159.527344 C 233.246094 160.726562 232.546875 161.890625 231.792969 163.019531 C 231.035156 164.152344 230.226562 165.242188 229.363281 166.292969 C 228.5 167.34375 227.585938 168.351562 226.625 169.3125 L 157.773438 238.183594 C 136.78125 259.152344 203.078125 290.085938 228.542969 264.625 L 324.34375 168.820312 C 325.3125 167.859375 326.230469 166.851562 327.101562 165.796875 C 327.96875 164.746094 328.785156 163.652344 329.542969 162.519531 C 330.304688 161.382812 331.007812 160.214844 331.65625 159.011719 C 332.300781 157.808594 332.886719 156.578125 333.410156 155.316406 C 333.933594 154.058594 334.394531 152.773438 334.792969 151.46875 C 335.191406 150.160156 335.523438 148.839844 335.789062 147.5 C 336.058594 146.160156 336.257812 144.8125 336.390625 143.453125 C 336.527344 142.09375 336.59375 140.734375 336.59375 139.367188 C 336.59375 138.003906 336.527344 136.640625 336.390625 135.28125 C 336.257812 133.921875 336.058594 132.574219 335.789062 131.234375 C 335.523438 129.894531 335.191406 128.574219 334.792969 127.265625 C 334.394531 125.960938 333.933594 124.679688 333.410156 123.417969 C 332.886719 122.15625 332.300781 120.925781 331.65625 119.722656 C 331.007812 118.519531 330.304688 117.351562 329.542969 116.21875 C 328.785156 115.082031 327.96875 113.992188 327.101562 112.9375 C 326.230469 111.882812 325.3125 110.875 324.34375 109.914062 Z M 324.34375 109.914062 " fill-opacity="1" fill-rule="nonzero"/></g><g clip-path="url(#6acd3eebd5)"><path fill="#5800ff" d="M 324.34375 109.914062 L 228.542969 14.109375 C 202.824219 -11.628906 134.269531 18.21875 157.730469 41.679688 L 226.625 110.59375 C 228.277344 112.242188 229.777344 114.019531 231.128906 115.921875 C 232.476562 117.824219 233.660156 119.828125 234.671875 121.929688 C 235.683594 124.03125 236.507812 126.207031 237.152344 128.449219 C 237.796875 130.691406 238.246094 132.972656 238.503906 135.289062 C 262.242188 163.160156 281.976562 190.21875 286.085938 207.078125 L 324.410156 168.757812 C 325.371094 167.792969 326.289062 166.785156 327.152344 165.734375 C 328.019531 164.679688 328.832031 163.585938 329.589844 162.453125 C 330.347656 161.320312 331.046875 160.152344 331.6875 158.949219 C 332.332031 157.746094 332.914062 156.515625 333.433594 155.253906 C 333.957031 153.996094 334.414062 152.714844 334.808594 151.40625 C 335.207031 150.101562 335.535156 148.78125 335.800781 147.445312 C 336.066406 146.105469 336.265625 144.761719 336.398438 143.402344 C 336.53125 142.046875 336.59375 140.6875 336.59375 139.324219 C 336.59375 137.960938 336.523438 136.597656 336.386719 135.242188 C 336.253906 133.886719 336.050781 132.539062 335.785156 131.203125 C 335.515625 129.863281 335.183594 128.542969 334.785156 127.242188 C 334.386719 125.9375 333.925781 124.65625 333.402344 123.398438 C 332.875 122.136719 332.292969 120.910156 331.644531 119.707031 C 331 118.507812 330.296875 117.339844 329.539062 116.207031 C 328.777344 115.074219 327.964844 113.984375 327.097656 112.933594 C 326.226562 111.882812 325.3125 110.875 324.34375 109.914062 Z M 324.34375 109.914062 " fill-opacity="1" fill-rule="nonzero"/></g><g fill="#ffffff" fill-opacity="1"><g transform="translate(57.054528, 314.414566)"><g><path d="M 6.523438 -26.417969 L 17.105469 -0.0351562 L 25.394531 -20.878906 L 33.789062 -0.0351562 L 44.265625 -26.382812 C 45.179688 -28.710938 47.015625 -30.085938 49.800781 -30.085938 L 49.800781 -30.402344 L 41.441406 -30.402344 L 41.441406 -30.085938 C 43.945312 -30.085938 44.828125 -28.710938 43.910156 -26.382812 L 37.351562 -9.839844 L 30.863281 -26.382812 C 29.945312 -28.710938 30.613281 -30.085938 32.730469 -30.085938 L 32.730469 -30.402344 L 18.445312 -30.402344 L 18.445312 -30.085938 C 20.667969 -29.980469 22.148438 -29.027344 23.207031 -26.382812 L 25.21875 -21.339844 L 20.667969 -9.839844 L 14.214844 -26.382812 C 13.261719 -28.816406 13.859375 -30.015625 16.082031 -30.085938 L 16.082031 -30.402344 L 1.761719 -30.402344 L 1.761719 -30.085938 C 3.984375 -30.015625 5.574219 -28.816406 6.523438 -26.417969 Z M 6.523438 -26.417969 "/></g></g></g><g fill="#ffffff" fill-opacity="1"><g transform="translate(108.604262, 314.414566)"><g><path d="M 1.761719 -0.316406 L 1.761719 0 L 27.300781 0 L 29.625 -7.972656 L 29.308594 -7.972656 C 27.617188 -2.855469 23.453125 -0.316406 17.386719 -0.316406 C 14.8125 -0.316406 13.226562 -1.726562 13.226562 -4.054688 L 13.226562 -15.800781 L 18.515625 -15.800781 C 21.761719 -15.695312 22.078125 -12.769531 22.078125 -11.957031 L 22.078125 -11.78125 L 22.398438 -11.78125 L 22.398438 -20.105469 L 22.078125 -20.105469 L 22.078125 -19.925781 C 22.078125 -19.117188 21.761719 -16.1875 18.515625 -16.117188 L 13.226562 -16.117188 L 13.261719 -30.085938 L 15.800781 -30.085938 C 24.335938 -30.085938 26.171875 -24.867188 26.523438 -23.066406 L 26.628906 -22.433594 L 26.910156 -22.574219 L 25.710938 -30.402344 L 1.761719 -30.402344 L 1.761719 -30.085938 C 4.339844 -30.085938 5.925781 -28.675781 5.925781 -26.347656 L 5.925781 -4.054688 C 5.925781 -1.726562 4.339844 -0.316406 1.761719 -0.316406 Z M 1.761719 -0.316406 "/></g></g></g><g fill="#ffffff" fill-opacity="1"><g transform="translate(139.985419, 314.414566)"><g><path d="M 1.761719 -0.316406 L 1.761719 0 L 27.300781 0 L 29.625 -7.972656 L 29.308594 -7.972656 C 27.617188 -2.855469 23.453125 -0.316406 17.386719 -0.316406 C 14.8125 -0.316406 13.226562 -1.726562 13.226562 -4.054688 L 13.226562 -26.347656 C 13.226562 -28.675781 14.8125 -30.085938 17.386719 -30.085938 L 17.386719 -30.402344 L 1.761719 -30.402344 L 1.761719 -30.085938 C 4.339844 -30.085938 5.925781 -28.675781 5.925781 -26.347656 L 5.925781 -4.054688 C 5.925781 -1.726562 4.339844 -0.316406 1.761719 -0.316406 Z M 1.761719 -0.316406 "/></g></g></g><g fill="#ffffff" fill-opacity="1"><g transform="translate(171.366577, 314.414566)"><g><path d="M 1.761719 -0.316406 L 1.761719 0 L 27.300781 0 L 29.625 -7.972656 L 29.308594 -7.972656 C 27.617188 -2.855469 23.453125 -0.316406 17.386719 -0.316406 C 14.8125 -0.316406 13.226562 -1.726562 13.226562 -4.054688 L 13.226562 -15.800781 L 18.515625 -15.800781 C 21.761719 -15.695312 22.078125 -12.769531 22.078125 -11.957031 L 22.078125 -11.78125 L 22.398438 -11.78125 L 22.398438 -20.105469 L 22.078125 -20.105469 L 22.078125 -19.925781 C 22.078125 -19.117188 21.761719 -16.1875 18.515625 -16.117188 L 13.226562 -16.117188 L 13.261719 -30.085938 L 15.800781 -30.085938 C 24.335938 -30.085938 26.171875 -24.867188 26.523438 -23.066406 L 26.628906 -22.433594 L 26.910156 -22.574219 L 25.710938 -30.402344 L 1.761719 -30.402344 L 1.761719 -30.085938 C 4.339844 -30.085938 5.925781 -28.675781 5.925781 -26.347656 L 5.925781 -4.054688 C 5.925781 -1.726562 4.339844 -0.316406 1.761719 -0.316406 Z M 1.761719 -0.316406 "/></g></g></g><g fill="#ffffff" fill-opacity="1"><g transform="translate(202.747734, 314.414566)"><g><path d="M 1.761719 -0.316406 L 1.761719 0 L 10.085938 0 L 10.085938 -0.316406 L 9.980469 -0.316406 C 9.382812 -0.351562 6.347656 -0.707031 9.027344 -6.59375 L 10.191406 -9.136719 L 21.902344 -9.136719 L 24.230469 -4.019531 C 25.78125 -0.636719 23.207031 -0.351562 22.503906 -0.316406 L 22.324219 -0.316406 L 22.324219 0 L 36.644531 0 L 36.644531 -0.316406 L 36.46875 -0.316406 C 35.765625 -0.351562 33.046875 -0.671875 31.53125 -4.019531 L 19.503906 -30.402344 L 15.871094 -22.359375 L 8.675781 -6.59375 C 6.3125 -1.339844 3.5625 -0.457031 2.363281 -0.316406 Z M 21.761719 -9.453125 L 10.335938 -9.453125 L 16.046875 -21.972656 Z M 21.761719 -9.453125 "/></g></g></g><g fill="#ffffff" fill-opacity="1"><g transform="translate(241.145579, 314.414566)"><g><path d="M 1.761719 -0.316406 L 1.761719 0 L 17 0 L 17 -0.316406 C 14.355469 -0.316406 13.226562 -1.480469 13.226562 -3.984375 L 13.226562 -14.53125 L 17.246094 -14.53125 C 19.785156 -14.53125 19.046875 -12.945312 21.160156 -7.511719 C 23.347656 -1.90625 25.851562 0 28.5 0 L 34.847656 0 L 34.847656 -0.316406 C 31.671875 -0.316406 30.15625 -1.835938 28.355469 -7.511719 C 26.628906 -12.945312 24.972656 -14.53125 20 -14.8125 C 24.265625 -15.519531 28.109375 -17.882812 28.109375 -22.574219 C 28.109375 -28.25 22.75 -30.402344 17.035156 -30.402344 L 1.761719 -30.402344 L 1.761719 -30.085938 L 2.1875 -30.085938 C 3.246094 -30.050781 5.925781 -29.589844 5.925781 -26.347656 L 5.925781 -4.054688 C 5.925781 -1.480469 4.410156 -0.316406 1.761719 -0.316406 Z M 17.035156 -14.882812 L 13.226562 -14.882812 L 13.226562 -30.085938 L 17.035156 -30.085938 C 19.574219 -30.085938 20.914062 -26.839844 20.914062 -22.574219 C 20.914062 -18.269531 19.574219 -14.882812 17.035156 -14.882812 Z M 17.035156 -14.882812 "/></g></g></g><g fill="#ffffff" fill-opacity="1"><g transform="translate(277.745184, 314.414566)"><g><path d="M 6.628906 -25.289062 L 28.886719 0 L 29.238281 0 L 29.238281 -26.488281 C 29.34375 -30.261719 33.257812 -30.050781 33.257812 -30.050781 L 33.257812 -30.402344 L 24.902344 -30.402344 L 24.902344 -30.085938 C 24.902344 -30.050781 28.816406 -30.261719 28.921875 -26.488281 L 28.921875 -10.863281 L 11.675781 -30.402344 L 1.761719 -30.402344 L 1.761719 -30.050781 C 4.269531 -30.050781 5.679688 -28.78125 5.75 -25.78125 L 5.75 -3.878906 C 5.679688 -0.636719 2.714844 -0.351562 1.941406 -0.316406 L 1.761719 -0.316406 L 1.761719 0 L 10.085938 0 L 10.085938 -0.316406 L 9.910156 -0.316406 C 9.101562 -0.351562 6.171875 -0.636719 6.066406 -3.878906 L 6.066406 -25.886719 Z M 6.628906 -25.289062 "/></g></g></g><g fill="#ffffff" fill-opacity="1"><g transform="translate(77.374341, 363.488829)"><g><path d="M 1.761719 -0.316406 L 1.761719 0 L 27.300781 0 L 29.625 -7.972656 L 29.308594 -7.972656 C 27.617188 -2.855469 23.453125 -0.316406 17.386719 -0.316406 C 14.8125 -0.316406 13.226562 -1.726562 13.226562 -4.054688 L 13.226562 -15.800781 L 18.515625 -15.800781 C 21.761719 -15.695312 22.078125 -12.769531 22.078125 -11.957031 L 22.078125 -11.78125 L 22.398438 -11.78125 L 22.398438 -20.105469 L 22.078125 -20.105469 L 22.078125 -19.925781 C 22.078125 -19.117188 21.761719 -16.1875 18.515625 -16.117188 L 13.226562 -16.117188 L 13.261719 -30.085938 L 15.800781 -30.085938 C 24.335938 -30.085938 26.171875 -24.867188 26.523438 -23.066406 L 26.628906 -22.433594 L 26.910156 -22.574219 L 25.710938 -30.402344 L 1.761719 -30.402344 L 1.761719 -30.085938 C 4.339844 -30.085938 5.925781 -28.675781 5.925781 -26.347656 L 5.925781 -4.054688 C 5.925781 -1.726562 4.339844 -0.316406 1.761719 -0.316406 Z M 1.761719 -0.316406 "/></g></g></g><g fill="#ffffff" fill-opacity="1"><g transform="translate(108.755498, 363.488829)"><g><path d="M 6.628906 -25.289062 L 28.886719 0 L 29.238281 0 L 29.238281 -26.488281 C 29.34375 -30.261719 33.257812 -30.050781 33.257812 -30.050781 L 33.257812 -30.402344 L 24.902344 -30.402344 L 24.902344 -30.085938 C 24.902344 -30.050781 28.816406 -30.261719 28.921875 -26.488281 L 28.921875 -10.863281 L 11.675781 -30.402344 L 1.761719 -30.402344 L 1.761719 -30.050781 C 4.269531 -30.050781 5.679688 -28.78125 5.75 -25.78125 L 5.75 -3.878906 C 5.679688 -0.636719 2.714844 -0.351562 1.941406 -0.316406 L 1.761719 -0.316406 L 1.761719 0 L 10.085938 0 L 10.085938 -0.316406 L 9.910156 -0.316406 C 9.101562 -0.351562 6.171875 -0.636719 6.066406 -3.878906 L 6.066406 -25.886719 Z M 6.628906 -25.289062 "/></g></g></g><g fill="#ffffff" fill-opacity="1"><g transform="translate(143.768415, 363.488829)"><g><path d="M 17.175781 0 C 19.011719 0 20.738281 -0.316406 22.398438 -0.917969 C 25.535156 -1.835938 28.921875 -1.621094 29.027344 -0.316406 L 29.34375 -0.316406 L 29.34375 -9.804688 C 29.414062 -12.027344 30.933594 -13.367188 33.367188 -13.367188 L 33.367188 -13.683594 L 18.164062 -13.683594 L 18.164062 -13.367188 C 20.457031 -13.367188 22.113281 -12.097656 22.148438 -9.769531 L 22.148438 -1.480469 C 20.84375 -0.917969 18.585938 -0.421875 17.175781 -0.421875 C 14.988281 -0.421875 8.957031 -1.871094 8.921875 -15.449219 C 8.957031 -29.027344 14.988281 -30.472656 17.175781 -30.472656 C 17.847656 -30.472656 19.398438 -30.332031 21.234375 -29.769531 C 25.078125 -28.464844 27.15625 -25.992188 27.265625 -22.253906 L 27.582031 -22.253906 L 27.582031 -30.578125 L 27.265625 -30.578125 C 27.15625 -29.238281 25.710938 -28.992188 22.398438 -29.980469 C 20.738281 -30.578125 19.011719 -30.898438 17.175781 -30.898438 C 13.121094 -30.898438 9.3125 -29.308594 6.382812 -26.488281 C 3.5625 -23.632812 1.976562 -20.175781 1.761719 -16.367188 L 1.761719 -14.601562 C 2.222656 -6.417969 9.027344 0 17.175781 0 Z M 17.175781 0 "/></g></g></g><g fill="#ffffff" fill-opacity="1"><g transform="translate(178.887107, 363.488829)"><g><path d="M 1.761719 -0.316406 L 1.761719 0 L 27.300781 0 L 29.625 -7.972656 L 29.308594 -7.972656 C 27.617188 -2.855469 23.453125 -0.316406 17.386719 -0.316406 C 14.8125 -0.316406 13.226562 -1.726562 13.226562 -4.054688 L 13.226562 -26.347656 C 13.226562 -28.675781 14.8125 -30.085938 17.386719 -30.085938 L 17.386719 -30.402344 L 1.761719 -30.402344 L 1.761719 -30.085938 C 4.339844 -30.085938 5.925781 -28.675781 5.925781 -26.347656 L 5.925781 -4.054688 C 5.925781 -1.726562 4.339844 -0.316406 1.761719 -0.316406 Z M 1.761719 -0.316406 "/></g></g></g><g fill="#ffffff" fill-opacity="1"><g transform="translate(210.268265, 363.488829)"><g><path d="M 1.761719 -0.316406 L 1.761719 0 L 17.386719 0 L 17.386719 -0.316406 C 14.8125 -0.316406 13.226562 -1.726562 13.226562 -4.054688 L 13.226562 -26.347656 C 13.226562 -28.675781 14.8125 -30.085938 17.386719 -30.085938 L 17.386719 -30.402344 L 1.761719 -30.402344 L 1.761719 -30.085938 C 4.339844 -30.085938 5.925781 -28.675781 5.925781 -26.347656 L 5.925781 -4.054688 C 5.925781 -1.726562 4.339844 -0.316406 1.761719 -0.316406 Z M 1.761719 -0.316406 "/></g></g></g><g fill="#ffffff" fill-opacity="1"><g transform="translate(229.414299, 363.488829)"><g><path d="M 7.160156 -0.847656 C 11.640625 0.847656 17.988281 0.421875 20.984375 -2.574219 C 22.398438 -3.984375 23.453125 -6.523438 23.453125 -8.570312 C 23.453125 -14.777344 18.480469 -15.941406 12.695312 -19.503906 C 9.3125 -21.585938 7.6875 -23.242188 7.6875 -25.640625 C 7.6875 -28.285156 8.992188 -30.332031 13.121094 -30.332031 C 14.742188 -30.332031 16.257812 -29.910156 17.492188 -29.203125 C 20.667969 -27.15625 20.84375 -21.304688 20.84375 -21.304688 L 21.160156 -21.304688 L 21.160156 -29.664062 L 20.84375 -29.664062 L 20.84375 -29.519531 C 20.703125 -28.179688 17.917969 -29.34375 16.71875 -29.945312 C 15.625 -30.472656 14.390625 -30.648438 13.121094 -30.648438 C 8.886719 -30.648438 4.796875 -28.355469 3.175781 -24.6875 C 1.375 -20.667969 3.070312 -18.164062 8.359375 -14.214844 C 12.203125 -11.355469 19.539062 -8.992188 19.398438 -5.042969 C 19.292969 -2.398438 17.386719 -0.140625 12.273438 -0.140625 C 7.089844 -0.140625 2.117188 -4.726562 2.117188 -9.277344 L 2.117188 -10.085938 L 1.796875 -10.085938 L 1.796875 0 L 2.117188 0 L 2.117188 -0.0351562 C 2.117188 -1.585938 2.398438 -2.679688 7.160156 -0.847656 Z M 7.160156 -0.847656 "/></g></g></g><g fill="#ffffff" fill-opacity="1"><g transform="translate(253.919811, 363.488829)"><g><path d="M 1.761719 -0.316406 L 1.761719 0 L 17.386719 0 L 17.386719 -0.316406 C 14.8125 -0.316406 13.226562 -1.726562 13.226562 -4.054688 L 13.226562 -14.285156 L 25.289062 -14.285156 L 25.289062 -4.054688 C 25.289062 -1.726562 23.703125 -0.316406 21.125 -0.316406 L 21.125 0 L 36.75 0 L 36.75 -0.316406 C 34.175781 -0.316406 32.589844 -1.726562 32.589844 -4.054688 L 32.589844 -26.347656 C 32.589844 -28.675781 34.175781 -30.085938 36.75 -30.085938 L 36.75 -30.402344 L 21.125 -30.402344 L 21.125 -30.085938 C 23.703125 -30.085938 25.289062 -28.675781 25.289062 -26.347656 L 25.289062 -14.601562 L 13.226562 -14.601562 L 13.226562 -26.347656 C 13.226562 -28.675781 14.8125 -30.085938 17.386719 -30.085938 L 17.386719 -30.402344 L 1.761719 -30.402344 L 1.761719 -30.085938 C 4.339844 -30.085938 5.925781 -28.675781 5.925781 -26.347656 L 5.925781 -4.054688 C 5.925781 -1.726562 4.339844 -0.316406 1.761719 -0.316406 Z M 1.761719 -0.316406 "/></g></g></g><g clip-path="url(#353a9bf122)"><path fill="#ffffff" d="M 260.628906 314.636719 C 221.066406 314.398438 181.507812 314.160156 141.945312 313.921875 C 130.757812 313.855469 119.507812 313.496094 108.328125 313.898438 C 107.933594 313.914062 108.273438 314.480469 108.554688 314.492188 C 118.390625 314.960938 128.289062 314.808594 138.136719 314.878906 C 147.992188 314.945312 157.851562 315.011719 167.707031 315.082031 C 187.585938 315.21875 207.464844 315.355469 227.34375 315.492188 C 238.539062 315.566406 249.734375 315.644531 260.925781 315.722656 C 261.898438 315.730469 261.375 314.640625 260.628906 314.636719 " fill-opacity="1" fill-rule="nonzero"/></g></svg>