<svg xmlns="http://www.w3.org/2000/svg" xmlns:xlink="http://www.w3.org/1999/xlink" zoomAndPan="magnify" preserveAspectRatio="xMidYMid meet" version="1.0" viewBox="61.4 58.02 252.19 268.11"><defs><g/><clipPath id="d3520e5a2d"><path d="M 95.046875 59 L 207 59 L 207 229.773438 L 95.046875 229.773438 Z M 95.046875 59 " clip-rule="nonzero"/></clipPath><clipPath id="b5fc5a010c"><path d="M 95.046875 59 L 207 59 L 207 188 L 95.046875 188 Z M 95.046875 59 " clip-rule="nonzero"/></clipPath><clipPath id="3ad09ffa77"><path d="M 246 58.023438 L 280 58.023438 L 280 92 L 246 92 Z M 246 58.023438 " clip-rule="nonzero"/></clipPath><clipPath id="fb67f924d6"><path d="M 110 284.261719 L 265 284.261719 L 265 286.511719 L 110 286.511719 Z M 110 284.261719 " clip-rule="nonzero"/></clipPath></defs><g clip-path="url(#d3520e5a2d)"><path fill="#ffffff" d="M 139.023438 66.628906 L 198.457031 126.058594 C 199.054688 126.65625 199.621094 127.28125 200.15625 127.933594 C 200.691406 128.585938 201.191406 129.261719 201.660156 129.964844 C 202.128906 130.664062 202.5625 131.386719 202.960938 132.132812 C 203.359375 132.875 203.71875 133.636719 204.042969 134.417969 C 204.363281 135.199219 204.648438 135.992188 204.894531 136.800781 C 205.136719 137.605469 205.34375 138.425781 205.507812 139.25 C 205.671875 140.078125 205.796875 140.914062 205.878906 141.753906 C 205.960938 142.59375 206.003906 143.433594 206.003906 144.277344 C 206.003906 145.121094 205.960938 145.964844 205.878906 146.804688 C 205.796875 147.644531 205.671875 148.476562 205.507812 149.304688 C 205.34375 150.132812 205.136719 150.949219 204.894531 151.757812 C 204.648438 152.566406 204.363281 153.359375 204.042969 154.136719 C 203.71875 154.917969 203.359375 155.679688 202.960938 156.425781 C 202.5625 157.167969 202.128906 157.890625 201.660156 158.59375 C 201.191406 159.292969 200.691406 159.972656 200.15625 160.625 C 199.621094 161.277344 199.054688 161.902344 198.457031 162.496094 L 139.023438 221.929688 C 122.792969 238.160156 95.03125 226.65625 95.046875 203.691406 L 95.046875 84.828125 C 95.03125 61.898438 122.792969 50.394531 139.023438 66.628906 Z M 139.023438 66.628906 " fill-opacity="1" fill-rule="nonzero"/></g><g clip-path="url(#b5fc5a010c)"><path fill="#ffffff" d="M 139.023438 66.628906 C 122.886719 50.488281 95.441406 61.765625 95.058594 84.445312 C 95.058594 84.445312 188.578125 172.929688 173.707031 187.351562 L 198.511719 162.550781 C 199.105469 161.953125 199.671875 161.328125 200.207031 160.675781 C 200.742188 160.023438 201.246094 159.347656 201.714844 158.644531 C 202.183594 157.945312 202.617188 157.222656 203.015625 156.476562 C 203.410156 155.730469 203.773438 154.96875 204.09375 154.191406 C 204.417969 153.410156 204.703125 152.617188 204.945312 151.808594 C 205.191406 151.003906 205.394531 150.183594 205.5625 149.355469 C 205.726562 148.53125 205.847656 147.695312 205.933594 146.855469 C 206.015625 146.015625 206.054688 145.175781 206.054688 144.332031 C 206.054688 143.488281 206.015625 142.644531 205.933594 141.804688 C 205.847656 140.964844 205.726562 140.132812 205.5625 139.304688 C 205.394531 138.476562 205.191406 137.660156 204.945312 136.851562 C 204.703125 136.042969 204.417969 135.25 204.09375 134.472656 C 203.773438 133.691406 203.410156 132.929688 203.015625 132.183594 C 202.617188 131.441406 202.183594 130.71875 201.714844 130.015625 C 201.246094 129.316406 200.742188 128.636719 200.207031 127.984375 C 199.671875 127.332031 199.105469 126.707031 198.511719 126.113281 Z M 139.023438 66.628906 " fill-opacity="1" fill-rule="nonzero"/></g><g clip-path="url(#3ad09ffa77)"><path fill="#ffffff" d="M 279.945312 75.054688 C 279.945312 75.605469 279.917969 76.15625 279.863281 76.703125 C 279.808594 77.253906 279.726562 77.796875 279.621094 78.339844 C 279.511719 78.878906 279.378906 79.414062 279.21875 79.941406 C 279.058594 80.46875 278.875 80.988281 278.664062 81.496094 C 278.453125 82.007812 278.214844 82.503906 277.957031 82.992188 C 277.695312 83.476562 277.414062 83.949219 277.105469 84.410156 C 276.800781 84.867188 276.472656 85.308594 276.121094 85.734375 C 275.773438 86.164062 275.402344 86.570312 275.011719 86.960938 C 274.621094 87.351562 274.214844 87.71875 273.789062 88.070312 C 273.363281 88.421875 272.917969 88.75 272.460938 89.054688 C 272.003906 89.359375 271.53125 89.644531 271.042969 89.902344 C 270.558594 90.164062 270.058594 90.398438 269.550781 90.609375 C 269.039062 90.820312 268.519531 91.007812 267.992188 91.167969 C 267.464844 91.328125 266.929688 91.460938 266.390625 91.570312 C 265.851562 91.675781 265.304688 91.757812 264.757812 91.8125 C 264.207031 91.867188 263.65625 91.890625 263.105469 91.890625 C 262.554688 91.890625 262.003906 91.867188 261.453125 91.8125 C 260.90625 91.757812 260.359375 91.675781 259.820312 91.570312 C 259.28125 91.460938 258.746094 91.328125 258.21875 91.167969 C 257.691406 91.007812 257.171875 90.820312 256.660156 90.609375 C 256.152344 90.398438 255.652344 90.164062 255.167969 89.902344 C 254.679688 89.644531 254.207031 89.359375 253.75 89.054688 C 253.292969 88.75 252.847656 88.421875 252.421875 88.070312 C 251.996094 87.71875 251.589844 87.351562 251.199219 86.960938 C 250.808594 86.570312 250.4375 86.164062 250.089844 85.734375 C 249.738281 85.308594 249.410156 84.867188 249.105469 84.410156 C 248.796875 83.949219 248.515625 83.476562 248.253906 82.992188 C 247.996094 82.503906 247.757812 82.007812 247.546875 81.496094 C 247.335938 80.988281 247.152344 80.46875 246.992188 79.941406 C 246.832031 79.414062 246.699219 78.878906 246.589844 78.339844 C 246.480469 77.796875 246.402344 77.253906 246.347656 76.703125 C 246.292969 76.15625 246.265625 75.605469 246.265625 75.054688 C 246.265625 74.503906 246.292969 73.953125 246.347656 73.402344 C 246.402344 72.855469 246.480469 72.308594 246.589844 71.769531 C 246.699219 71.226562 246.832031 70.691406 246.992188 70.164062 C 247.152344 69.636719 247.335938 69.117188 247.546875 68.609375 C 247.757812 68.101562 247.996094 67.601562 248.253906 67.117188 C 248.515625 66.628906 248.796875 66.15625 249.105469 65.699219 C 249.410156 65.238281 249.738281 64.796875 250.089844 64.371094 C 250.4375 63.945312 250.808594 63.535156 251.199219 63.148438 C 251.589844 62.757812 251.996094 62.386719 252.421875 62.035156 C 252.847656 61.6875 253.292969 61.359375 253.75 61.050781 C 254.207031 60.746094 254.679688 60.460938 255.167969 60.203125 C 255.652344 59.941406 256.152344 59.707031 256.660156 59.496094 C 257.171875 59.285156 257.691406 59.101562 258.21875 58.941406 C 258.746094 58.78125 259.28125 58.644531 259.820312 58.539062 C 260.359375 58.429688 260.90625 58.351562 261.453125 58.296875 C 262.003906 58.242188 262.554688 58.214844 263.105469 58.214844 C 263.65625 58.214844 264.207031 58.242188 264.757812 58.296875 C 265.304688 58.351562 265.851562 58.429688 266.390625 58.539062 C 266.929688 58.644531 267.464844 58.78125 267.992188 58.941406 C 268.519531 59.101562 269.039062 59.285156 269.550781 59.496094 C 270.058594 59.707031 270.558594 59.941406 271.042969 60.203125 C 271.53125 60.460938 272.003906 60.746094 272.460938 61.050781 C 272.917969 61.359375 273.363281 61.6875 273.789062 62.035156 C 274.214844 62.386719 274.621094 62.757812 275.011719 63.148438 C 275.402344 63.535156 275.773438 63.945312 276.121094 64.371094 C 276.472656 64.796875 276.800781 65.238281 277.105469 65.699219 C 277.414062 66.15625 277.695312 66.628906 277.957031 67.117188 C 278.214844 67.601562 278.453125 68.101562 278.664062 68.609375 C 278.875 69.117188 279.058594 69.636719 279.21875 70.164062 C 279.378906 70.691406 279.511719 71.226562 279.621094 71.769531 C 279.726562 72.308594 279.808594 72.855469 279.863281 73.402344 C 279.917969 73.953125 279.945312 74.503906 279.945312 75.054688 Z M 279.945312 75.054688 " fill-opacity="1" fill-rule="nonzero"/><path fill="#ffffff" d="M 279.945312 75.054688 C 279.945312 75.605469 279.917969 76.15625 279.863281 76.703125 C 279.808594 77.253906 279.726562 77.796875 279.621094 78.339844 C 279.511719 78.878906 279.378906 79.414062 279.21875 79.941406 C 279.058594 80.46875 278.875 80.988281 278.664062 81.496094 C 278.453125 82.007812 278.214844 82.503906 277.957031 82.992188 C 277.695312 83.476562 277.414062 83.949219 277.105469 84.410156 C 276.800781 84.867188 276.472656 85.308594 276.121094 85.734375 C 275.773438 86.164062 275.402344 86.570312 275.011719 86.960938 C 274.621094 87.351562 274.214844 87.71875 273.789062 88.070312 C 273.363281 88.421875 272.917969 88.75 272.460938 89.054688 C 272.003906 89.359375 271.53125 89.644531 271.042969 89.902344 C 270.558594 90.164062 270.058594 90.398438 269.550781 90.609375 C 269.039062 90.820312 268.519531 91.007812 267.992188 91.167969 C 267.464844 91.328125 266.929688 91.460938 266.390625 91.570312 C 265.851562 91.675781 265.304688 91.757812 264.757812 91.8125 C 264.207031 91.867188 263.65625 91.890625 263.105469 91.890625 C 262.554688 91.890625 262.003906 91.867188 261.453125 91.8125 C 260.90625 91.757812 260.359375 91.675781 259.820312 91.570312 C 259.28125 91.460938 258.746094 91.328125 258.21875 91.167969 C 257.691406 91.007812 257.171875 90.820312 256.660156 90.609375 C 256.152344 90.398438 255.652344 90.164062 255.167969 89.902344 C 254.679688 89.644531 254.207031 89.359375 253.75 89.054688 C 253.292969 88.75 252.847656 88.421875 252.421875 88.070312 C 251.996094 87.71875 251.589844 87.351562 251.199219 86.960938 C 250.808594 86.570312 250.4375 86.164062 250.089844 85.734375 C 249.738281 85.308594 249.410156 84.867188 249.105469 84.410156 C 248.796875 83.949219 248.515625 83.476562 248.253906 82.992188 C 247.996094 82.503906 247.757812 82.007812 247.546875 81.496094 C 247.335938 80.988281 247.152344 80.46875 246.992188 79.941406 C 246.832031 79.414062 246.699219 78.878906 246.589844 78.339844 C 246.480469 77.796875 246.402344 77.253906 246.347656 76.703125 C 246.292969 76.15625 246.265625 75.605469 246.265625 75.054688 C 246.265625 74.503906 246.292969 73.953125 246.347656 73.402344 C 246.402344 72.855469 246.480469 72.308594 246.589844 71.769531 C 246.699219 71.226562 246.832031 70.691406 246.992188 70.164062 C 247.152344 69.636719 247.335938 69.117188 247.546875 68.609375 C 247.757812 68.101562 247.996094 67.601562 248.253906 67.117188 C 248.515625 66.628906 248.796875 66.15625 249.105469 65.699219 C 249.410156 65.238281 249.738281 64.796875 250.089844 64.371094 C 250.4375 63.945312 250.808594 63.535156 251.199219 63.148438 C 251.589844 62.757812 251.996094 62.386719 252.421875 62.035156 C 252.847656 61.6875 253.292969 61.359375 253.75 61.050781 C 254.207031 60.746094 254.679688 60.460938 255.167969 60.203125 C 255.652344 59.941406 256.152344 59.707031 256.660156 59.496094 C 257.171875 59.285156 257.691406 59.101562 258.21875 58.941406 C 258.746094 58.78125 259.28125 58.644531 259.820312 58.539062 C 260.359375 58.429688 260.90625 58.351562 261.453125 58.296875 C 262.003906 58.242188 262.554688 58.214844 263.105469 58.214844 C 263.65625 58.214844 264.207031 58.242188 264.757812 58.296875 C 265.304688 58.351562 265.851562 58.429688 266.390625 58.539062 C 266.929688 58.644531 267.464844 58.78125 267.992188 58.941406 C 268.519531 59.101562 269.039062 59.285156 269.550781 59.496094 C 270.058594 59.707031 270.558594 59.941406 271.042969 60.203125 C 271.53125 60.460938 272.003906 60.746094 272.460938 61.050781 C 272.917969 61.359375 273.363281 61.6875 273.789062 62.035156 C 274.214844 62.386719 274.621094 62.757812 275.011719 63.148438 C 275.402344 63.535156 275.773438 63.945312 276.121094 64.371094 C 276.472656 64.796875 276.800781 65.238281 277.105469 65.699219 C 277.414062 66.15625 277.695312 66.628906 277.957031 67.117188 C 278.214844 67.601562 278.453125 68.101562 278.664062 68.609375 C 278.875 69.117188 279.058594 69.636719 279.21875 70.164062 C 279.378906 70.691406 279.511719 71.226562 279.621094 71.769531 C 279.726562 72.308594 279.808594 72.855469 279.863281 73.402344 C 279.917969 73.953125 279.945312 74.503906 279.945312 75.054688 Z M 279.945312 75.054688 " fill-opacity="1" fill-rule="nonzero"/></g><path fill="#ffffff" d="M 272.390625 126.203125 L 212.957031 66.773438 C 197.003906 50.804688 154.476562 69.320312 169.03125 83.875 L 211.769531 126.628906 C 212.367188 127.222656 212.933594 127.847656 213.46875 128.5 C 214.003906 129.152344 214.507812 129.828125 214.976562 130.527344 C 215.445312 131.230469 215.878906 131.953125 216.277344 132.695312 C 216.675781 133.441406 217.035156 134.203125 217.359375 134.980469 C 217.679688 135.761719 217.964844 136.554688 218.210938 137.363281 C 218.457031 138.167969 218.660156 138.984375 218.824219 139.8125 C 218.988281 140.640625 219.113281 141.476562 219.195312 142.3125 C 219.277344 143.152344 219.320312 143.996094 219.320312 144.839844 C 219.320312 145.683594 219.277344 146.523438 219.195312 147.363281 C 219.113281 148.203125 218.988281 149.039062 218.824219 149.863281 C 218.660156 150.691406 218.457031 151.511719 218.210938 152.316406 C 217.964844 153.125 217.679688 153.917969 217.359375 154.699219 C 217.035156 155.476562 216.675781 156.238281 216.277344 156.980469 C 215.878906 157.726562 215.445312 158.449219 214.976562 159.148438 C 214.507812 159.851562 214.003906 160.527344 213.46875 161.179688 C 212.933594 161.832031 212.367188 162.457031 211.769531 163.050781 L 169.058594 205.777344 C 156.035156 218.785156 197.164062 237.976562 212.957031 222.179688 L 272.390625 162.75 C 272.992188 162.152344 273.558594 161.527344 274.097656 160.871094 C 274.636719 160.21875 275.144531 159.539062 275.617188 158.835938 C 276.085938 158.132812 276.523438 157.410156 276.925781 156.664062 C 277.324219 155.917969 277.6875 155.152344 278.011719 154.371094 C 278.339844 153.589844 278.625 152.792969 278.871094 151.980469 C 279.117188 151.171875 279.324219 150.351562 279.492188 149.519531 C 279.65625 148.691406 279.78125 147.855469 279.863281 147.011719 C 279.949219 146.167969 279.988281 145.324219 279.988281 144.476562 C 279.988281 143.628906 279.949219 142.785156 279.863281 141.941406 C 279.78125 141.097656 279.65625 140.261719 279.492188 139.429688 C 279.324219 138.601562 279.117188 137.78125 278.871094 136.96875 C 278.625 136.160156 278.339844 135.363281 278.011719 134.582031 C 277.6875 133.800781 277.324219 133.035156 276.925781 132.289062 C 276.523438 131.542969 276.085938 130.816406 275.617188 130.113281 C 275.144531 129.410156 274.636719 128.734375 274.097656 128.082031 C 273.558594 127.425781 272.992188 126.800781 272.390625 126.203125 Z M 272.390625 126.203125 " fill-opacity="1" fill-rule="nonzero"/><path fill="#ffffff" d="M 272.390625 126.203125 L 212.957031 66.773438 C 197.003906 50.804688 154.476562 69.320312 169.03125 83.875 L 211.769531 126.628906 C 213.832031 128.6875 215.496094 131.03125 216.761719 133.660156 C 218.023438 136.285156 218.816406 139.050781 219.140625 141.945312 C 233.863281 159.234375 246.109375 176.019531 248.65625 186.480469 L 272.429688 162.707031 C 273.027344 162.109375 273.597656 161.484375 274.132812 160.832031 C 274.667969 160.179688 275.171875 159.5 275.644531 158.796875 C 276.113281 158.09375 276.546875 157.367188 276.945312 156.621094 C 277.34375 155.878906 277.707031 155.113281 278.03125 154.332031 C 278.351562 153.550781 278.636719 152.753906 278.882812 151.945312 C 279.128906 151.136719 279.332031 150.316406 279.496094 149.488281 C 279.660156 148.65625 279.785156 147.820312 279.867188 146.980469 C 279.949219 146.136719 279.988281 145.292969 279.988281 144.449219 C 279.988281 143.601562 279.945312 142.757812 279.863281 141.917969 C 279.777344 141.074219 279.652344 140.238281 279.484375 139.410156 C 279.320312 138.582031 279.113281 137.761719 278.867188 136.953125 C 278.621094 136.144531 278.332031 135.347656 278.007812 134.570312 C 277.683594 133.789062 277.320312 133.023438 276.917969 132.28125 C 276.519531 131.535156 276.082031 130.8125 275.613281 130.109375 C 275.140625 129.40625 274.636719 128.730469 274.097656 128.078125 C 273.558594 127.425781 272.988281 126.800781 272.390625 126.203125 Z M 272.390625 126.203125 " fill-opacity="1" fill-rule="nonzero"/><g fill="#ffffff" fill-opacity="1"><g transform="translate(59.637838, 276.914585)"><g><path d="M 6.523438 -26.417969 L 17.105469 -0.0351562 L 25.394531 -20.878906 L 33.789062 -0.0351562 L 44.265625 -26.382812 C 45.179688 -28.710938 47.015625 -30.085938 49.800781 -30.085938 L 49.800781 -30.402344 L 41.441406 -30.402344 L 41.441406 -30.085938 C 43.945312 -30.085938 44.828125 -28.710938 43.910156 -26.382812 L 37.351562 -9.839844 L 30.863281 -26.382812 C 29.945312 -28.710938 30.613281 -30.085938 32.730469 -30.085938 L 32.730469 -30.402344 L 18.445312 -30.402344 L 18.445312 -30.085938 C 20.667969 -29.980469 22.148438 -29.027344 23.207031 -26.382812 L 25.21875 -21.339844 L 20.667969 -9.839844 L 14.214844 -26.382812 C 13.261719 -28.816406 13.859375 -30.015625 16.082031 -30.085938 L 16.082031 -30.402344 L 1.761719 -30.402344 L 1.761719 -30.085938 C 3.984375 -30.015625 5.574219 -28.816406 6.523438 -26.417969 Z M 6.523438 -26.417969 "/></g></g></g><g fill="#ffffff" fill-opacity="1"><g transform="translate(111.187571, 276.914585)"><g><path d="M 1.761719 -0.316406 L 1.761719 0 L 27.300781 0 L 29.625 -7.972656 L 29.308594 -7.972656 C 27.617188 -2.855469 23.453125 -0.316406 17.386719 -0.316406 C 14.8125 -0.316406 13.226562 -1.726562 13.226562 -4.054688 L 13.226562 -15.800781 L 18.515625 -15.800781 C 21.761719 -15.695312 22.078125 -12.769531 22.078125 -11.957031 L 22.078125 -11.78125 L 22.398438 -11.78125 L 22.398438 -20.105469 L 22.078125 -20.105469 L 22.078125 -19.925781 C 22.078125 -19.117188 21.761719 -16.1875 18.515625 -16.117188 L 13.226562 -16.117188 L 13.261719 -30.085938 L 15.800781 -30.085938 C 24.335938 -30.085938 26.171875 -24.867188 26.523438 -23.066406 L 26.628906 -22.433594 L 26.910156 -22.574219 L 25.710938 -30.402344 L 1.761719 -30.402344 L 1.761719 -30.085938 C 4.339844 -30.085938 5.925781 -28.675781 5.925781 -26.347656 L 5.925781 -4.054688 C 5.925781 -1.726562 4.339844 -0.316406 1.761719 -0.316406 Z M 1.761719 -0.316406 "/></g></g></g><g fill="#ffffff" fill-opacity="1"><g transform="translate(142.568729, 276.914585)"><g><path d="M 1.761719 -0.316406 L 1.761719 0 L 27.300781 0 L 29.625 -7.972656 L 29.308594 -7.972656 C 27.617188 -2.855469 23.453125 -0.316406 17.386719 -0.316406 C 14.8125 -0.316406 13.226562 -1.726562 13.226562 -4.054688 L 13.226562 -26.347656 C 13.226562 -28.675781 14.8125 -30.085938 17.386719 -30.085938 L 17.386719 -30.402344 L 1.761719 -30.402344 L 1.761719 -30.085938 C 4.339844 -30.085938 5.925781 -28.675781 5.925781 -26.347656 L 5.925781 -4.054688 C 5.925781 -1.726562 4.339844 -0.316406 1.761719 -0.316406 Z M 1.761719 -0.316406 "/></g></g></g><g fill="#ffffff" fill-opacity="1"><g transform="translate(173.949886, 276.914585)"><g><path d="M 1.761719 -0.316406 L 1.761719 0 L 27.300781 0 L 29.625 -7.972656 L 29.308594 -7.972656 C 27.617188 -2.855469 23.453125 -0.316406 17.386719 -0.316406 C 14.8125 -0.316406 13.226562 -1.726562 13.226562 -4.054688 L 13.226562 -15.800781 L 18.515625 -15.800781 C 21.761719 -15.695312 22.078125 -12.769531 22.078125 -11.957031 L 22.078125 -11.78125 L 22.398438 -11.78125 L 22.398438 -20.105469 L 22.078125 -20.105469 L 22.078125 -19.925781 C 22.078125 -19.117188 21.761719 -16.1875 18.515625 -16.117188 L 13.226562 -16.117188 L 13.261719 -30.085938 L 15.800781 -30.085938 C 24.335938 -30.085938 26.171875 -24.867188 26.523438 -23.066406 L 26.628906 -22.433594 L 26.910156 -22.574219 L 25.710938 -30.402344 L 1.761719 -30.402344 L 1.761719 -30.085938 C 4.339844 -30.085938 5.925781 -28.675781 5.925781 -26.347656 L 5.925781 -4.054688 C 5.925781 -1.726562 4.339844 -0.316406 1.761719 -0.316406 Z M 1.761719 -0.316406 "/></g></g></g><g fill="#ffffff" fill-opacity="1"><g transform="translate(205.331044, 276.914585)"><g><path d="M 1.761719 -0.316406 L 1.761719 0 L 10.085938 0 L 10.085938 -0.316406 L 9.980469 -0.316406 C 9.382812 -0.351562 6.347656 -0.707031 9.027344 -6.59375 L 10.191406 -9.136719 L 21.902344 -9.136719 L 24.230469 -4.019531 C 25.78125 -0.636719 23.207031 -0.351562 22.503906 -0.316406 L 22.324219 -0.316406 L 22.324219 0 L 36.644531 0 L 36.644531 -0.316406 L 36.46875 -0.316406 C 35.765625 -0.351562 33.046875 -0.671875 31.53125 -4.019531 L 19.503906 -30.402344 L 15.871094 -22.359375 L 8.675781 -6.59375 C 6.3125 -1.339844 3.5625 -0.457031 2.363281 -0.316406 Z M 21.761719 -9.453125 L 10.335938 -9.453125 L 16.046875 -21.972656 Z M 21.761719 -9.453125 "/></g></g></g><g fill="#ffffff" fill-opacity="1"><g transform="translate(243.728889, 276.914585)"><g><path d="M 1.761719 -0.316406 L 1.761719 0 L 17 0 L 17 -0.316406 C 14.355469 -0.316406 13.226562 -1.480469 13.226562 -3.984375 L 13.226562 -14.53125 L 17.246094 -14.53125 C 19.785156 -14.53125 19.046875 -12.945312 21.160156 -7.511719 C 23.347656 -1.90625 25.851562 0 28.5 0 L 34.847656 0 L 34.847656 -0.316406 C 31.671875 -0.316406 30.15625 -1.835938 28.355469 -7.511719 C 26.628906 -12.945312 24.972656 -14.53125 20 -14.8125 C 24.265625 -15.519531 28.109375 -17.882812 28.109375 -22.574219 C 28.109375 -28.25 22.75 -30.402344 17.035156 -30.402344 L 1.761719 -30.402344 L 1.761719 -30.085938 L 2.1875 -30.085938 C 3.246094 -30.050781 5.925781 -29.589844 5.925781 -26.347656 L 5.925781 -4.054688 C 5.925781 -1.480469 4.410156 -0.316406 1.761719 -0.316406 Z M 17.035156 -14.882812 L 13.226562 -14.882812 L 13.226562 -30.085938 L 17.035156 -30.085938 C 19.574219 -30.085938 20.914062 -26.839844 20.914062 -22.574219 C 20.914062 -18.269531 19.574219 -14.882812 17.035156 -14.882812 Z M 17.035156 -14.882812 "/></g></g></g><g fill="#ffffff" fill-opacity="1"><g transform="translate(280.328493, 276.914585)"><g><path d="M 6.628906 -25.289062 L 28.886719 0 L 29.238281 0 L 29.238281 -26.488281 C 29.34375 -30.261719 33.257812 -30.050781 33.257812 -30.050781 L 33.257812 -30.402344 L 24.902344 -30.402344 L 24.902344 -30.085938 C 24.902344 -30.050781 28.816406 -30.261719 28.921875 -26.488281 L 28.921875 -10.863281 L 11.675781 -30.402344 L 1.761719 -30.402344 L 1.761719 -30.050781 C 4.269531 -30.050781 5.679688 -28.78125 5.75 -25.78125 L 5.75 -3.878906 C 5.679688 -0.636719 2.714844 -0.351562 1.941406 -0.316406 L 1.761719 -0.316406 L 1.761719 0 L 10.085938 0 L 10.085938 -0.316406 L 9.910156 -0.316406 C 9.101562 -0.351562 6.171875 -0.636719 6.066406 -3.878906 L 6.066406 -25.886719 Z M 6.628906 -25.289062 "/></g></g></g><g fill="#ffffff" fill-opacity="1"><g transform="translate(79.970017, 325.988849)"><g><path d="M 1.761719 -0.316406 L 1.761719 0 L 27.300781 0 L 29.625 -7.972656 L 29.308594 -7.972656 C 27.617188 -2.855469 23.453125 -0.316406 17.386719 -0.316406 C 14.8125 -0.316406 13.226562 -1.726562 13.226562 -4.054688 L 13.226562 -15.800781 L 18.515625 -15.800781 C 21.761719 -15.695312 22.078125 -12.769531 22.078125 -11.957031 L 22.078125 -11.78125 L 22.398438 -11.78125 L 22.398438 -20.105469 L 22.078125 -20.105469 L 22.078125 -19.925781 C 22.078125 -19.117188 21.761719 -16.1875 18.515625 -16.117188 L 13.226562 -16.117188 L 13.261719 -30.085938 L 15.800781 -30.085938 C 24.335938 -30.085938 26.171875 -24.867188 26.523438 -23.066406 L 26.628906 -22.433594 L 26.910156 -22.574219 L 25.710938 -30.402344 L 1.761719 -30.402344 L 1.761719 -30.085938 C 4.339844 -30.085938 5.925781 -28.675781 5.925781 -26.347656 L 5.925781 -4.054688 C 5.925781 -1.726562 4.339844 -0.316406 1.761719 -0.316406 Z M 1.761719 -0.316406 "/></g></g></g><g fill="#ffffff" fill-opacity="1"><g transform="translate(111.351175, 325.988849)"><g><path d="M 6.628906 -25.289062 L 28.886719 0 L 29.238281 0 L 29.238281 -26.488281 C 29.34375 -30.261719 33.257812 -30.050781 33.257812 -30.050781 L 33.257812 -30.402344 L 24.902344 -30.402344 L 24.902344 -30.085938 C 24.902344 -30.050781 28.816406 -30.261719 28.921875 -26.488281 L 28.921875 -10.863281 L 11.675781 -30.402344 L 1.761719 -30.402344 L 1.761719 -30.050781 C 4.269531 -30.050781 5.679688 -28.78125 5.75 -25.78125 L 5.75 -3.878906 C 5.679688 -0.636719 2.714844 -0.351562 1.941406 -0.316406 L 1.761719 -0.316406 L 1.761719 0 L 10.085938 0 L 10.085938 -0.316406 L 9.910156 -0.316406 C 9.101562 -0.351562 6.171875 -0.636719 6.066406 -3.878906 L 6.066406 -25.886719 Z M 6.628906 -25.289062 "/></g></g></g><g fill="#ffffff" fill-opacity="1"><g transform="translate(146.364092, 325.988849)"><g><path d="M 17.175781 0 C 19.011719 0 20.738281 -0.316406 22.398438 -0.917969 C 25.535156 -1.835938 28.921875 -1.621094 29.027344 -0.316406 L 29.34375 -0.316406 L 29.34375 -9.804688 C 29.414062 -12.027344 30.933594 -13.367188 33.367188 -13.367188 L 33.367188 -13.683594 L 18.164062 -13.683594 L 18.164062 -13.367188 C 20.457031 -13.367188 22.113281 -12.097656 22.148438 -9.769531 L 22.148438 -1.480469 C 20.84375 -0.917969 18.585938 -0.421875 17.175781 -0.421875 C 14.988281 -0.421875 8.957031 -1.871094 8.921875 -15.449219 C 8.957031 -29.027344 14.988281 -30.472656 17.175781 -30.472656 C 17.847656 -30.472656 19.398438 -30.332031 21.234375 -29.769531 C 25.078125 -28.464844 27.15625 -25.992188 27.265625 -22.253906 L 27.582031 -22.253906 L 27.582031 -30.578125 L 27.265625 -30.578125 C 27.15625 -29.238281 25.710938 -28.992188 22.398438 -29.980469 C 20.738281 -30.578125 19.011719 -30.898438 17.175781 -30.898438 C 13.121094 -30.898438 9.3125 -29.308594 6.382812 -26.488281 C 3.5625 -23.632812 1.976562 -20.175781 1.761719 -16.367188 L 1.761719 -14.601562 C 2.222656 -6.417969 9.027344 0 17.175781 0 Z M 17.175781 0 "/></g></g></g><g fill="#ffffff" fill-opacity="1"><g transform="translate(181.482784, 325.988849)"><g><path d="M 1.761719 -0.316406 L 1.761719 0 L 27.300781 0 L 29.625 -7.972656 L 29.308594 -7.972656 C 27.617188 -2.855469 23.453125 -0.316406 17.386719 -0.316406 C 14.8125 -0.316406 13.226562 -1.726562 13.226562 -4.054688 L 13.226562 -26.347656 C 13.226562 -28.675781 14.8125 -30.085938 17.386719 -30.085938 L 17.386719 -30.402344 L 1.761719 -30.402344 L 1.761719 -30.085938 C 4.339844 -30.085938 5.925781 -28.675781 5.925781 -26.347656 L 5.925781 -4.054688 C 5.925781 -1.726562 4.339844 -0.316406 1.761719 -0.316406 Z M 1.761719 -0.316406 "/></g></g></g><g fill="#ffffff" fill-opacity="1"><g transform="translate(212.863942, 325.988849)"><g><path d="M 1.761719 -0.316406 L 1.761719 0 L 17.386719 0 L 17.386719 -0.316406 C 14.8125 -0.316406 13.226562 -1.726562 13.226562 -4.054688 L 13.226562 -26.347656 C 13.226562 -28.675781 14.8125 -30.085938 17.386719 -30.085938 L 17.386719 -30.402344 L 1.761719 -30.402344 L 1.761719 -30.085938 C 4.339844 -30.085938 5.925781 -28.675781 5.925781 -26.347656 L 5.925781 -4.054688 C 5.925781 -1.726562 4.339844 -0.316406 1.761719 -0.316406 Z M 1.761719 -0.316406 "/></g></g></g><g fill="#ffffff" fill-opacity="1"><g transform="translate(232.009976, 325.988849)"><g><path d="M 7.160156 -0.847656 C 11.640625 0.847656 17.988281 0.421875 20.984375 -2.574219 C 22.398438 -3.984375 23.453125 -6.523438 23.453125 -8.570312 C 23.453125 -14.777344 18.480469 -15.941406 12.695312 -19.503906 C 9.3125 -21.585938 7.6875 -23.242188 7.6875 -25.640625 C 7.6875 -28.285156 8.992188 -30.332031 13.121094 -30.332031 C 14.742188 -30.332031 16.257812 -29.910156 17.492188 -29.203125 C 20.667969 -27.15625 20.84375 -21.304688 20.84375 -21.304688 L 21.160156 -21.304688 L 21.160156 -29.664062 L 20.84375 -29.664062 L 20.84375 -29.519531 C 20.703125 -28.179688 17.917969 -29.34375 16.71875 -29.945312 C 15.625 -30.472656 14.390625 -30.648438 13.121094 -30.648438 C 8.886719 -30.648438 4.796875 -28.355469 3.175781 -24.6875 C 1.375 -20.667969 3.070312 -18.164062 8.359375 -14.214844 C 12.203125 -11.355469 19.539062 -8.992188 19.398438 -5.042969 C 19.292969 -2.398438 17.386719 -0.140625 12.273438 -0.140625 C 7.089844 -0.140625 2.117188 -4.726562 2.117188 -9.277344 L 2.117188 -10.085938 L 1.796875 -10.085938 L 1.796875 0 L 2.117188 0 L 2.117188 -0.0351562 C 2.117188 -1.585938 2.398438 -2.679688 7.160156 -0.847656 Z M 7.160156 -0.847656 "/></g></g></g><g fill="#ffffff" fill-opacity="1"><g transform="translate(256.515488, 325.988849)"><g><path d="M 1.761719 -0.316406 L 1.761719 0 L 17.386719 0 L 17.386719 -0.316406 C 14.8125 -0.316406 13.226562 -1.726562 13.226562 -4.054688 L 13.226562 -14.285156 L 25.289062 -14.285156 L 25.289062 -4.054688 C 25.289062 -1.726562 23.703125 -0.316406 21.125 -0.316406 L 21.125 0 L 36.75 0 L 36.75 -0.316406 C 34.175781 -0.316406 32.589844 -1.726562 32.589844 -4.054688 L 32.589844 -26.347656 C 32.589844 -28.675781 34.175781 -30.085938 36.75 -30.085938 L 36.75 -30.402344 L 21.125 -30.402344 L 21.125 -30.085938 C 23.703125 -30.085938 25.289062 -28.675781 25.289062 -26.347656 L 25.289062 -14.601562 L 13.226562 -14.601562 L 13.226562 -26.347656 C 13.226562 -28.675781 14.8125 -30.085938 17.386719 -30.085938 L 17.386719 -30.402344 L 1.761719 -30.402344 L 1.761719 -30.085938 C 4.339844 -30.085938 5.925781 -28.675781 5.925781 -26.347656 L 5.925781 -4.054688 C 5.925781 -1.726562 4.339844 -0.316406 1.761719 -0.316406 Z M 1.761719 -0.316406 "/></g></g></g><g clip-path="url(#fb67f924d6)"><path fill="#ffffff" d="M 263.214844 285.410156 C 223.65625 285.167969 184.09375 284.929688 144.535156 284.691406 C 133.347656 284.625 122.097656 284.269531 110.917969 284.671875 C 110.519531 284.683594 110.859375 285.25 111.140625 285.265625 C 120.976562 285.730469 130.875 285.578125 140.722656 285.648438 C 150.578125 285.714844 160.4375 285.785156 170.292969 285.851562 C 190.171875 285.988281 210.050781 286.125 229.929688 286.261719 C 241.125 286.339844 252.320312 286.414062 263.511719 286.492188 C 264.484375 286.5 263.960938 285.414062 263.214844 285.410156 " fill-opacity="1" fill-rule="nonzero"/></g></svg>