<svg xmlns="http://www.w3.org/2000/svg" xmlns:xlink="http://www.w3.org/1999/xlink" width="192" zoomAndPan="magnify" viewBox="0 0 144 80.999996" height="108" preserveAspectRatio="xMidYMid meet" version="1.0"><defs><g/></defs><path fill="#38b6ff" d="M 0.40625 40.464844 L 143.585938 40.464844 L 143.585938 43.214844 L 0.40625 43.214844 Z M 0.40625 40.464844 " fill-opacity="1" fill-rule="nonzero"/><g fill="#38b6ff" fill-opacity="1"><g transform="translate(0.407923, 37.717559)"><g><path d="M 10.9375 -0.308594 L 11.0625 0 L 11.28125 0 L 11.773438 -1.175781 L 15.019531 -10.289062 L 18.601562 -0.308594 L 18.726562 0 L 18.972656 0 L 19.4375 -1.175781 L 26.421875 -20.703125 C 26.699219 -21.351562 28.246094 -21.414062 28.617188 -21.414062 L 28.707031 -21.414062 L 28.707031 -21.878906 L 23.640625 -21.878906 L 23.640625 -21.414062 L 23.980469 -21.414062 C 24.660156 -21.414062 26.207031 -21.324219 25.925781 -20.703125 L 19.222656 -1.761719 L 15.605469 -11.929688 L 18.726562 -20.703125 C 19.035156 -21.351562 20.582031 -21.414062 20.953125 -21.414062 L 21.042969 -21.414062 L 21.042969 -21.878906 L 15.976562 -21.878906 L 15.976562 -21.414062 L 16.285156 -21.414062 C 16.964844 -21.414062 18.511719 -21.324219 18.261719 -20.703125 L 15.359375 -12.578125 L 12.484375 -20.703125 C 12.269531 -21.292969 13.535156 -21.414062 14.058594 -21.414062 L 14.277344 -21.414062 L 14.277344 -21.878906 L 9.207031 -21.878906 L 9.207031 -21.414062 L 9.425781 -21.414062 C 9.890625 -21.414062 11 -21.292969 11.28125 -20.734375 L 14.800781 -10.9375 L 11.527344 -1.761719 L 4.820312 -20.703125 C 4.574219 -21.292969 5.871094 -21.414062 6.398438 -21.414062 L 6.613281 -21.414062 L 6.613281 -21.878906 L 1.546875 -21.878906 L 1.546875 -21.414062 L 1.730469 -21.414062 C 2.195312 -21.414062 3.335938 -21.292969 3.585938 -20.734375 Z M 10.9375 -0.308594 "/></g></g></g><g fill="#38b6ff" fill-opacity="1"><g transform="translate(30.653596, 37.717559)"><g><path d="M 1.546875 -0.433594 L 1.546875 0 L 13.691406 0 L 14.894531 -1.945312 L 14.371094 -1.945312 C 14.277344 -1.761719 13.410156 -0.433594 12.515625 -0.433594 L 4.605469 -0.433594 L 4.605469 -11.898438 L 11.898438 -11.898438 C 12.207031 -11.898438 12.546875 -11.15625 12.546875 -11.15625 L 12.761719 -11.15625 L 12.761719 -13.101562 L 12.546875 -13.101562 C 12.546875 -13.101562 12.207031 -12.359375 11.898438 -12.359375 L 4.605469 -12.359375 L 4.605469 -21.382812 L 11.835938 -21.382812 C 12.484375 -21.382812 13.195312 -20.085938 13.257812 -19.960938 L 13.472656 -19.960938 L 13.472656 -21.847656 L 1.546875 -21.847656 L 1.546875 -21.382812 C 1.546875 -21.382812 3.492188 -21.382812 3.492188 -20.644531 L 3.492188 -1.175781 C 3.492188 -0.617188 2.472656 -0.464844 1.914062 -0.433594 Z M 1.546875 -0.433594 "/></g></g></g><g fill="#38b6ff" fill-opacity="1"><g transform="translate(47.089455, 37.717559)"><g><path d="M 1.546875 -0.464844 L 1.546875 0 L 13.78125 0 L 14.988281 -1.976562 L 14.460938 -1.976562 L 14.460938 -1.945312 C 14.371094 -1.792969 13.503906 -0.464844 12.609375 -0.464844 L 4.605469 -0.464844 L 4.605469 -20.644531 C 4.605469 -21.414062 6.582031 -21.414062 6.582031 -21.414062 L 6.582031 -21.847656 L 1.546875 -21.847656 L 1.546875 -21.414062 C 1.546875 -21.414062 3.492188 -21.414062 3.492188 -20.644531 L 3.492188 -1.207031 C 3.492188 -0.648438 2.472656 -0.496094 1.914062 -0.464844 Z M 1.546875 -0.464844 "/></g></g></g><g fill="#38b6ff" fill-opacity="1"><g transform="translate(63.617985, 37.717559)"><g><path d="M 1.546875 -0.433594 L 1.546875 0 L 13.691406 0 L 14.894531 -1.945312 L 14.371094 -1.945312 C 14.277344 -1.761719 13.410156 -0.433594 12.515625 -0.433594 L 4.605469 -0.433594 L 4.605469 -11.898438 L 11.898438 -11.898438 C 12.207031 -11.898438 12.546875 -11.15625 12.546875 -11.15625 L 12.761719 -11.15625 L 12.761719 -13.101562 L 12.546875 -13.101562 C 12.546875 -13.101562 12.207031 -12.359375 11.898438 -12.359375 L 4.605469 -12.359375 L 4.605469 -21.382812 L 11.835938 -21.382812 C 12.484375 -21.382812 13.195312 -20.085938 13.257812 -19.960938 L 13.472656 -19.960938 L 13.472656 -21.847656 L 1.546875 -21.847656 L 1.546875 -21.382812 C 1.546875 -21.382812 3.492188 -21.382812 3.492188 -20.644531 L 3.492188 -1.175781 C 3.492188 -0.617188 2.472656 -0.464844 1.914062 -0.433594 Z M 1.546875 -0.433594 "/></g></g></g><g fill="#38b6ff" fill-opacity="1"><g transform="translate(80.053844, 37.717559)"><g><path d="M 1.546875 -0.433594 L 1.546875 0 L 6.613281 0 L 6.613281 -0.433594 C 5.625 -0.433594 4.046875 -0.523438 4.328125 -1.175781 L 4.296875 -1.175781 L 7.507812 -9.457031 L 15.914062 -9.457031 L 19.097656 -1.175781 C 19.34375 -0.554688 18.292969 -0.433594 17.304688 -0.433594 L 17.304688 0 L 22.375 0 L 22.375 -0.433594 C 21.476562 -0.433594 20.644531 -0.554688 20.332031 -1.082031 L 12.300781 -21.816406 L 12.300781 -21.847656 L 11.835938 -21.847656 L 3.800781 -1.144531 C 3.492188 -0.496094 2.410156 -0.433594 1.546875 -0.433594 Z M 15.730469 -9.890625 L 7.695312 -9.890625 L 11.710938 -20.273438 Z M 15.730469 -9.890625 "/></g></g></g><g fill="#38b6ff" fill-opacity="1"><g transform="translate(103.96615, 37.717559)"><g><path d="M 0.742188 -0.464844 L 0.742188 0 L 5.808594 0 L 5.808594 -0.464844 C 4.726562 -0.464844 3.832031 -0.648438 3.832031 -1.207031 L 3.832031 -9.828125 L 8.066406 -9.828125 C 9.363281 -9.828125 11.0625 -7.941406 11.464844 -6.398438 C 12.175781 -3.738281 12.421875 -1.792969 14.742188 0 L 16.53125 0 L 16.53125 -0.464844 C 14.183594 -0.464844 13.195312 -4.171875 12.730469 -6.117188 C 12.175781 -8.40625 10.878906 -9.148438 9.300781 -9.917969 C 12.359375 -10.414062 14.710938 -12.699219 14.710938 -15.945312 C 14.710938 -19.621094 11.710938 -21.847656 8.035156 -21.847656 L 0.742188 -21.847656 L 0.742188 -21.382812 C 1.824219 -21.382812 2.71875 -21.199219 2.71875 -20.671875 L 2.71875 -1.207031 C 2.71875 -0.648438 1.824219 -0.464844 0.742188 -0.464844 Z M 8.035156 -10.257812 L 3.832031 -10.257812 L 3.832031 -20.644531 C 3.832031 -21.199219 4.851562 -21.351562 5.40625 -21.382812 L 8.035156 -21.382812 C 11.09375 -21.382812 13.597656 -19.003906 13.597656 -15.945312 C 13.597656 -12.855469 11.09375 -10.257812 8.035156 -10.257812 Z M 8.035156 -10.257812 "/></g></g></g><g fill="#38b6ff" fill-opacity="1"><g transform="translate(122.502829, 37.717559)"><g><path d="M 1.546875 -0.433594 L 1.546875 0 L 5.933594 0 L 5.933594 -0.433594 C 4.851562 -0.433594 3.957031 -0.617188 3.957031 -1.175781 L 3.957031 -20.828125 L 17.152344 0 L 17.550781 0 L 17.550781 -20.671875 C 17.550781 -21.199219 18.449219 -21.414062 19.53125 -21.414062 L 19.53125 -21.847656 L 15.140625 -21.847656 L 15.140625 -21.414062 C 16.222656 -21.414062 17.121094 -21.199219 17.121094 -20.671875 L 17.121094 -2.195312 L 4.605469 -21.847656 L 1.546875 -21.847656 L 1.546875 -21.414062 C 2.625 -21.414062 3.492188 -21.199219 3.492188 -20.671875 L 3.492188 -1.175781 C 3.492188 -0.617188 2.625 -0.433594 1.546875 -0.433594 Z M 1.546875 -0.433594 "/></g></g></g><g fill="#38b6ff" fill-opacity="1"><g transform="translate(39.761449, 65.198472)"><g><path d="M 7.667969 -1.039062 C 7.617188 -0.941406 7.15625 -0.230469 6.679688 -0.230469 L 2.457031 -0.230469 L 2.457031 -6.347656 L 6.347656 -6.347656 C 6.511719 -6.347656 6.695312 -5.953125 6.695312 -5.953125 L 6.808594 -5.953125 L 6.808594 -6.992188 L 6.695312 -6.992188 C 6.695312 -6.992188 6.511719 -6.59375 6.347656 -6.59375 L 2.457031 -6.59375 L 2.457031 -11.410156 L 6.316406 -11.410156 C 6.660156 -11.410156 7.039062 -10.71875 7.074219 -10.652344 L 7.1875 -10.652344 L 7.1875 -11.65625 L 0.824219 -11.65625 L 0.824219 -11.410156 C 0.824219 -11.410156 1.863281 -11.410156 1.863281 -11.015625 L 1.863281 -0.625 C 1.863281 -0.328125 1.320312 -0.246094 1.023438 -0.230469 L 0.824219 -0.230469 L 0.824219 0 L 7.304688 0 L 7.949219 -1.039062 Z M 7.667969 -1.039062 "/></g></g></g><g fill="#38b6ff" fill-opacity="1"><g transform="translate(48.533423, 65.198472)"><g><path d="M 0.824219 -0.230469 L 0.824219 0 L 3.164062 0 L 3.164062 -0.230469 C 2.589844 -0.230469 2.109375 -0.328125 2.109375 -0.625 L 2.109375 -11.113281 L 9.152344 0 L 9.367188 0 L 9.367188 -11.03125 C 9.367188 -11.3125 9.84375 -11.425781 10.421875 -11.425781 L 10.421875 -11.65625 L 8.078125 -11.65625 L 8.078125 -11.425781 C 8.65625 -11.425781 9.132812 -11.3125 9.132812 -11.03125 L 9.132812 -1.171875 L 2.457031 -11.65625 L 0.824219 -11.65625 L 0.824219 -11.425781 C 1.402344 -11.425781 1.863281 -11.3125 1.863281 -11.03125 L 1.863281 -0.625 C 1.863281 -0.328125 1.402344 -0.230469 0.824219 -0.230469 Z M 0.824219 -0.230469 "/></g></g></g><g fill="#38b6ff" fill-opacity="1"><g transform="translate(59.778683, 65.198472)"><g><path d="M 5.738281 0.199219 C 6.363281 0.199219 6.957031 0.0664062 7.535156 -0.214844 C 8.605469 -0.675781 9.726562 -1.535156 9.726562 -1.535156 L 9.726562 -4.054688 C 9.726562 -4.351562 10.273438 -4.433594 10.570312 -4.453125 L 10.765625 -4.453125 L 10.765625 -4.683594 L 8.078125 -4.683594 L 8.078125 -4.453125 L 8.277344 -4.453125 C 8.589844 -4.433594 9.132812 -4.351562 9.132812 -4.054688 L 9.132812 -2.851562 C 9.132812 -2.09375 8.789062 -1.386719 8.195312 -0.921875 C 7.46875 -0.363281 6.628906 -0.0507812 5.738281 -0.0507812 C 5.621094 -0.0507812 5.507812 -0.0507812 5.390625 -0.0664062 C 3.199219 -0.378906 1.417969 -2.96875 1.417969 -5.789062 C 1.417969 -8.753906 3.363281 -11.527344 5.738281 -11.527344 C 7.207031 -11.527344 8.773438 -10.734375 9.464844 -9.183594 L 9.679688 -9.316406 L 9.414062 -10.402344 C 9.414062 -10.402344 8.605469 -10.933594 7.683594 -11.34375 L 7.734375 -11.3125 C 7.105469 -11.625 6.414062 -11.773438 5.738281 -11.773438 C 3.035156 -11.773438 0.824219 -9.085938 0.824219 -5.789062 C 0.824219 -2.488281 3.035156 0.199219 5.738281 0.199219 Z M 5.738281 0.199219 "/></g></g></g><g fill="#38b6ff" fill-opacity="1"><g transform="translate(71.370222, 65.198472)"><g><path d="M 0.824219 -0.246094 L 0.824219 0 L 7.355469 0 L 7.996094 -1.054688 L 7.714844 -1.054688 L 7.714844 -1.039062 C 7.667969 -0.957031 7.207031 -0.246094 6.726562 -0.246094 L 2.457031 -0.246094 L 2.457031 -11.015625 C 2.457031 -11.425781 3.511719 -11.425781 3.511719 -11.425781 L 3.511719 -11.65625 L 0.824219 -11.65625 L 0.824219 -11.425781 C 0.824219 -11.425781 1.863281 -11.425781 1.863281 -11.015625 L 1.863281 -0.644531 C 1.863281 -0.347656 1.320312 -0.265625 1.023438 -0.246094 Z M 0.824219 -0.246094 "/></g></g></g><g fill="#38b6ff" fill-opacity="1"><g transform="translate(80.191655, 65.198472)"><g><path d="M 0.824219 -0.230469 L 0.824219 0 L 3.527344 0 L 3.527344 -0.230469 L 3.3125 -0.230469 C 3.015625 -0.246094 2.472656 -0.328125 2.472656 -0.625 L 2.472656 -11.015625 C 2.472656 -11.292969 3.015625 -11.378906 3.3125 -11.410156 L 3.527344 -11.410156 L 3.527344 -11.640625 L 0.824219 -11.640625 L 0.824219 -11.410156 L 1.023438 -11.410156 C 1.335938 -11.378906 1.863281 -11.292969 1.878906 -11.015625 L 1.878906 -0.625 C 1.878906 -0.328125 1.335938 -0.246094 1.023438 -0.230469 Z M 0.824219 -0.230469 "/></g></g></g><g fill="#38b6ff" fill-opacity="1"><g transform="translate(84.544672, 65.198472)"><g><path d="M 3.5625 0.0820312 C 4.484375 0.347656 5.457031 0.265625 6.316406 -0.164062 C 7.355469 -0.691406 8.046875 -1.648438 8.046875 -2.753906 C 8.046875 -3.859375 7.371094 -4.863281 6.214844 -5.410156 L 3.363281 -6.726562 C 2.554688 -7.140625 1.878906 -7.929688 1.878906 -8.789062 L 1.878906 -8.902344 C 1.929688 -10.125 3.117188 -11.328125 4.335938 -11.394531 C 4.433594 -11.410156 4.535156 -11.410156 4.648438 -11.394531 C 5.820312 -11.34375 6.910156 -10.636719 7.617188 -9.464844 L 7.816406 -9.578125 L 7.617188 -10.421875 C 7.601562 -10.4375 7.074219 -10.785156 6.429688 -11.082031 C 6.347656 -11.113281 6.265625 -11.164062 6.183594 -11.210938 C 5.703125 -11.476562 5.175781 -11.675781 4.648438 -11.675781 C 4.519531 -11.675781 4.402344 -11.675781 4.285156 -11.65625 C 2.753906 -11.574219 1.535156 -10.453125 1.46875 -8.9375 L 1.46875 -8.773438 C 1.46875 -7.699219 2.09375 -6.710938 3.082031 -6.199219 L 5.902344 -4.898438 C 6.28125 -4.714844 6.628906 -4.5 6.910156 -4.203125 C 7.320312 -3.777344 7.585938 -3.28125 7.585938 -2.753906 C 7.585938 -2.292969 7.417969 -1.8125 7.15625 -1.386719 C 6.214844 0.148438 4.203125 0.328125 2.785156 -0.5625 C 2.078125 -1.003906 1.484375 -1.699219 1.039062 -2.539062 C 1.039062 -2.554688 1.023438 -2.554688 1.023438 -2.554688 L 0.824219 -2.441406 L 0.824219 -2.421875 L 1.121094 -1.171875 C 1.136719 -1.152344 1.699219 -0.792969 2.457031 -0.394531 C 2.539062 -0.347656 2.636719 -0.3125 2.71875 -0.265625 C 2.984375 -0.117188 3.265625 0 3.5625 0.0820312 Z M 3.5625 0.0820312 "/></g></g></g><g fill="#38b6ff" fill-opacity="1"><g transform="translate(93.415565, 65.198472)"><g><path d="M 0.824219 -0.230469 L 0.824219 0 L 3.527344 0 L 3.527344 -0.230469 L 3.3125 -0.230469 C 3.015625 -0.246094 2.472656 -0.328125 2.472656 -0.625 L 2.472656 -6.347656 L 8.308594 -6.347656 L 8.308594 -0.625 C 8.308594 -0.328125 7.765625 -0.246094 7.46875 -0.230469 L 7.253906 -0.230469 L 7.253906 0 L 9.960938 0 L 9.960938 -0.230469 L 9.761719 -0.230469 C 9.449219 -0.246094 8.902344 -0.328125 8.902344 -0.625 L 8.902344 -11.015625 C 8.902344 -11.292969 9.449219 -11.378906 9.761719 -11.410156 L 9.960938 -11.410156 L 9.960938 -11.640625 L 7.253906 -11.640625 L 7.253906 -11.410156 L 7.46875 -11.410156 C 7.765625 -11.378906 8.308594 -11.292969 8.308594 -11.015625 L 8.308594 -6.578125 L 2.472656 -6.578125 L 2.472656 -11.015625 C 2.472656 -11.292969 3.015625 -11.378906 3.3125 -11.410156 L 3.527344 -11.410156 L 3.527344 -11.640625 L 0.824219 -11.640625 L 0.824219 -11.410156 L 1.023438 -11.410156 C 1.335938 -11.378906 1.863281 -11.292969 1.878906 -11.015625 L 1.878906 -0.625 C 1.878906 -0.328125 1.335938 -0.246094 1.023438 -0.230469 Z M 0.824219 -0.230469 "/></g></g></g></svg>