<svg xmlns="http://www.w3.org/2000/svg" xmlns:xlink="http://www.w3.org/1999/xlink" width="192" zoomAndPan="magnify" viewBox="0 0 144 80.999996" height="108" preserveAspectRatio="xMidYMid meet" version="1.0"><defs><g/><clipPath id="8f54146894"><path d="M 27 36.6875 L 116 36.6875 L 116 38.1875 L 27 38.1875 Z M 27 36.6875 " clip-rule="nonzero"/></clipPath></defs><g fill="#000000" fill-opacity="1"><g transform="translate(2.004085, 32.267012)"><g><path d="M 3.570312 -14.460938 L 9.363281 -0.0195312 L 13.902344 -11.429688 L 18.496094 -0.0195312 L 24.230469 -14.441406 C 24.734375 -15.71875 25.738281 -16.46875 27.261719 -16.46875 L 27.261719 -16.644531 L 22.6875 -16.644531 L 22.6875 -16.46875 C 24.058594 -16.46875 24.542969 -15.71875 24.039062 -14.441406 L 20.449219 -5.386719 L 16.894531 -14.441406 C 16.394531 -15.71875 16.761719 -16.46875 17.917969 -16.46875 L 17.917969 -16.644531 L 10.097656 -16.644531 L 10.097656 -16.46875 C 11.316406 -16.414062 12.125 -15.890625 12.703125 -14.441406 L 13.804688 -11.683594 L 11.316406 -5.386719 L 7.78125 -14.441406 C 7.261719 -15.773438 7.589844 -16.429688 8.804688 -16.46875 L 8.804688 -16.644531 L 0.964844 -16.644531 L 0.964844 -16.46875 C 2.183594 -16.429688 3.050781 -15.773438 3.570312 -14.460938 Z M 3.570312 -14.460938 "/></g></g></g><g fill="#000000" fill-opacity="1"><g transform="translate(30.224795, 32.267012)"><g><path d="M 0.964844 -0.171875 L 0.964844 0 L 14.945312 0 L 16.21875 -4.363281 L 16.046875 -4.363281 C 15.117188 -1.5625 12.839844 -0.171875 9.519531 -0.171875 C 8.109375 -0.171875 7.242188 -0.945312 7.242188 -2.21875 L 7.242188 -8.648438 L 10.136719 -8.648438 C 11.914062 -8.59375 12.085938 -6.988281 12.085938 -6.546875 L 12.085938 -6.449219 L 12.261719 -6.449219 L 12.261719 -11.003906 L 12.085938 -11.003906 L 12.085938 -10.910156 C 12.085938 -10.464844 11.914062 -8.863281 10.136719 -8.824219 L 7.242188 -8.824219 L 7.261719 -16.46875 L 8.648438 -16.46875 C 13.324219 -16.46875 14.328125 -13.613281 14.519531 -12.628906 L 14.578125 -12.28125 L 14.730469 -12.359375 L 14.074219 -16.644531 L 0.964844 -16.644531 L 0.964844 -16.46875 C 2.375 -16.46875 3.242188 -15.699219 3.242188 -14.421875 L 3.242188 -2.21875 C 3.242188 -0.945312 2.375 -0.171875 0.964844 -0.171875 Z M 0.964844 -0.171875 "/></g></g></g><g fill="#000000" fill-opacity="1"><g transform="translate(47.404294, 32.267012)"><g><path d="M 0.964844 -0.171875 L 0.964844 0 L 14.945312 0 L 16.21875 -4.363281 L 16.046875 -4.363281 C 15.117188 -1.5625 12.839844 -0.171875 9.519531 -0.171875 C 8.109375 -0.171875 7.242188 -0.945312 7.242188 -2.21875 L 7.242188 -14.421875 C 7.242188 -15.699219 8.109375 -16.46875 9.519531 -16.46875 L 9.519531 -16.644531 L 0.964844 -16.644531 L 0.964844 -16.46875 C 2.375 -16.46875 3.242188 -15.699219 3.242188 -14.421875 L 3.242188 -2.21875 C 3.242188 -0.945312 2.375 -0.171875 0.964844 -0.171875 Z M 0.964844 -0.171875 "/></g></g></g><g fill="#000000" fill-opacity="1"><g transform="translate(64.583792, 32.267012)"><g><path d="M 0.964844 -0.171875 L 0.964844 0 L 14.945312 0 L 16.21875 -4.363281 L 16.046875 -4.363281 C 15.117188 -1.5625 12.839844 -0.171875 9.519531 -0.171875 C 8.109375 -0.171875 7.242188 -0.945312 7.242188 -2.21875 L 7.242188 -8.648438 L 10.136719 -8.648438 C 11.914062 -8.59375 12.085938 -6.988281 12.085938 -6.546875 L 12.085938 -6.449219 L 12.261719 -6.449219 L 12.261719 -11.003906 L 12.085938 -11.003906 L 12.085938 -10.910156 C 12.085938 -10.464844 11.914062 -8.863281 10.136719 -8.824219 L 7.242188 -8.824219 L 7.261719 -16.46875 L 8.648438 -16.46875 C 13.324219 -16.46875 14.328125 -13.613281 14.519531 -12.628906 L 14.578125 -12.28125 L 14.730469 -12.359375 L 14.074219 -16.644531 L 0.964844 -16.644531 L 0.964844 -16.46875 C 2.375 -16.46875 3.242188 -15.699219 3.242188 -14.421875 L 3.242188 -2.21875 C 3.242188 -0.945312 2.375 -0.171875 0.964844 -0.171875 Z M 0.964844 -0.171875 "/></g></g></g><g fill="#000000" fill-opacity="1"><g transform="translate(81.76329, 32.267012)"><g><path d="M 0.964844 -0.171875 L 0.964844 0 L 5.523438 0 L 5.523438 -0.171875 L 5.464844 -0.171875 C 5.136719 -0.191406 3.476562 -0.386719 4.941406 -3.609375 L 5.582031 -5 L 11.992188 -5 L 13.265625 -2.199219 C 14.113281 -0.347656 12.703125 -0.191406 12.320312 -0.171875 L 12.222656 -0.171875 L 12.222656 0 L 20.0625 0 L 20.0625 -0.171875 L 19.964844 -0.171875 C 19.578125 -0.191406 18.09375 -0.367188 17.261719 -2.199219 L 10.675781 -16.644531 L 8.6875 -12.242188 L 4.75 -3.609375 C 3.457031 -0.734375 1.949219 -0.25 1.292969 -0.171875 Z M 11.914062 -5.175781 L 5.65625 -5.175781 L 8.785156 -12.027344 Z M 11.914062 -5.175781 "/></g></g></g><g fill="#000000" fill-opacity="1"><g transform="translate(102.784048, 32.267012)"><g><path d="M 0.964844 -0.171875 L 0.964844 0 L 9.308594 0 L 9.308594 -0.171875 C 7.859375 -0.171875 7.242188 -0.8125 7.242188 -2.183594 L 7.242188 -7.957031 L 9.441406 -7.957031 C 10.832031 -7.957031 10.425781 -7.085938 11.585938 -4.113281 C 12.78125 -1.042969 14.152344 0 15.601562 0 L 19.078125 0 L 19.078125 -0.171875 C 17.339844 -0.171875 16.507812 -1.003906 15.523438 -4.113281 C 14.578125 -7.085938 13.671875 -7.957031 10.949219 -8.109375 C 13.285156 -8.496094 15.390625 -9.789062 15.390625 -12.359375 C 15.390625 -15.464844 12.453125 -16.644531 9.324219 -16.644531 L 0.964844 -16.644531 L 0.964844 -16.46875 L 1.195312 -16.46875 C 1.777344 -16.449219 3.242188 -16.199219 3.242188 -14.421875 L 3.242188 -2.21875 C 3.242188 -0.8125 2.414062 -0.171875 0.964844 -0.171875 Z M 9.324219 -8.148438 L 7.242188 -8.148438 L 7.242188 -16.46875 L 9.324219 -16.46875 C 10.714844 -16.46875 11.449219 -14.695312 11.449219 -12.359375 C 11.449219 -10 10.714844 -8.148438 9.324219 -8.148438 Z M 9.324219 -8.148438 "/></g></g></g><g fill="#000000" fill-opacity="1"><g transform="translate(122.820366, 32.267012)"><g><path d="M 3.628906 -13.84375 L 15.8125 0 L 16.007812 0 L 16.007812 -14.5 C 16.066406 -16.566406 18.207031 -16.449219 18.207031 -16.449219 L 18.207031 -16.644531 L 13.632812 -16.644531 L 13.632812 -16.46875 C 13.632812 -16.449219 15.773438 -16.566406 15.832031 -14.5 L 15.832031 -5.945312 L 6.390625 -16.644531 L 0.964844 -16.644531 L 0.964844 -16.449219 C 2.335938 -16.449219 3.109375 -15.753906 3.148438 -14.113281 L 3.148438 -2.125 C 3.109375 -0.347656 1.488281 -0.191406 1.0625 -0.171875 L 0.964844 -0.171875 L 0.964844 0 L 5.523438 0 L 5.523438 -0.171875 L 5.425781 -0.171875 C 4.980469 -0.191406 3.378906 -0.347656 3.320312 -2.125 L 3.320312 -14.171875 Z M 3.628906 -13.84375 "/></g></g></g><g fill="#000000" fill-opacity="1"><g transform="translate(13.128091, 59.132536)"><g><path d="M 0.964844 -0.171875 L 0.964844 0 L 14.945312 0 L 16.21875 -4.363281 L 16.046875 -4.363281 C 15.117188 -1.5625 12.839844 -0.171875 9.519531 -0.171875 C 8.109375 -0.171875 7.242188 -0.945312 7.242188 -2.21875 L 7.242188 -8.648438 L 10.136719 -8.648438 C 11.914062 -8.59375 12.085938 -6.988281 12.085938 -6.546875 L 12.085938 -6.449219 L 12.261719 -6.449219 L 12.261719 -11.003906 L 12.085938 -11.003906 L 12.085938 -10.910156 C 12.085938 -10.464844 11.914062 -8.863281 10.136719 -8.824219 L 7.242188 -8.824219 L 7.261719 -16.46875 L 8.648438 -16.46875 C 13.324219 -16.46875 14.328125 -13.613281 14.519531 -12.628906 L 14.578125 -12.28125 L 14.730469 -12.359375 L 14.074219 -16.644531 L 0.964844 -16.644531 L 0.964844 -16.46875 C 2.375 -16.46875 3.242188 -15.699219 3.242188 -14.421875 L 3.242188 -2.21875 C 3.242188 -0.945312 2.375 -0.171875 0.964844 -0.171875 Z M 0.964844 -0.171875 "/></g></g></g><g fill="#000000" fill-opacity="1"><g transform="translate(30.307589, 59.132536)"><g><path d="M 3.628906 -13.84375 L 15.8125 0 L 16.007812 0 L 16.007812 -14.5 C 16.066406 -16.566406 18.207031 -16.449219 18.207031 -16.449219 L 18.207031 -16.644531 L 13.632812 -16.644531 L 13.632812 -16.46875 C 13.632812 -16.449219 15.773438 -16.566406 15.832031 -14.5 L 15.832031 -5.945312 L 6.390625 -16.644531 L 0.964844 -16.644531 L 0.964844 -16.449219 C 2.335938 -16.449219 3.109375 -15.753906 3.148438 -14.113281 L 3.148438 -2.125 C 3.109375 -0.347656 1.488281 -0.191406 1.0625 -0.171875 L 0.964844 -0.171875 L 0.964844 0 L 5.523438 0 L 5.523438 -0.171875 L 5.425781 -0.171875 C 4.980469 -0.191406 3.378906 -0.347656 3.320312 -2.125 L 3.320312 -14.171875 Z M 3.628906 -13.84375 "/></g></g></g><g fill="#000000" fill-opacity="1"><g transform="translate(49.475281, 59.132536)"><g><path d="M 9.402344 0 C 10.40625 0 11.351562 -0.171875 12.261719 -0.503906 C 13.980469 -1.003906 15.832031 -0.886719 15.890625 -0.171875 L 16.066406 -0.171875 L 16.066406 -5.367188 C 16.101562 -6.585938 16.933594 -7.316406 18.265625 -7.316406 L 18.265625 -7.492188 L 9.945312 -7.492188 L 9.945312 -7.316406 C 11.199219 -7.316406 12.105469 -6.621094 12.125 -5.347656 L 12.125 -0.8125 C 11.410156 -0.503906 10.175781 -0.230469 9.402344 -0.230469 C 8.207031 -0.230469 4.90625 -1.023438 4.886719 -8.457031 C 4.90625 -15.890625 8.207031 -16.683594 9.402344 -16.683594 C 9.769531 -16.683594 10.621094 -16.605469 11.625 -16.296875 C 13.726562 -15.582031 14.867188 -14.230469 14.925781 -12.183594 L 15.097656 -12.183594 L 15.097656 -16.742188 L 14.925781 -16.742188 C 14.867188 -16.007812 14.074219 -15.871094 12.261719 -16.414062 C 11.351562 -16.742188 10.40625 -16.914062 9.402344 -16.914062 C 7.183594 -16.914062 5.097656 -16.046875 3.496094 -14.5 C 1.949219 -12.9375 1.082031 -11.042969 0.964844 -8.960938 L 0.964844 -7.992188 C 1.214844 -3.515625 4.941406 0 9.402344 0 Z M 9.402344 0 "/></g></g></g><g fill="#000000" fill-opacity="1"><g transform="translate(68.700878, 59.132536)"><g><path d="M 0.964844 -0.171875 L 0.964844 0 L 14.945312 0 L 16.21875 -4.363281 L 16.046875 -4.363281 C 15.117188 -1.5625 12.839844 -0.171875 9.519531 -0.171875 C 8.109375 -0.171875 7.242188 -0.945312 7.242188 -2.21875 L 7.242188 -14.421875 C 7.242188 -15.699219 8.109375 -16.46875 9.519531 -16.46875 L 9.519531 -16.644531 L 0.964844 -16.644531 L 0.964844 -16.46875 C 2.375 -16.46875 3.242188 -15.699219 3.242188 -14.421875 L 3.242188 -2.21875 C 3.242188 -0.945312 2.375 -0.171875 0.964844 -0.171875 Z M 0.964844 -0.171875 "/></g></g></g><g fill="#000000" fill-opacity="1"><g transform="translate(85.880377, 59.132536)"><g><path d="M 0.964844 -0.171875 L 0.964844 0 L 9.519531 0 L 9.519531 -0.171875 C 8.109375 -0.171875 7.242188 -0.945312 7.242188 -2.21875 L 7.242188 -14.421875 C 7.242188 -15.699219 8.109375 -16.46875 9.519531 -16.46875 L 9.519531 -16.644531 L 0.964844 -16.644531 L 0.964844 -16.46875 C 2.375 -16.46875 3.242188 -15.699219 3.242188 -14.421875 L 3.242188 -2.21875 C 3.242188 -0.945312 2.375 -0.171875 0.964844 -0.171875 Z M 0.964844 -0.171875 "/></g></g></g><g fill="#000000" fill-opacity="1"><g transform="translate(96.361802, 59.132536)"><g><path d="M 3.917969 -0.464844 C 6.371094 0.464844 9.847656 0.230469 11.488281 -1.410156 C 12.261719 -2.183594 12.839844 -3.570312 12.839844 -4.691406 C 12.839844 -8.089844 10.117188 -8.726562 6.949219 -10.675781 C 5.097656 -11.816406 4.210938 -12.722656 4.210938 -14.039062 C 4.210938 -15.484375 4.921875 -16.605469 7.183594 -16.605469 C 8.070312 -16.605469 8.902344 -16.375 9.578125 -15.988281 C 11.316406 -14.867188 11.410156 -11.664062 11.410156 -11.664062 L 11.585938 -11.664062 L 11.585938 -16.238281 L 11.410156 -16.238281 L 11.410156 -16.160156 C 11.335938 -15.425781 9.808594 -16.066406 9.152344 -16.394531 C 8.554688 -16.683594 7.878906 -16.777344 7.183594 -16.777344 C 4.867188 -16.777344 2.625 -15.523438 1.738281 -13.515625 C 0.753906 -11.316406 1.679688 -9.945312 4.574219 -7.78125 C 6.679688 -6.21875 10.695312 -4.921875 10.621094 -2.761719 C 10.5625 -1.3125 9.519531 -0.078125 6.71875 -0.078125 C 3.882812 -0.078125 1.160156 -2.585938 1.160156 -5.078125 L 1.160156 -5.523438 L 0.984375 -5.523438 L 0.984375 0 L 1.160156 0 L 1.160156 -0.0195312 C 1.160156 -0.867188 1.3125 -1.46875 3.917969 -0.464844 Z M 3.917969 -0.464844 "/></g></g></g><g fill="#000000" fill-opacity="1"><g transform="translate(109.777254, 59.132536)"><g><path d="M 0.964844 -0.171875 L 0.964844 0 L 9.519531 0 L 9.519531 -0.171875 C 8.109375 -0.171875 7.242188 -0.945312 7.242188 -2.21875 L 7.242188 -7.820312 L 13.84375 -7.820312 L 13.84375 -2.21875 C 13.84375 -0.945312 12.976562 -0.171875 11.566406 -0.171875 L 11.566406 0 L 20.121094 0 L 20.121094 -0.171875 C 18.710938 -0.171875 17.839844 -0.945312 17.839844 -2.21875 L 17.839844 -14.421875 C 17.839844 -15.699219 18.710938 -16.46875 20.121094 -16.46875 L 20.121094 -16.644531 L 11.566406 -16.644531 L 11.566406 -16.46875 C 12.976562 -16.46875 13.84375 -15.699219 13.84375 -14.421875 L 13.84375 -7.992188 L 7.242188 -7.992188 L 7.242188 -14.421875 C 7.242188 -15.699219 8.109375 -16.46875 9.519531 -16.46875 L 9.519531 -16.644531 L 0.964844 -16.644531 L 0.964844 -16.46875 C 2.375 -16.46875 3.242188 -15.699219 3.242188 -14.421875 L 3.242188 -2.21875 C 3.242188 -0.945312 2.375 -0.171875 0.964844 -0.171875 Z M 0.964844 -0.171875 "/></g></g></g><g clip-path="url(#8f54146894)"><path fill="#000000" d="M 115.082031 37.457031 C 92.238281 37.296875 69.398438 37.136719 46.558594 36.976562 C 40.101562 36.933594 33.605469 36.695312 27.152344 36.964844 C 26.921875 36.972656 27.117188 37.351562 27.28125 37.359375 C 32.960938 37.675781 38.675781 37.574219 44.359375 37.617188 C 50.050781 37.664062 55.742188 37.707031 61.433594 37.753906 C 72.910156 37.847656 84.386719 37.9375 95.863281 38.03125 C 102.328125 38.082031 108.789062 38.132812 115.25 38.183594 C 115.8125 38.1875 115.511719 37.460938 115.082031 37.457031 " fill-opacity="1" fill-rule="nonzero"/></g></svg>