<svg xmlns="http://www.w3.org/2000/svg" xmlns:xlink="http://www.w3.org/1999/xlink" width="576" zoomAndPan="magnify" viewBox="0 0 432 242.999999" height="324" preserveAspectRatio="xMidYMid meet" version="1.0"><defs><g/></defs><path fill="#ffffff" d="M 1.800781 119.214844 L 431.585938 119.214844 L 431.585938 128.214844 L 1.800781 128.214844 Z M 1.800781 119.214844 " fill-opacity="1" fill-rule="nonzero"/><g fill="#ffffff" fill-opacity="1"><g transform="translate(1.799991, 112.465676)"><g><path d="M 32.832031 -0.925781 L 33.203125 0 L 33.851562 0 L 35.335938 -3.523438 L 45.074219 -30.882812 L 55.832031 -0.925781 L 56.203125 0 L 56.945312 0 L 58.335938 -3.523438 L 79.296875 -62.140625 C 80.132812 -64.085938 84.769531 -64.273438 85.882812 -64.273438 L 86.160156 -64.273438 L 86.160156 -65.664062 L 70.949219 -65.664062 L 70.949219 -64.273438 L 71.96875 -64.273438 C 74.011719 -64.273438 78.648438 -63.992188 77.8125 -62.140625 L 57.6875 -5.285156 L 46.835938 -35.800781 L 56.203125 -62.140625 C 57.132812 -64.085938 61.769531 -64.273438 62.882812 -64.273438 L 63.160156 -64.273438 L 63.160156 -65.664062 L 47.949219 -65.664062 L 47.949219 -64.273438 L 48.875 -64.273438 C 50.917969 -64.273438 55.554688 -63.992188 54.8125 -62.140625 L 46.09375 -37.746094 L 37.46875 -62.140625 C 36.820312 -63.902344 40.621094 -64.273438 42.199219 -64.273438 L 42.847656 -64.273438 L 42.847656 -65.664062 L 27.636719 -65.664062 L 27.636719 -64.273438 L 28.289062 -64.273438 C 29.679688 -64.273438 33.015625 -63.902344 33.851562 -62.230469 L 44.425781 -32.832031 L 34.59375 -5.285156 L 14.46875 -62.140625 C 13.726562 -63.902344 17.621094 -64.273438 19.199219 -64.273438 L 19.847656 -64.273438 L 19.847656 -65.664062 L 4.636719 -65.664062 L 4.636719 -64.273438 L 5.195312 -64.273438 C 6.585938 -64.273438 10.015625 -63.902344 10.757812 -62.230469 Z M 32.832031 -0.925781 "/></g></g></g><g fill="#ffffff" fill-opacity="1"><g transform="translate(92.594608, 112.465676)"><g><path d="M 4.636719 -1.296875 L 4.636719 0 L 41.085938 0 L 44.703125 -5.84375 L 43.125 -5.84375 C 42.847656 -5.285156 40.25 -1.296875 37.5625 -1.296875 L 13.820312 -1.296875 L 13.820312 -35.707031 L 35.707031 -35.707031 C 36.632812 -35.707031 37.65625 -33.480469 37.65625 -33.480469 L 38.304688 -33.480469 L 38.304688 -39.324219 L 37.65625 -39.324219 C 37.65625 -39.324219 36.632812 -37.097656 35.707031 -37.097656 L 13.820312 -37.097656 L 13.820312 -64.179688 L 35.519531 -64.179688 C 37.46875 -64.179688 39.601562 -60.285156 39.789062 -59.914062 L 40.4375 -59.914062 L 40.4375 -65.570312 L 4.636719 -65.570312 L 4.636719 -64.179688 C 4.636719 -64.179688 10.480469 -64.179688 10.480469 -61.953125 L 10.480469 -3.523438 C 10.480469 -1.855469 7.417969 -1.390625 5.75 -1.296875 Z M 4.636719 -1.296875 "/></g></g></g><g fill="#ffffff" fill-opacity="1"><g transform="translate(141.933449, 112.465676)"><g><path d="M 4.636719 -1.390625 L 4.636719 0 L 41.363281 0 L 44.980469 -5.9375 L 43.40625 -5.9375 L 43.40625 -5.84375 C 43.125 -5.378906 40.53125 -1.390625 37.839844 -1.390625 L 13.820312 -1.390625 L 13.820312 -61.953125 C 13.820312 -64.273438 19.753906 -64.273438 19.753906 -64.273438 L 19.753906 -65.570312 L 4.636719 -65.570312 L 4.636719 -64.273438 C 4.636719 -64.273438 10.480469 -64.273438 10.480469 -61.953125 L 10.480469 -3.617188 C 10.480469 -1.949219 7.417969 -1.484375 5.75 -1.390625 Z M 4.636719 -1.390625 "/></g></g></g><g fill="#ffffff" fill-opacity="1"><g transform="translate(191.550519, 112.465676)"><g><path d="M 4.636719 -1.296875 L 4.636719 0 L 41.085938 0 L 44.703125 -5.84375 L 43.125 -5.84375 C 42.847656 -5.285156 40.25 -1.296875 37.5625 -1.296875 L 13.820312 -1.296875 L 13.820312 -35.707031 L 35.707031 -35.707031 C 36.632812 -35.707031 37.65625 -33.480469 37.65625 -33.480469 L 38.304688 -33.480469 L 38.304688 -39.324219 L 37.65625 -39.324219 C 37.65625 -39.324219 36.632812 -37.097656 35.707031 -37.097656 L 13.820312 -37.097656 L 13.820312 -64.179688 L 35.519531 -64.179688 C 37.46875 -64.179688 39.601562 -60.285156 39.789062 -59.914062 L 40.4375 -59.914062 L 40.4375 -65.570312 L 4.636719 -65.570312 L 4.636719 -64.179688 C 4.636719 -64.179688 10.480469 -64.179688 10.480469 -61.953125 L 10.480469 -3.523438 C 10.480469 -1.855469 7.417969 -1.390625 5.75 -1.296875 Z M 4.636719 -1.296875 "/></g></g></g><g fill="#ffffff" fill-opacity="1"><g transform="translate(240.88936, 112.465676)"><g><path d="M 4.636719 -1.296875 L 4.636719 0 L 19.847656 0 L 19.847656 -1.296875 C 16.878906 -1.296875 12.148438 -1.578125 12.984375 -3.523438 L 12.890625 -3.523438 L 22.535156 -28.378906 L 47.765625 -28.378906 L 57.316406 -3.523438 C 58.058594 -1.667969 54.90625 -1.296875 51.9375 -1.296875 L 51.9375 0 L 67.148438 0 L 67.148438 -1.296875 C 64.457031 -1.296875 61.953125 -1.667969 61.027344 -3.246094 L 36.914062 -65.476562 L 36.914062 -65.570312 L 35.519531 -65.570312 L 11.40625 -3.429688 C 10.480469 -1.484375 7.234375 -1.296875 4.636719 -1.296875 Z M 47.207031 -29.679688 L 23.09375 -29.679688 L 35.148438 -60.839844 Z M 47.207031 -29.679688 "/></g></g></g><g fill="#ffffff" fill-opacity="1"><g transform="translate(312.671827, 112.465676)"><g><path d="M 2.226562 -1.390625 L 2.226562 0 L 17.4375 0 L 17.4375 -1.390625 C 14.191406 -1.390625 11.5 -1.949219 11.5 -3.617188 L 11.5 -29.492188 L 24.207031 -29.492188 C 28.101562 -29.492188 33.203125 -23.835938 34.410156 -19.199219 C 36.542969 -11.222656 37.285156 -5.378906 44.238281 0 L 49.617188 0 L 49.617188 -1.390625 C 42.570312 -1.390625 39.601562 -12.519531 38.210938 -18.363281 C 36.542969 -25.226562 32.644531 -27.453125 27.917969 -29.769531 C 37.097656 -31.253906 44.148438 -38.117188 44.148438 -47.855469 C 44.148438 -58.894531 35.148438 -65.570312 24.113281 -65.570312 L 2.226562 -65.570312 L 2.226562 -64.179688 C 5.472656 -64.179688 8.160156 -63.625 8.160156 -62.046875 L 8.160156 -3.617188 C 8.160156 -1.949219 5.472656 -1.390625 2.226562 -1.390625 Z M 24.113281 -30.792969 L 11.5 -30.792969 L 11.5 -61.953125 C 11.5 -63.625 14.5625 -64.085938 16.230469 -64.179688 L 24.113281 -64.179688 C 33.296875 -64.179688 40.808594 -57.039062 40.808594 -47.855469 C 40.808594 -38.582031 33.296875 -30.792969 24.113281 -30.792969 Z M 24.113281 -30.792969 "/></g></g></g><g fill="#ffffff" fill-opacity="1"><g transform="translate(368.317164, 112.465676)"><g><path d="M 4.636719 -1.296875 L 4.636719 0 L 17.808594 0 L 17.808594 -1.296875 C 14.5625 -1.296875 11.871094 -1.855469 11.871094 -3.523438 L 11.871094 -62.511719 L 51.472656 0 L 52.679688 0 L 52.679688 -62.046875 C 52.679688 -63.625 55.367188 -64.273438 58.613281 -64.273438 L 58.613281 -65.570312 L 45.445312 -65.570312 L 45.445312 -64.273438 C 48.691406 -64.273438 51.378906 -63.625 51.378906 -62.046875 L 51.378906 -6.585938 L 13.820312 -65.570312 L 4.636719 -65.570312 L 4.636719 -64.273438 C 7.882812 -64.273438 10.480469 -63.625 10.480469 -62.046875 L 10.480469 -3.523438 C 10.480469 -1.855469 7.882812 -1.296875 4.636719 -1.296875 Z M 4.636719 -1.296875 "/></g></g></g><g fill="#ffffff" fill-opacity="1"><g transform="translate(119.397641, 197.965672)"><g><path d="M 22.996094 -3.117188 C 22.847656 -2.820312 21.464844 -0.691406 20.027344 -0.691406 L 7.367188 -0.691406 L 7.367188 -19.039062 L 19.039062 -19.039062 C 19.535156 -19.039062 20.078125 -17.851562 20.078125 -17.851562 L 20.425781 -17.851562 L 20.425781 -20.96875 L 20.078125 -20.96875 C 20.078125 -20.96875 19.535156 -19.78125 19.039062 -19.78125 L 7.367188 -19.78125 L 7.367188 -34.222656 L 18.941406 -34.222656 C 19.980469 -34.222656 21.117188 -32.144531 21.214844 -31.949219 L 21.5625 -31.949219 L 21.5625 -34.964844 L 2.472656 -34.964844 L 2.472656 -34.222656 C 2.472656 -34.222656 5.589844 -34.222656 5.589844 -33.035156 L 5.589844 -1.878906 C 5.589844 -0.988281 3.957031 -0.742188 3.066406 -0.691406 L 2.472656 -0.691406 L 2.472656 0 L 21.910156 0 L 23.835938 -3.117188 Z M 22.996094 -3.117188 "/></g></g></g><g fill="#ffffff" fill-opacity="1"><g transform="translate(145.694343, 197.965672)"><g><path d="M 2.472656 -0.691406 L 2.472656 0 L 9.496094 0 L 9.496094 -0.691406 C 7.765625 -0.691406 6.332031 -0.988281 6.332031 -1.878906 L 6.332031 -33.332031 L 27.449219 0 L 28.089844 0 L 28.089844 -33.085938 C 28.089844 -33.925781 29.523438 -34.273438 31.253906 -34.273438 L 31.253906 -34.964844 L 24.234375 -34.964844 L 24.234375 -34.273438 C 25.964844 -34.273438 27.398438 -33.925781 27.398438 -33.085938 L 27.398438 -3.511719 L 7.367188 -34.964844 L 2.472656 -34.964844 L 2.472656 -34.273438 C 4.203125 -34.273438 5.589844 -33.925781 5.589844 -33.085938 L 5.589844 -1.878906 C 5.589844 -0.988281 4.203125 -0.691406 2.472656 -0.691406 Z M 2.472656 -0.691406 "/></g></g></g><g fill="#ffffff" fill-opacity="1"><g transform="translate(179.405547, 197.965672)"><g><path d="M 17.210938 0.59375 C 19.089844 0.59375 20.871094 0.199219 22.601562 -0.644531 C 25.816406 -2.027344 29.179688 -4.597656 29.179688 -4.597656 L 29.179688 -12.164062 C 29.179688 -13.054688 30.808594 -13.304688 31.699219 -13.351562 L 32.292969 -13.351562 L 32.292969 -14.046875 L 24.234375 -14.046875 L 24.234375 -13.351562 L 24.828125 -13.351562 C 25.765625 -13.304688 27.398438 -13.054688 27.398438 -12.164062 L 27.398438 -8.554688 C 27.398438 -6.28125 26.359375 -4.152344 24.578125 -2.769531 C 22.402344 -1.089844 19.882812 -0.148438 17.210938 -0.148438 C 16.863281 -0.148438 16.519531 -0.148438 16.171875 -0.199219 C 9.59375 -1.136719 4.253906 -8.902344 4.253906 -17.359375 C 4.253906 -26.261719 10.089844 -34.570312 17.210938 -34.570312 C 21.613281 -34.570312 26.308594 -32.195312 28.386719 -27.546875 L 29.03125 -27.941406 L 28.238281 -31.207031 C 28.238281 -31.207031 25.816406 -32.789062 23.046875 -34.023438 L 23.195312 -33.925781 C 21.316406 -34.867188 19.238281 -35.3125 17.210938 -35.3125 C 9.101562 -35.3125 2.472656 -27.25 2.472656 -17.359375 C 2.472656 -7.46875 9.101562 0.59375 17.210938 0.59375 Z M 17.210938 0.59375 "/></g></g></g><g fill="#ffffff" fill-opacity="1"><g transform="translate(214.154752, 197.965672)"><g><path d="M 2.472656 -0.742188 L 2.472656 0 L 22.058594 0 L 23.984375 -3.164062 L 23.144531 -3.164062 L 23.144531 -3.117188 C 22.996094 -2.867188 21.613281 -0.742188 20.175781 -0.742188 L 7.367188 -0.742188 L 7.367188 -33.035156 C 7.367188 -34.273438 10.535156 -34.273438 10.535156 -34.273438 L 10.535156 -34.964844 L 2.472656 -34.964844 L 2.472656 -34.273438 C 2.472656 -34.273438 5.589844 -34.273438 5.589844 -33.035156 L 5.589844 -1.929688 C 5.589844 -1.039062 3.957031 -0.792969 3.066406 -0.742188 Z M 2.472656 -0.742188 "/></g></g></g><g fill="#ffffff" fill-opacity="1"><g transform="translate(240.599735, 197.965672)"><g><path d="M 2.472656 -0.691406 L 2.472656 0 L 10.582031 0 L 10.582031 -0.691406 L 9.941406 -0.691406 C 9.050781 -0.742188 7.417969 -0.988281 7.417969 -1.878906 L 7.417969 -33.035156 C 7.417969 -33.875 9.050781 -34.125 9.941406 -34.222656 L 10.582031 -34.222656 L 10.582031 -34.914062 L 2.472656 -34.914062 L 2.472656 -34.222656 L 3.066406 -34.222656 C 4.003906 -34.125 5.589844 -33.875 5.636719 -33.035156 L 5.636719 -1.878906 C 5.636719 -0.988281 4.003906 -0.742188 3.066406 -0.691406 Z M 2.472656 -0.691406 "/></g></g></g><g fill="#ffffff" fill-opacity="1"><g transform="translate(253.649226, 197.965672)"><g><path d="M 10.683594 0.246094 C 13.453125 1.039062 16.371094 0.792969 18.941406 -0.496094 C 22.058594 -2.078125 24.132812 -4.945312 24.132812 -8.257812 C 24.132812 -11.574219 22.105469 -14.589844 18.644531 -16.222656 L 10.089844 -20.175781 C 7.664062 -21.414062 5.636719 -23.789062 5.636719 -26.359375 L 5.636719 -26.707031 C 5.785156 -30.367188 9.347656 -33.976562 13.007812 -34.171875 C 13.304688 -34.222656 13.601562 -34.222656 13.945312 -34.171875 C 17.457031 -34.023438 20.722656 -31.898438 22.847656 -28.386719 L 23.441406 -28.734375 L 22.847656 -31.253906 C 22.796875 -31.304688 21.214844 -32.34375 19.289062 -33.234375 C 19.039062 -33.332031 18.792969 -33.480469 18.546875 -33.628906 C 17.113281 -34.421875 15.527344 -35.015625 13.945312 -35.015625 C 13.550781 -35.015625 13.203125 -35.015625 12.859375 -34.964844 C 8.257812 -34.71875 4.597656 -31.355469 4.402344 -26.804688 L 4.402344 -26.308594 C 4.402344 -23.09375 6.28125 -20.128906 9.25 -18.59375 L 17.703125 -14.6875 C 18.84375 -14.144531 19.882812 -13.5 20.722656 -12.609375 C 21.957031 -11.324219 22.75 -9.839844 22.75 -8.257812 C 22.75 -6.875 22.253906 -5.441406 21.464844 -4.152344 C 18.644531 0.445312 12.609375 0.988281 8.359375 -1.679688 C 6.230469 -3.015625 4.449219 -5.09375 3.117188 -7.617188 C 3.117188 -7.664062 3.066406 -7.664062 3.066406 -7.664062 L 2.472656 -7.320312 L 2.472656 -7.269531 L 3.363281 -3.511719 C 3.414062 -3.460938 5.09375 -2.375 7.367188 -1.1875 C 7.617188 -1.039062 7.914062 -0.941406 8.160156 -0.792969 C 8.953125 -0.347656 9.792969 0 10.683594 0.246094 Z M 10.683594 0.246094 "/></g></g></g><g fill="#ffffff" fill-opacity="1"><g transform="translate(280.242525, 197.965672)"><g><path d="M 2.472656 -0.691406 L 2.472656 0 L 10.582031 0 L 10.582031 -0.691406 L 9.941406 -0.691406 C 9.050781 -0.742188 7.417969 -0.988281 7.417969 -1.878906 L 7.417969 -19.039062 L 24.925781 -19.039062 L 24.925781 -1.878906 C 24.925781 -0.988281 23.292969 -0.742188 22.402344 -0.691406 L 21.761719 -0.691406 L 21.761719 0 L 29.871094 0 L 29.871094 -0.691406 L 29.277344 -0.691406 C 28.335938 -0.742188 26.707031 -0.988281 26.707031 -1.878906 L 26.707031 -33.035156 C 26.707031 -33.875 28.335938 -34.125 29.277344 -34.222656 L 29.871094 -34.222656 L 29.871094 -34.914062 L 21.761719 -34.914062 L 21.761719 -34.222656 L 22.402344 -34.222656 C 23.292969 -34.125 24.925781 -33.875 24.925781 -33.035156 L 24.925781 -19.734375 L 7.417969 -19.734375 L 7.417969 -33.035156 C 7.417969 -33.875 9.050781 -34.125 9.941406 -34.222656 L 10.582031 -34.222656 L 10.582031 -34.914062 L 2.472656 -34.914062 L 2.472656 -34.222656 L 3.066406 -34.222656 C 4.003906 -34.125 5.589844 -33.875 5.636719 -33.035156 L 5.636719 -1.878906 C 5.636719 -0.988281 4.003906 -0.742188 3.066406 -0.691406 Z M 2.472656 -0.691406 "/></g></g></g></svg>