<svg width="75" height="88" viewBox="0 0 75 88" fill="none" xmlns="http://www.w3.org/2000/svg">
<g clip-path="url(#clip0_1811_816)">
<path opacity="0.75" d="M71.838 56.5118L52.171 37.4981C54.5038 36.5552 56.3782 34.8051 57.4637 32.5056C58.6098 30.084 58.7447 27.3638 57.8547 24.8405C56.486 20.9604 52.9262 18.3556 48.8741 18.186C49.3663 17.4127 49.6967 16.5445 49.8113 15.6219C51.3552 14.0007 51.9553 11.5791 51.153 9.31344C50.3507 7.05459 48.3685 5.55548 46.157 5.27736C45.0041 4.1649 43.4399 3.54083 41.8218 3.56797C41.1813 3.58153 40.5273 3.69685 39.8868 3.9207C39.1452 4.18525 38.4912 4.59225 37.9316 5.08065C36.1853 3.3916 33.8121 2.40802 31.2703 2.4555C30.259 2.47585 29.2611 2.659 28.3037 2.99817L16.451 7.25809C11.5831 9.0014 9.03459 14.4009 10.7606 19.2917C10.8819 19.6376 11.0303 19.9632 11.1853 20.2888C10.7606 20.3431 10.3291 20.4381 9.90433 20.5941C6.93103 21.6591 5.28593 24.8065 6.01409 27.8251C3.22283 29.1614 1.83394 32.431 2.89246 35.4224C3.79591 37.973 6.20287 39.5535 8.75141 39.506C9.18966 39.4992 9.63464 39.4382 10.0796 39.3296C11.1247 41.5342 13.3496 42.8705 15.6959 42.823C16.3364 42.8095 16.9904 42.6941 17.6309 42.4703C18.9321 42.0023 19.9771 41.1408 20.6783 40.069L16.2487 76.3937C15.8105 79.9821 17.2263 83.4687 20.0243 85.7275C21.8987 87.2402 24.2449 88.0474 26.6317 87.9999C27.7441 87.9796 28.8431 87.7761 29.8949 87.403L68.1365 73.7211C71.5211 72.5136 73.9887 69.6782 74.7439 66.1509C75.5192 62.6168 74.427 59.0148 71.838 56.5118Z" fill="#CFD8DC"/>
<path d="M69.2894 54.0426L49.6292 35.029C51.962 34.0861 53.8363 32.336 54.9218 30.0365C56.068 27.6148 56.2028 24.8947 55.3129 22.3713C53.9442 18.4913 50.3843 15.8865 46.3323 15.7169C46.8245 14.9436 47.1548 14.0753 47.2694 13.1528C48.8134 11.5316 49.4135 9.10993 48.6111 6.84431C47.8088 4.58546 45.8266 3.08635 43.6152 2.80823C42.4623 1.69577 40.8981 1.0717 39.28 1.09883C38.6395 1.1124 37.9855 1.22772 37.345 1.45157C36.6033 1.71612 35.9493 2.12311 35.3897 2.61151C33.6435 0.936033 31.2703 -0.047548 28.7285 -6.47736e-05C27.7171 0.0202852 26.7193 0.203435 25.7619 0.542601L13.9024 4.78896C9.03455 6.53227 6.486 11.9318 8.212 16.8226C8.33336 17.1685 8.48169 17.4941 8.63676 17.8197C8.212 17.874 7.7805 17.9689 7.35574 18.125C4.38244 19.1899 2.73735 22.3374 3.4655 25.356C0.674243 26.6923 -0.714646 29.9619 0.343876 32.9533C1.24733 35.5038 3.65429 37.0843 6.20283 37.0369C6.64107 37.0301 7.08606 36.969 7.53104 36.8605C8.57608 39.0651 10.801 40.4014 13.1473 40.3539C13.7878 40.3403 14.4418 40.225 15.0823 40.0012C16.3835 39.5331 17.4286 38.6716 18.1297 37.5999L13.7001 73.9246C13.2619 77.5129 14.6777 80.9996 17.4758 83.2584C19.3501 84.7711 21.6964 85.5783 24.0831 85.5308C25.1956 85.5105 26.2945 85.307 27.3463 84.9339L65.5879 71.2519C68.9725 70.0445 71.4402 67.2091 72.1953 63.6817C72.9706 60.1476 71.8784 56.5457 69.2894 54.0426Z" fill="white"/>
<path d="M47.2155 29.3988C49.2247 28.6798 50.2764 26.4549 49.5618 24.4334C48.8471 22.412 46.6357 21.3538 44.6265 22.0728C42.6173 22.7919 41.5655 25.0168 42.2802 27.0382C42.9949 29.0529 45.2063 30.1111 47.2155 29.3988ZM45.4086 24.2842C46.2042 23.9993 47.0807 24.4199 47.3638 25.2203C47.647 26.0207 47.229 26.9026 46.4334 27.1875C45.6378 27.4724 44.7613 27.0518 44.4782 26.2514C44.195 25.4509 44.613 24.5691 45.4086 24.2842Z" fill="#2576B9"/>
<path d="M18.1364 16.7616L29.9959 12.522C31.6882 11.9183 32.5782 10.0326 31.9781 8.32994C31.3781 6.62733 29.5037 5.73193 27.8115 6.33564L15.952 10.5752C14.2597 11.1789 13.3697 13.0647 13.9698 14.7673C14.5698 16.4699 16.4441 17.3653 18.1364 16.7616ZM16.734 12.7798L28.5935 8.54022C29.079 8.36386 29.6116 8.62162 29.7869 9.11002C29.9622 9.59842 29.706 10.1343 29.2206 10.3107L17.3611 14.5502C16.8756 14.7266 16.343 14.4688 16.1677 13.9804C15.9924 13.492 16.2486 12.9562 16.734 12.7798Z" fill="#2576B9"/>
<path d="M65.062 58.4722L34.2367 28.6663L24.973 31.9765L19.768 74.6639C19.5927 76.1224 20.1658 77.5401 21.3052 78.4558C22.4447 79.3716 23.9414 79.6293 25.3168 79.1342L63.5652 65.4522C64.9406 64.9638 65.9452 63.8106 66.2486 62.3726C66.5588 60.9481 66.1138 59.4897 65.062 58.4722ZM27.117 33.7063L33.6637 31.366L43.6219 40.9916L25.4315 47.4968L27.117 33.7063ZM63.9698 61.891C63.8349 62.5354 63.3967 63.0306 62.7831 63.2544L24.5415 76.9364C23.9212 77.1602 23.2807 77.0449 22.7683 76.6379C22.2559 76.2241 22.0132 75.6136 22.0873 74.9624L25.1213 50.1083L45.5029 42.8163L63.4439 60.1612C63.9158 60.6157 64.1113 61.2465 63.9698 61.891Z" fill="#2576B9"/>
<path d="M34.0344 26.7534L29.7397 14.6045L19.6399 18.22L23.9347 30.3689L34.0344 26.7534ZM22.6132 19.6377L28.3238 17.5959L31.0544 25.3289L25.3438 27.3707L22.6132 19.6377Z" fill="#2576B9"/>
<path d="M41.2082 12.4068C40.7025 10.9823 41.4442 9.42213 42.86 8.91338C41.4442 9.42213 39.8935 8.67596 39.3878 7.25146C39.8935 8.67596 39.1518 10.2361 37.736 10.7449C39.1518 10.2361 40.7093 10.9823 41.2082 12.4068Z" fill="#2576B9"/>
<path d="M11.2257 34.527C14.2269 34.527 16.6599 32.0792 16.6599 29.0596C16.6599 26.0401 14.2269 23.5923 11.2257 23.5923C8.22448 23.5923 5.7915 26.0401 5.7915 29.0596C5.7915 32.0792 8.22448 34.527 11.2257 34.527Z" fill="#2576B9"/>
<path d="M27.1171 33.7064L33.6637 31.3594L43.6219 40.9917L25.4315 47.4969L27.1171 33.7064Z" fill="#D22329"/>
<path d="M63.9697 61.8911C63.8349 62.5355 63.3966 63.0307 62.7831 63.2545L24.5415 76.9365C23.9212 77.1604 23.2807 77.045 22.7683 76.638C22.2559 76.2243 22.0131 75.6138 22.0873 74.9626L25.1213 50.1085L45.5029 42.8164L63.4438 60.1614C63.9158 60.6158 64.1113 61.2467 63.9697 61.8911Z" fill="#D22329"/>
<path d="M28.3255 17.5909L22.6146 19.6338L25.3476 27.3672L31.0584 25.3243L28.3255 17.5909Z" fill="#D22329"/>
</g>
<defs>
<clipPath id="clip0_1811_816">
<rect width="75" height="88" fill="white"/>
</clipPath>
</defs>
</svg>
