<svg width="113" height="143" viewBox="0 0 113 143" fill="none" xmlns="http://www.w3.org/2000/svg">
<path opacity="0.75" d="M88.2832 10.3964C81.5482 6.74633 73.9477 4.81689 66.3074 4.81689C49.276 4.81689 33.6671 14.0961 25.5791 29.0244C24.4748 31.0533 22.6543 34.4249 17.8194 65.9125L17.7399 66.0617C16.556 68.2398 16.2775 70.6665 16.7649 72.9142C16.3272 75.8581 15.8994 78.792 15.5015 81.6265C14.8051 86.4998 16.0884 91.3632 18.864 95.2221C18.4661 96.1669 18.1676 97.1416 17.9488 98.1362C17.7796 98.1759 17.6205 98.2157 17.4514 98.2655C13.482 99.449 10.199 102.104 8.21934 105.754L5.31444 111.115C3.33472 114.755 2.897 118.952 4.08085 122.93C5.26469 126.909 7.92089 130.181 11.562 132.16L28.1657 141.151C30.4339 142.374 32.9906 143.03 35.5473 143.03C37.0495 143.03 38.5417 142.812 39.9842 142.384C43.9536 141.2 47.2365 138.545 49.2063 134.905L52.1112 129.534C54.2302 125.616 54.4789 121.18 53.1657 117.252C53.882 116.535 54.5386 115.75 55.1156 114.894C55.4041 114.904 55.6926 114.914 55.9811 114.914C60.5374 114.914 64.9346 113.263 68.3468 110.28C70.5056 108.39 72.7241 106.441 74.9525 104.462C77.171 103.616 79.0214 102.005 80.1555 99.9065L80.235 99.7573C103.982 78.5136 105.812 75.142 106.916 73.1131C119.063 50.6759 110.707 22.5498 88.2832 10.3964Z" fill="#CFD8DC"/>
<path d="M85.1395 5.6026C78.4045 1.95257 70.804 0.0231323 63.1638 0.0231323C46.1323 0.0231323 30.5234 9.30235 22.4354 24.2306C21.3312 26.2595 19.5106 29.6311 14.6758 61.1188L14.5962 61.2679C13.4123 63.446 13.1338 65.8727 13.6212 68.1204C13.1835 71.0643 12.7557 73.9983 12.3578 76.8328C11.6614 81.7061 12.9448 86.5695 15.7203 90.4283C15.3224 91.3732 15.024 92.3478 14.8051 93.3424C14.636 93.3822 14.4768 93.422 14.3077 93.4717C10.3383 94.6552 7.05537 97.3107 5.07566 100.961L2.17076 106.321C0.191048 109.961 -0.246679 114.158 0.937168 118.137C2.12102 122.115 4.77721 125.387 8.41829 127.366L25.022 136.357C27.2902 137.58 29.8469 138.237 32.4036 138.237C33.9058 138.237 35.3981 138.018 36.8406 137.59C40.8099 136.407 44.0929 133.751 46.0626 130.111L48.9675 124.741C51.0865 120.822 51.3352 116.386 50.0221 112.458C50.7383 111.742 51.3949 110.956 51.9719 110.101C52.2604 110.111 52.5489 110.121 52.8374 110.121C57.3937 110.121 61.7909 108.47 65.2032 105.486C67.3619 103.596 69.5804 101.647 71.8088 99.6678C74.0273 98.8224 75.8777 97.2112 77.0118 95.1127L77.0914 94.9635C100.838 73.7198 102.668 70.3482 103.773 68.3194C115.92 45.8722 107.563 17.7461 85.1395 5.6026Z" fill="white"/>
<path d="M91.9045 62.4813C100.868 45.9418 94.7199 25.2749 78.1858 16.314C61.6517 7.35301 40.9593 13.4994 31.9958 30.0289C29.7575 34.1663 24.9823 66.4794 23.2612 78.5434C22.8733 81.2585 24.2163 83.9339 26.6337 85.2368L48.5697 97.1217C50.9871 98.4246 53.9517 98.0964 56.021 96.2863C65.1933 88.2503 89.6562 66.6186 91.9045 62.4813Z" fill="#BCDAF2" stroke="#2576B9" stroke-width="4.5" stroke-miterlimit="10"/>
<path d="M25.4697 65.2362L65.8698 87.1158" stroke="#2576B9" stroke-width="4.5" stroke-miterlimit="10"/>
<path d="M38.2334 72.1484C38.2334 72.1484 40.8896 49.3731 61.1742 11.9479L38.2334 72.1484Z" fill="#BCDAF2"/>
<path d="M38.2334 72.1484C38.2334 72.1484 40.8896 49.3731 61.1742 11.9479" stroke="#2576B9" stroke-width="4.5" stroke-miterlimit="10"/>
<path d="M53.2056 80.264C53.2056 80.264 70.834 65.6042 91.1285 28.1691L53.2056 80.264Z" fill="#BCDAF2"/>
<path d="M53.2056 80.264C53.2056 80.264 70.834 65.6042 91.1285 28.1691" stroke="#2576B9" stroke-width="4.5" stroke-miterlimit="10"/>
<path d="M25.9671 94.7743L30.1155 87.1165L45.0877 95.2318L40.9393 102.89C39.8748 104.859 37.4076 105.595 35.4279 104.531L27.5986 100.284C25.6288 99.2199 24.8927 96.7534 25.9671 94.7743Z" fill="#BCDAF2" stroke="#2576B9" stroke-width="4.5" stroke-miterlimit="10"/>
<path d="M29.6679 125.615L13.0642 116.625C11.4426 115.749 10.8457 113.721 11.7212 112.1L14.6261 106.739C15.5015 105.118 17.531 104.521 19.1525 105.396L35.7562 114.387C37.3778 115.262 37.9747 117.291 37.0993 118.912L34.1944 124.273C33.3189 125.894 31.2895 126.49 29.6679 125.615Z" fill="#BCDAF2" stroke="#2576B9" stroke-width="4.5" stroke-miterlimit="10"/>
</svg>
